<?xml version="1.0" encoding="utf-8"?>
<!-- Generator: Adobe Illustrator 18.1.0, SVG Export Plug-In . SVG Version: 6.00 Build 0)  -->
<svg version="1.1"
	 id="Layer_1" xmlns:dc="http://purl.org/dc/elements/1.1/" xmlns:rdf="http://www.w3.org/1999/02/22-rdf-syntax-ns#" xmlns:cc="http://creativecommons.org/ns#"
	 xmlns="http://www.w3.org/2000/svg" xmlns:xlink="http://www.w3.org/1999/xlink" x="0px" y="0px" viewBox="-293 385 24 24"
	 enable-background="new -293 385 24 24" xml:space="preserve">
<g transform="translate(0 -1028.4)">
	<g>
		<path fill="#ECF0F1" d="M-284,1415.4v7.8c-1.9,2.9-3.8,5.8-5.6,8.8c-0.9,1.5,0,3.8,1.8,4.2c1.3,0.3,2.6,0.1,3.9,0.2
			c3.2,0,6.3,0,9.5-0.1c2-0.2,3.3-2.8,2.1-4.5c-1.8-2.9-3.7-5.7-5.6-8.6v-7.8C-278,1415.4-284,1415.4-284,1415.4z"/>
		<path fill="#2ECC71" d="M-277,1427.9c0,0.8-0.7,1.5-1.5,1.5s-1.5-0.7-1.5-1.5s0.7-1.5,1.5-1.5S-277,1427.1-277,1427.9z"/>
		<path fill="#BDC3C7" d="M-284,1415.4v7.8c-1.9,2.9-3.8,5.8-5.6,8.8c-0.9,1.5,0,3.8,1.8,4.2c1.3,0.3,2.6,0.1,3.8,0.2h3v-21H-284z"
			/>
		<path fill="#2ECC71" d="M-280,1427.4c0,1.1-0.9,2-2,2s-2-0.9-2-2s0.9-2,2-2S-280,1426.3-280,1427.4z"/>
		<path fill="#2ECC71" d="M-285.5,1427.4c-1.1,1.7-2.2,3.4-3.3,5.1c-0.7,1.2,0.3,2.8,1.7,2.9h12.3c1.4-0.1,2.3-1.9,1.5-3
			c-1.1-1.7-2.1-3.4-3.2-5H-285.5L-285.5,1427.4z"/>
		<path fill="#27AE60" d="M-285.5,1427.4c-1.1,1.7-2.2,3.4-3.3,5.1c-0.7,1.2,0.3,2.9,1.7,2.9h6.1v-8H-285.5z"/>
		<path fill="#27AE60" d="M-285.5,1427.4c-0.2,0.3-0.4,0.6-0.6,1h10.3c-0.2-0.4-0.4-0.7-0.7-1H-285.5L-285.5,1427.4z"/>
	</g>
</g>
</svg>
