<?xml version="1.0" encoding="utf-8"?>
<!-- Generator: Adobe Illustrator 18.1.0, SVG Export Plug-In . SVG Version: 6.00 Build 0)  -->
<svg version="1.1"
	 id="Layer_1" xmlns:cc="http://creativecommons.org/ns#" xmlns:rdf="http://www.w3.org/1999/02/22-rdf-syntax-ns#" xmlns:dc="http://purl.org/dc/elements/1.1/"
	 xmlns="http://www.w3.org/2000/svg" xmlns:xlink="http://www.w3.org/1999/xlink" x="0px" y="0px" viewBox="-293 385 24 24"
	 enable-background="new -293 385 24 24" xml:space="preserve">
<g transform="translate(0 -1028.4)">
	<g>
		<path fill="#2ECC71" d="M-285.5,1427.4c-1.1,1.7-2.2,3.4-3.3,5.1c-0.7,1.2,0.3,2.8,1.7,2.9h12.3c1.4-0.1,2.3-1.9,1.5-3
			c-1.1-1.7-2.1-3.4-3.2-5H-285.5L-285.5,1427.4z"/>
		<path fill="#27AE60" d="M-285.5,1427.4c-1.1,1.7-2.2,3.4-3.3,5.1c-0.7,1.2,0.3,2.9,1.7,2.9h6.1v-8H-285.5z"/>
		<path fill="#27AE60" d="M-285.5,1427.4c-0.2,0.3-0.4,0.6-0.6,1h10.3c-0.2-0.4-0.4-0.7-0.7-1H-285.5L-285.5,1427.4z"/>
	</g>
</g>
</svg>
