<?xml version="1.0" standalone="no"?>
<!DOCTYPE svg PUBLIC "-//W3C//DTD SVG 1.1//EN" "http://www.w3.org/Graphics/SVG/1.1/DTD/svg11.dtd" >
<svg xmlns="http://www.w3.org/2000/svg">
<metadata></metadata>
<defs>
<font id="bpg_nino_mkhedruli_bookRg" horiz-adv-x="813" >
<font-face units-per-em="2048" ascent="1638" descent="-410" />
<missing-glyph horiz-adv-x="408" />
<glyph unicode="&#xd;" horiz-adv-x="655" />
<glyph unicode=" "  horiz-adv-x="408" />
<glyph unicode="&#x09;" horiz-adv-x="408" />
<glyph unicode="&#xa0;" horiz-adv-x="408" />
<glyph unicode="!" horiz-adv-x="448" d="M136 244q0 46 23.5 75t65.5 29q39 0 63.5 -27.5t24.5 -70.5q0 -19 -6.5 -36.5t-18.5 -31t-28.5 -21.5t-36.5 -8h-2q-18 0 -33.5 7.5t-27 20t-18 28.5t-6.5 35zM190 555v1031h107v-1031h-107z" />
<glyph unicode="&#x22;" horiz-adv-x="630" d="M125 1663h126l-30 -463h-66zM380 1663h126l-30 -463h-67z" />
<glyph unicode="#" horiz-adv-x="1753" d="M177 154v1357h95l592 -1229v1229h65v-1357h-85l-596 1225v-1225h-71zM1041 1108q0 90 22.5 159.5t60.5 116.5t86 71t99 24h1q61 0 110.5 -26t84 -73.5t53 -114.5t18.5 -147q0 -100 -24 -170t-62.5 -114t-86 -64t-94.5 -20q-58 0 -107 24.5t-85 70t-56 112t-20 151.5z M1090 576v82h439v-82h-439zM1117 1110q0 -70 16.5 -123.5t43.5 -90t61.5 -55.5t70.5 -19q39 0 74 19.5t61 56t41 91t15 125.5q0 51 -10.5 103t-33.5 94.5t-59 69t-88 26.5h-2q-48 0 -84 -25t-59.5 -66.5t-35 -95t-11.5 -110.5z" />
<glyph unicode="$" horiz-adv-x="1106" d="M165 248l46 79q53 -42 128.5 -68.5t162.5 -26.5q66 0 121 18.5t94.5 52.5t61 79t21.5 98q0 50 -18 92t-51.5 76t-82 63t-109.5 53q-90 37 -156 73.5t-108.5 78.5t-63.5 92t-21 113q0 61 22 114.5t62.5 95.5t98.5 69.5t131 36.5v224h88v-224q93 -4 157 -28t110 -53 l-46 -80q-15 10 -38.5 24t-56.5 26t-74 21t-92 9q-74 0 -124.5 -20.5t-81.5 -52.5t-45 -71.5t-14 -77.5q0 -46 15 -82.5t49 -68t87 -60.5t128 -61q78 -33 139.5 -69t104.5 -80.5t66 -99.5t23 -126q0 -51 -19.5 -106t-60.5 -102t-102.5 -82t-146.5 -47v-219h-88v219 q-42 0 -86 6.5t-86 19t-79 30.5t-66 42z" />
<glyph unicode="%" horiz-adv-x="1608" d="M62 1132q0 110 27 191t71.5 133.5t100.5 78.5t115 26h2q66 0 119.5 -25t91.5 -75t59.5 -125.5t21.5 -177.5q0 -109 -24 -190.5t-65.5 -135.5t-98 -80.5t-121.5 -26.5q-58 0 -111 24t-94.5 73.5t-66.5 126.5t-27 183zM152 1116q0 -76 16.5 -135t44.5 -100.5t67 -63 t85 -21.5q54 0 94.5 24.5t67.5 69.5t40 110.5t13 148.5q0 76 -12 139.5t-37.5 107.5t-66.5 68.5t-97 24.5h-2q-50 0 -89 -26t-66.5 -74.5t-42.5 -117t-15 -155.5zM339 152l841 1409h86l-842 -1409h-85zM938 574q0 110 27 191t71 133.5t100 78.5t116 26h2q65 0 118.5 -25 t92 -75t60 -125.5t21.5 -177.5q0 -109 -24 -190.5t-65.5 -135.5t-98 -80.5t-122.5 -26.5q-57 0 -110.5 24t-95 74t-66.5 126.5t-26 182.5zM1027 559q0 -76 16.5 -135t45.5 -100.5t67.5 -63.5t84.5 -22q54 0 94.5 24.5t67 69.5t40 111t13.5 149q0 76 -12.5 139t-38 107 t-66 68.5t-96.5 24.5h-2q-50 0 -89.5 -26t-67 -74t-42.5 -116.5t-15 -155.5z" />
<glyph unicode="&#x26;" horiz-adv-x="1232" d="M62 549q0 79 25 143.5t66.5 115t96 89t113.5 68.5v6q-67 84 -98 160t-31 143q0 64 22 125t66 108t107.5 76.5t144.5 29.5q62 0 115.5 -21.5t92 -59t60 -89.5t21.5 -113q0 -57 -19 -107.5t-60.5 -98t-110 -92t-167.5 -87.5v-8q65 -73 130 -143.5t123.5 -132t107.5 -112 t84 -85.5q25 33 47.5 72.5t42.5 93t37.5 123.5t33.5 164h96q-35 -188 -83 -312t-116 -196q69 -67 127 -122.5t116 -106.5h-132q-39 35 -77.5 74t-91.5 87q-62 -54 -120 -90.5t-115.5 -58t-115 -30t-118.5 -8.5q-86 0 -162.5 29t-133.5 81.5t-90.5 125t-33.5 159.5zM163 564 q0 -74 27 -135t74 -103.5t110 -66t134 -23.5h2q60 0 114.5 12.5t102.5 34.5t89.5 51.5t74.5 64.5q-21 21 -69 70t-112.5 116.5t-141.5 149.5t-157 170q-35 -18 -77.5 -46.5t-80.5 -70t-64 -97.5t-26 -127zM330 1284q0 -46 11.5 -85.5t29.5 -74.5t39 -65.5t43 -57.5 q69 32 127 65.5t99.5 71t64.5 82.5t23 100q0 38 -11.5 76t-37 68.5t-64.5 49.5t-94 19h-2q-56 0 -98.5 -21t-71 -55t-43.5 -79t-15 -94z" />
<glyph unicode="'" horiz-adv-x="376" d="M125 1663h126l-30 -463h-66z" />
<glyph unicode="(" horiz-adv-x="564" d="M136 612q0 170 27.5 310.5t73 256t102.5 210.5t116 175h99q-73 -93 -132 -194t-101 -217t-64.5 -250t-22.5 -293q0 -155 24 -285.5t66.5 -244t101 -213t128.5 -192.5h-99q-59 75 -116 168t-102.5 207t-73 253.5t-27.5 308.5z" />
<glyph unicode=")" horiz-adv-x="564" d="M10 -322q69 91 127.5 191t101.5 215.5t67 248.5t24 291q0 156 -23 287.5t-65.5 246t-101.5 215t-130 194.5h98q59 -78 117 -171t102.5 -208.5t72.5 -255t28 -310.5q0 -170 -28 -309.5t-72.5 -254t-102.5 -208.5t-117 -172h-98z" />
<glyph unicode="*" horiz-adv-x="1140" d="M161 1082q0 7 2 15.5t8 15.5t18 11t30 4h15l278 -29l4 13l-215 177q-15 11 -24.5 25.5t-9.5 28.5q0 16 12 30q10 8 18.5 10t15.5 2h10q12 0 21.5 -10.5t18.5 -22.5l178 -216l13 4l-30 279q-1 3 -1 13q0 18 4.5 30t11.5 18.5t15 8.5t16 2t16.5 -2t15 -8t10.5 -18t4 -30 v-14l-30 -279l14 -4l177 216q9 12 19 22.5t21 10.5h10q7 0 16 -2t18 -10q8 -9 10 -18t2 -16v-10q0 -11 -10 -21t-24 -19l-215 -177l4 -13l279 29h13q37 0 48.5 -15t11.5 -31q0 -8 -2 -16.5t-8.5 -15.5t-18.5 -11t-30 -4h-6.5t-7.5 1l-279 29l-4 -12l215 -178q14 -9 24 -18.5 t10 -21.5v-10q0 -7 -2 -16t-10 -17q-14 -13 -30 -13q-14 0 -28.5 9.5t-25.5 24.5l-177 215l-14 -4l30 -278v-16q0 -36 -14 -47t-32 -11q-8 0 -16 2t-15 9t-11.5 18.5t-4.5 29.5q0 12 1 15l30 278l-13 4l-178 -215q-12 -15 -26 -24.5t-28 -9.5q-17 0 -30 13q-12 12 -12 29 q0 14 9.5 28t24.5 26l215 178l-4 12l-278 -29q-3 -1 -16 -1q-36 0 -46.5 15t-10.5 32z" />
<glyph unicode="+" horiz-adv-x="1245" d="M84 669v84h492v512h92v-512h494v-84h-494v-516h-92v516h-492z" />
<glyph unicode="," horiz-adv-x="512" d="M146 -165q74 85 105 148t31 120q0 12 -1.5 24.5t-3.5 24.5q-6 -2 -16 -2h-10q-36 0 -63 21t-27 59q0 25 8.5 43.5t22.5 30.5t31 17.5t34 5.5q49 0 78.5 -33.5t29.5 -111.5q0 -49 -12.5 -99.5t-36.5 -99.5t-59 -95.5t-77 -86.5z" />
<glyph unicode="-" horiz-adv-x="756" d="M102 627v80h553v-80h-553z" />
<glyph unicode="." horiz-adv-x="540" d="M175 251q0 18 7.5 35.5t20.5 30t30.5 20.5t37.5 8q40 0 67 -27t27 -67q0 -43 -28 -70t-66 -27q-19 0 -36.5 7.5t-30.5 21t-21 31t-8 37.5z" />
<glyph unicode="/" horiz-adv-x="542" d="M2 153l435 1389h106l-441 -1389h-100z" />
<glyph unicode="0" d="M52 891q0 194 31 335.5t82.5 233t118 136t135.5 44.5q75 0 138 -43.5t108.5 -132t71 -222.5t25.5 -316q0 -190 -25.5 -333t-73 -239.5t-116 -145t-153.5 -48.5q-66 0 -126.5 43t-108 132t-76.5 227.5t-31 328.5zM152 878q0 -147 19 -263.5t52 -197.5t79.5 -124.5 t101.5 -43.5q66 0 114.5 47.5t80.5 134t47.5 209t15.5 272.5q0 143 -15 260.5t-45.5 202t-79 130.5t-115.5 46q-56 0 -103 -45.5t-80.5 -129.5t-52.5 -201.5t-19 -262.5v-34z" />
<glyph unicode="1" horiz-adv-x="672" d="M190 1457l189 156h89v-1425h-96v1306q-38 -30 -81.5 -66.5t-79.5 -64.5z" />
<glyph unicode="2" d="M64 188v64l101 133q83 109 147 196.5t112.5 161t83 134.5t55 117t30.5 109t10 109q0 58 -10 117.5t-36 107.5t-70 78t-113 30q-34 0 -68 -13.5t-64.5 -35t-57.5 -48.5t-48 -54l-36 86q58 77 130.5 118.5t159.5 41.5q60 0 106.5 -19.5t81 -51t58 -72.5t38 -85.5t21.5 -89 t7 -82.5q0 -106 -27.5 -200.5t-82.5 -195.5t-138 -215.5t-192 -257.5l-70 -89h2v-5h537v-89h-667z" />
<glyph unicode="3" d="M67 267l35 98q16 -17 43 -36.5t60 -36.5t69.5 -28t72.5 -11q54 0 94.5 16t70 42.5t48.5 60t30 68.5t15.5 69t4.5 60v13q-1 93 -29 157t-72 103t-98.5 56.5t-109.5 17.5h-86v90h91q44 0 90.5 16.5t84 51.5t61.5 89t24 127q0 46 -10 92t-33 82.5t-62 59.5t-95 23 q-29 0 -60 -10t-59 -27.5t-54 -40t-46 -45.5l-37 94q20 22 48.5 44t63 39.5t74 28t78.5 10.5q82 0 138 -31t90 -79.5t49 -108t15 -117.5q0 -54 -18 -104.5t-49 -95t-73.5 -81t-91.5 -61.5q53 -14 103.5 -48t88.5 -83t61.5 -111t23.5 -134q0 -76 -21.5 -152t-67.5 -137 t-116.5 -99t-168.5 -38q-46 0 -87.5 10.5t-76 26t-61.5 34.5t-45 36z" />
<glyph unicode="4" horiz-adv-x="846" d="M31 604v70l541 939h80v-919h165v-90h-165v-416h-93v416h-528zM142 699h1v-5h416v788l-55 -154z" />
<glyph unicode="5" d="M65 264l34 96q18 -17 43 -36t55.5 -35t65.5 -26t72 -10q57 0 105.5 28.5t83.5 78t55 116t20 141.5q0 73 -17 138.5t-53 115t-92.5 79t-135.5 29.5q-49 0 -93 -6.5t-79 -13.5l63 654h490v-94h-410l-48 -455q17 2 39.5 4.5t57.5 2.5q52 0 98 -11t92 -35q33 -20 66 -55.5 t59 -84.5t42.5 -110.5t16.5 -134.5q0 -108 -29.5 -196t-78.5 -151t-116 -98t-143 -35q-45 0 -85.5 10t-74 25t-59.5 33.5t-44 35.5z" />
<glyph unicode="6" d="M48 767q0 108 15 204.5t40 179t58.5 150.5t71.5 119q56 73 132 125t165 77q31 9 65.5 13.5t61.5 4.5l2 -99q-29 0 -63 -2.5t-69 -13.5q-78 -22 -142.5 -74.5t-112 -127.5t-77.5 -167.5t-40 -194.5q20 35 48 65.5t62.5 53.5t74.5 36t86 13q80 0 142.5 -35.5t106 -98.5 t67 -148t23.5 -184q0 -89 -22.5 -178.5t-67 -161.5t-110 -117.5t-152.5 -45.5q-71 0 -137 36.5t-116.5 111t-81 189t-30.5 270.5zM146 733q0 -99 17.5 -186.5t51.5 -153.5t85 -104t119 -38q57 0 102.5 32.5t77.5 88t49 129.5t17 158q0 91 -19.5 161t-53.5 118t-81 73 t-102 25q-44 0 -90.5 -24t-84.5 -65t-63 -96t-25 -118z" />
<glyph unicode="7" d="M99 1523v90h651v-83l-492 -1342h-93l485 1331v4h-551z" />
<glyph unicode="8" d="M56 550q0 130 57 229.5t169 167.5q-50 27 -85.5 64t-58 79t-32.5 87t-10 90q0 80 24.5 148.5t67.5 118.5t102 78t129 28q69 0 124.5 -26.5t94.5 -73t60.5 -110t21.5 -138.5q0 -41 -8 -86.5t-29.5 -91.5t-59.5 -90t-97 -82h-2q123 -58 178.5 -153t55.5 -216 q0 -97 -29.5 -173.5t-78.5 -130t-112.5 -81.5t-130.5 -28q-71 0 -135 26.5t-112 77t-76 122.5t-28 164zM154 549q0 -58 17 -113t49.5 -96t79 -66t106.5 -25t107.5 25t80 67.5t50 97.5t17.5 115q0 78 -15 137t-46.5 101.5t-79.5 72.5t-114 50q-55 -17 -101 -50.5t-79.5 -78.5 t-52 -100.5t-18.5 -116.5q0 -5 -0.5 -10t-0.5 -10zM192 1278q0 -126 53 -197t166 -103q42 16 80 43t67.5 65t46.5 87.5t17 112.5q0 44 -10.5 91.5t-35.5 86.5t-65.5 64.5t-99.5 25.5q-54 0 -95.5 -22.5t-69 -61t-41 -87.5t-13.5 -101v-4z" />
<glyph unicode="9" d="M68 1129q0 97 25.5 189t73 163.5t114.5 115t150 43.5q68 0 128.5 -36t106.5 -110.5t73.5 -189t27.5 -270.5q0 -125 -17 -230.5t-44 -191.5t-61.5 -152t-70.5 -112q-24 -30 -54.5 -57t-63.5 -49.5t-66 -38t-62 -22.5q-42 -11 -78.5 -16.5t-66.5 -5.5h-10.5t-9.5 1v102 q19 -3 39 -3q44 0 98 12q61 13 124 60.5t112 119.5q43 70 77.5 169.5t48.5 232.5q-106 -161 -272 -161q-81 0 -141 38t-100.5 100t-60.5 141t-20 158zM166 1133q0 -74 17 -138t48 -111t74.5 -73.5t96.5 -26.5q49 0 96.5 21.5t85.5 58t61.5 82.5t23.5 97q0 105 -14.5 197 t-46 161t-80 108.5t-115.5 39.5q-57 0 -103 -34.5t-78 -92t-49 -133t-17 -156.5z" />
<glyph unicode=":" horiz-adv-x="540" d="M175 252q0 18 7.5 35.5t20.5 30t30.5 20.5t37.5 8q40 0 67 -27t27 -67q0 -43 -28 -70t-66 -27q-19 0 -36.5 7.5t-30.5 21t-21 31t-8 37.5zM175 851q0 18 7.5 35.5t20.5 30t30.5 20.5t37.5 8q40 0 67 -27.5t27 -66.5q0 -21 -7.5 -38t-20.5 -30.5t-30 -20.5t-36 -7 t-36.5 7.5t-30.5 21t-21 30.5t-8 37z" />
<glyph unicode=";" horiz-adv-x="512" d="M146 -166q74 85 105 148t31 120q0 12 -1.5 24.5t-3.5 24.5q-6 -2 -16 -2h-10q-36 0 -63 21t-27 58q0 26 8.5 44.5t22.5 30.5t31 17.5t34 5.5q49 0 78.5 -33.5t29.5 -111.5q0 -49 -12.5 -99.5t-36.5 -99.5t-59 -95.5t-77 -86.5zM161 847q0 18 7 35.5t20.5 30t31 20 t37.5 7.5q40 0 67 -27t27 -66q0 -21 -7.5 -38t-20.5 -30.5t-30.5 -20.5t-35.5 -7q-19 0 -36.5 7.5t-31 21t-21 30.5t-7.5 37z" />
<glyph unicode="&#x3c;" horiz-adv-x="1034" d="M136 595v86l813 313v-55l-769 -300l769 -302v-57z" />
<glyph unicode="=" horiz-adv-x="1034" d="M140 586v56h809v-56h-809zM140 969v57h809v-57h-809z" />
<glyph unicode="&#x3e;" horiz-adv-x="1034" d="M136 277v60l776 307l-776 293v56l826 -311v-73z" />
<glyph unicode="?" horiz-adv-x="843" d="M104 1293q0 74 28.5 133t76.5 100.5t110.5 64t131.5 22.5q87 0 152 -28.5t109 -81t65.5 -124.5t21.5 -161q0 -56 -16 -101.5t-45 -88.5t-69.5 -87t-90.5 -97q-46 -49 -76 -87.5t-30 -79.5q0 -9 1 -12v-153h-88v153q0 34 11 65t31.5 61.5t48.5 61.5t62 64q82 75 126 146 t44 155q0 67 -13.5 125t-44 101t-79.5 67.5t-120 24.5q-48 0 -93.5 -18t-81 -50t-57.5 -77t-22 -98q0 -29 8 -63.5t25 -63.5t43 -48t62 -19q55 0 82 29t27 103q0 14 -1 31.5t-9 53.5h42q17 -40 23.5 -71t6.5 -55q0 -76 -42.5 -121.5t-128.5 -45.5q-55 0 -97.5 24t-72 62.5 t-45.5 86.5t-16 97zM341 253q0 36 23.5 61t62.5 25t58.5 -25t19.5 -61q0 -33 -19.5 -56.5t-58.5 -23.5t-62.5 22.5t-23.5 57.5z" />
<glyph unicode="@" horiz-adv-x="1600" d="M80 824q0 103 24 202t69.5 186t113 160t154.5 125.5t194 82.5t230 30q150 0 271 -49.5t206.5 -137t132 -205t46.5 -253.5q0 -107 -32.5 -192t-84.5 -143t-118 -88.5t-133 -30.5q-28 0 -55.5 10t-50 32t-36 56.5t-13.5 82.5v13.5t1 14.5h-9q-29 -49 -63.5 -88t-75 -65.5 t-90.5 -41t-111 -14.5q-45 0 -88 19.5t-76.5 54.5t-54 84.5t-20.5 110.5q0 104 41.5 194t111.5 155.5t163 103t196 37.5q78 0 135 -13t106 -33l-72 -349q-16 -78 -16 -139q0 -73 25 -107.5t71 -35.5h6q45 0 89 25t78.5 71.5t56 113.5t21.5 151q0 124 -39 230t-113 183.5 t-181 121.5t-242 44q-139 0 -261 -48.5t-213 -139t-144 -219.5t-53 -291q0 -132 45.5 -243t124 -190.5t183 -123.5t224.5 -44q102 0 191.5 21t157.5 64l33 -75q-89 -49 -184.5 -70.5t-203.5 -21.5q-91 0 -175 22.5t-158.5 63.5t-136.5 101t-105.5 134.5t-68 163t-24.5 187.5 zM506 778q0 -36 11 -70.5t33.5 -60.5t57.5 -41t82 -15q61 0 116 34t98.5 85t72.5 110t38 109l48 236q-21 8 -59 16.5t-93 8.5q-82 0 -155.5 -30.5t-129 -85.5t-88 -130.5t-32.5 -165.5z" />
<glyph unicode="A" horiz-adv-x="1083" d="M50 160l460 1267h82l458 -1267h-88l-159 446h-509l-157 -446h-87zM323 683h452l-161 446q-12 32 -21 58.5t-16 50.5t-13 46.5t-12 45.5h-3q-13 -49 -27.5 -94t-35.5 -102z" />
<glyph unicode="B" horiz-adv-x="927" d="M149 160v1251q52 13 118.5 20.5t136.5 7.5q117 0 193.5 -27.5t128.5 -83.5q36 -40 53.5 -91t17.5 -118q0 -47 -15.5 -91t-42.5 -80.5t-63.5 -65t-79.5 -45.5v-6q30 -6 73 -26.5t81.5 -58.5t66.5 -95t28 -137q0 -79 -23.5 -137t-63.5 -102q-61 -67 -157.5 -96t-237.5 -29 q-65 0 -120 4t-94 6zM233 238q28 -7 68.5 -9.5t90.5 -2.5q67 0 133 13t118 45t83.5 86.5t31.5 139.5q0 74 -28.5 128t-77 88.5t-113.5 50.5t-137 16h-169v-555zM233 867h198q68 0 120 20t87.5 53.5t54.5 78.5t19 96q0 72 -25 120t-68 76t-99.5 40t-120.5 12q-67 0 -106.5 -5 t-59.5 -12v-479z" />
<glyph unicode="C" horiz-adv-x="1083" d="M64 788q0 83 18.5 164t54.5 154.5t91 137t126.5 109t161 71.5t196.5 26q65 0 115.5 -7t88.5 -16.5t63.5 -21t40.5 -19.5l-27 -77q-52 28 -124 46t-152 18q-139 0 -244.5 -44.5t-177 -123.5t-108 -187t-36.5 -237q0 -117 34.5 -220t103.5 -179.5t171.5 -121t237.5 -44.5 q83 0 162 18t138 51l25 -74q-47 -28 -140 -50.5t-217 -22.5q-115 0 -223 39.5t-192.5 120t-135.5 203t-51 287.5z" />
<glyph unicode="D" horiz-adv-x="1225" d="M149 160v1251q76 11 161 19.5t181 8.5q183 0 318 -52.5t214 -151.5q72 -85 105 -187t33 -226q0 -54 -8.5 -113t-26.5 -119.5t-48 -118.5t-74 -111q-83 -99 -224 -154.5t-335 -55.5q-78 0 -150 1.5t-146 8.5zM233 238q39 -7 98 -9.5t127 -2.5q162 0 279 46.5t193 127 t111.5 189.5t35.5 232v7q0 114 -34.5 212t-107 170t-184.5 112.5t-268 40.5q-82 0 -144.5 -8t-105.5 -18v-1099z" />
<glyph unicode="E" horiz-adv-x="864" d="M149 160v1267h619v-77h-535v-483h505v-77h-505v-552h564v-78h-648z" />
<glyph unicode="F" horiz-adv-x="862" d="M149 160v1267h619v-77h-535v-497h489v-78h-489v-615h-84z" />
<glyph unicode="G" horiz-adv-x="1174" d="M64 796q0 74 17.5 151t52.5 148.5t89 134.5t127.5 110t167.5 74t208 27q53 0 101 -6.5t87.5 -16t69 -21t46.5 -20.5l-26 -75q-53 26 -121 44t-161 18q-140 0 -247 -45.5t-179 -123t-108.5 -181.5t-36.5 -221q0 -124 36.5 -228t107 -180t173 -118.5t233.5 -42.5 q105 0 175 15t109 38v434h-294v75h377v-562q-25 -9 -60.5 -22t-84 -25.5t-108 -20.5t-131.5 -8q-129 0 -244 41t-209 138q-38 40 -68.5 91t-52.5 111.5t-34 127t-12 139.5z" />
<glyph unicode="H" horiz-adv-x="1177" d="M149 160v1267h84v-554h713v554h82v-1267h-82v636h-713v-636h-84z" />
<glyph unicode="I" horiz-adv-x="380" d="M149 160v1267h84v-1267h-84z" />
<glyph unicode="J" horiz-adv-x="639" d="M10 173l21 76q23 -13 59 -23t82 -10q60 0 106 18t78 62t48.5 117.5t16.5 185.5v828h83v-853q0 -87 -13.5 -154t-36.5 -115.5t-55 -80.5t-68.5 -51.5t-77 -27t-81.5 -7.5q-22 0 -46 3t-46 8.5t-40.5 11.5t-29.5 12z" />
<glyph unicode="K" horiz-adv-x="912" d="M149 160v1267h84v-648h6q25 37 51.5 68t52.5 60l454 520h106l-482 -539l532 -728h-104l-486 670l-130 -147v-523h-84z" />
<glyph unicode="L" horiz-adv-x="830" d="M149 160v1267h84v-1189h564v-78h-648z" />
<glyph unicode="M" horiz-adv-x="1430" d="M113 160l92 1267h94l274 -755q44 -120 77 -218.5t59 -185.5h3q23 81 57.5 178.5t83.5 223.5l287 757h98l81 -1267h-81l-35 598q-5 71 -9.5 149.5t-8.5 154.5t-6.5 144.5t-2.5 119.5h-4q-35 -101 -76 -215t-94 -258l-264 -693h-64l-247 683q-53 147 -92 264.5t-67 218.5 h-5q-2 -55 -4 -124t-5 -146t-7.5 -158t-11.5 -158l-40 -580h-82z" />
<glyph unicode="N" horiz-adv-x="1194" d="M149 160v1267h77l517 -780q39 -59 72 -108.5t61 -93.5t52.5 -85t46.5 -83l3 3q-10 111 -12 229t-2 265v653h82v-1267h-76l-500 754q-73 111 -136.5 209t-109.5 185l-5 -4q4 -54 6.5 -107.5t4 -109.5t1.5 -117.5v-132.5v-677h-82z" />
<glyph unicode="O" horiz-adv-x="1273" d="M64 777q0 150 44.5 274t122.5 213t183.5 137.5t228.5 48.5q125 0 229.5 -48t179.5 -134t116.5 -202.5t41.5 -253.5q0 -165 -48.5 -291t-129 -211.5t-184.5 -128.5t-216 -43h-1q-122 0 -225.5 48t-179.5 133t-119 202.5t-43 255.5zM151 781q0 -112 33 -215t96 -181.5 t151.5 -125t200.5 -46.5h2q114 0 204.5 45t154 124t97.5 187t34 234q0 103 -30.5 205.5t-91.5 184t-151.5 132t-210.5 50.5q-123 0 -214 -49t-152.5 -131t-92 -189t-30.5 -225z" />
<glyph unicode="P" horiz-adv-x="927" d="M149 160v1255q55 10 123 17t147 7q117 0 197.5 -29t132.5 -84q46 -46 68.5 -106.5t22.5 -140.5q0 -163 -87 -260q-59 -70 -152 -104t-207 -34q-44 0 -85 3t-76 17v-541h-84zM233 781q35 -13 78.5 -18t92.5 -5q171 0 262.5 82t91.5 229q0 82 -27 138t-73.5 90.5t-108.5 50 t-132 15.5q-64 0 -111.5 -6.5t-72.5 -12.5v-563z" />
<glyph unicode="Q" horiz-adv-x="1273" d="M64 775q0 152 44.5 276.5t122.5 213.5t184 137t230 48t228 -48t179 -134t116.5 -202.5t41.5 -253.5q0 -129 -30 -234.5t-84.5 -186.5t-129.5 -136.5t-165 -85.5v-7q55 -11 111 -24t110.5 -24.5t105 -21t94.5 -16.5l-25 -86q-129 29 -254.5 63t-233.5 66q-19 5 -36 12 t-37 7q-119 4 -223 50t-181.5 128t-122.5 198t-45 261zM151 777q0 -112 33.5 -214.5t96 -180t151 -123.5t199.5 -46h1q114 0 204.5 45t154.5 124t98.5 187t34.5 234q0 103 -30.5 205.5t-91 184t-150 132t-207.5 50.5q-124 0 -216.5 -49.5t-154.5 -132t-92.5 -190.5 t-30.5 -226z" />
<glyph unicode="R" horiz-adv-x="929" d="M149 160v1251q28 7 62.5 12.5t71 9t74 5t69.5 1.5q123 0 202.5 -28.5t131.5 -84.5q37 -38 58.5 -97t21.5 -124q0 -64 -17 -116.5t-48 -93.5t-74 -71t-95 -49v-3q69 -26 114.5 -94.5t65.5 -163.5q17 -75 30 -132t24 -99t20.5 -71.5t18.5 -51.5h-87q-15 28 -34.5 107 t-42.5 198q-27 136 -89.5 203t-176.5 74h-216v-582h-84zM233 817h219q70 0 126.5 20t96.5 55.5t61.5 85.5t21.5 111q0 77 -26.5 129.5t-71.5 84.5t-105.5 46.5t-129.5 14.5q-71 0 -120 -7t-72 -14v-526z" />
<glyph unicode="S" horiz-adv-x="854" d="M78 233l32 76q56 -43 127.5 -68.5t154.5 -25.5q69 0 124.5 19.5t94 54.5t59 83.5t20.5 107.5q0 54 -14 97.5t-44.5 79t-79.5 64.5t-121 54q-85 31 -146.5 66t-99.5 77.5t-56 93.5t-18 113q0 69 25.5 129t72.5 103t112.5 68t143.5 25q92 0 156 -20t98 -44l-33 -77 q-12 9 -33 20.5t-49.5 22t-64 17t-77.5 6.5q-77 0 -128.5 -23t-83 -57.5t-44.5 -76.5t-13 -80q0 -51 14 -91t45.5 -73.5t79.5 -61t118 -52.5q77 -29 137.5 -61.5t100.5 -75.5t61 -99.5t21 -133.5q0 -67 -22.5 -129.5t-69.5 -112.5t-120.5 -80t-175.5 -30q-39 0 -82 6.5 t-84 19t-77 30t-61 39.5z" />
<glyph unicode="T" horiz-adv-x="862" d="M-34 1350v77h932v-77h-425v-1190h-82v1190h-425z" />
<glyph unicode="U" horiz-adv-x="1168" d="M149 695v732h84v-730q0 -130 27 -221t73 -149.5t108.5 -85t132.5 -26.5q80 0 146.5 28t115 87t75 150t26.5 217v730h83v-723q0 -153 -36 -260.5t-98 -175.5t-143.5 -99t-172.5 -31q-83 0 -159 29t-134.5 94.5t-93 172t-34.5 261.5z" />
<glyph unicode="V" horiz-adv-x="922" d="M-13 1427h87l225 -697q47 -147 84 -262t64 -214h3q29 102 71.5 218.5t92.5 255.5l254 699h90l-475 -1267h-81z" />
<glyph unicode="W" horiz-adv-x="1491" d="M19 1427h84l182 -726q28 -124 56 -234t47 -192h3q16 79 47 189t68 237l209 726h82l184 -725q15 -57 29 -116t27.5 -114t24 -105.5t17.5 -91.5h4q20 90 49.5 193t64.5 231l212 728h84l-376 -1267h-82l-184 726q-20 75 -34.5 136t-26.5 113.5t-20.5 98t-14.5 87.5h-4 q-7 -42 -18 -86.5t-25 -96.5t-32 -112.5t-40 -135.5l-213 -730h-80z" />
<glyph unicode="X" horiz-adv-x="1014" d="M54 160l400 642l-384 625h99l203 -341q43 -71 74 -123.5t58 -98.5h4q28 48 60.5 99t76.5 121l216 343h100l-409 -619l409 -648h-98l-190 300q-31 51 -56.5 91.5t-46.5 73t-38 60t-32 53.5h-4q-15 -26 -30 -53.5t-34.5 -60t-44.5 -73t-58 -93.5l-177 -298h-98z" />
<glyph unicode="Y" horiz-adv-x="914" d="M20 1427h94l211 -395q43 -74 76.5 -136t63.5 -128h3q29 61 64 126t78 138l222 395h95l-425 -728v-539h-83v542z" />
<glyph unicode="Z" horiz-adv-x="1023" d="M62 160v63l781 1121v6h-715v77h825v-63l-783 -1121v-5h794v-78h-902z" />
<glyph unicode="[" horiz-adv-x="564" d="M188 -337v1918h386v-80h-292v-1759h292v-79h-386z" />
<glyph unicode="\" horiz-adv-x="542" d="M2 1542h106l435 -1389h-100z" />
<glyph unicode="]" horiz-adv-x="564" d="M-10 -258h292v1759h-292v80h386v-1918h-386v79z" />
<glyph unicode="^" horiz-adv-x="1245" d="M146 588l428 948h96l429 -948h-98l-377 854h-4l-375 -854h-99z" />
<glyph unicode="_" horiz-adv-x="1044" d="M0 21h1044v-104h-1044v104z" />
<glyph unicode="`" horiz-adv-x="626" d="M60 1624h155l190 -293h-80z" />
<glyph unicode="a" horiz-adv-x="839" d="M70 387q0 75 32 136.5t97.5 105t166 67t238.5 22.5h17v22q0 17 -2 44t-9.5 56.5t-22.5 59.5t-40.5 54t-63.5 39.5t-92 15.5q-62 0 -122 -18t-112 -58l-26 66q66 50 137 68.5t130 18.5q68 0 117.5 -18t83.5 -48.5t54.5 -70t32 -82t15 -84t3.5 -77.5v-327q0 -55 2.5 -109.5 t10.5 -109.5h-76l-13 140h-4q-15 -27 -42 -55.5t-65 -52.5t-84.5 -39t-103.5 -15q-69 0 -118 23.5t-80.5 60t-46 80.5t-14.5 85zM160 403q0 -48 14.5 -83.5t39 -59t56 -35.5t67.5 -12q59 0 104.5 17.5t79 44.5t55.5 59.5t34 63.5q6 14 8.5 27.5t2.5 24.5v192q-12 0 -24 0.5 t-24 0.5q-75 0 -149 -10.5t-132.5 -37.5t-95 -73.5t-36.5 -118.5z" />
<glyph unicode="b" horiz-adv-x="1036" d="M142 160q5 55 6 109.5t1 109.5v1128h84v-631h2q21 45 52.5 84t74 67t95 43.5t116.5 15.5q90 0 162 -36.5t123 -99.5t78.5 -147t27.5 -178q0 -119 -34.5 -210.5t-91.5 -153t-130 -92.5t-148 -31q-107 0 -190.5 45t-143.5 152h-8v-175h-76zM233 519q0 -16 1.5 -34t6.5 -35 q12 -47 39.5 -90t67.5 -75.5t90.5 -52t108.5 -19.5q76 0 138.5 29t105.5 82.5t66.5 128.5t23.5 168q0 79 -22.5 150t-64 124.5t-102 84.5t-135.5 31q-50 0 -98.5 -16t-90.5 -47.5t-74 -79t-49 -110.5q-5 -16 -8.5 -36t-3.5 -47v-156z" />
<glyph unicode="c" horiz-adv-x="842" d="M72 599q0 113 36 203t98 153.5t146.5 97t181.5 33.5q45 0 85 -6t71.5 -15.5t55 -21t35.5 -21.5l-30 -75q-36 23 -90 41.5t-134 18.5q-90 0 -159.5 -31t-116.5 -85t-71.5 -126t-24.5 -155q0 -89 27 -161.5t75.5 -124t114.5 -80t143 -28.5q43 0 78.5 7t64.5 16t52 19.5 t41 18.5l24 -73q-13 -7 -38 -18.5t-59.5 -22t-79 -18t-96.5 -7.5q-97 0 -176.5 35t-135.5 97.5t-87 146.5t-31 182z" />
<glyph unicode="d" horiz-adv-x="1018" d="M72 592v7q0 108 32.5 197.5t88 154t130.5 100t159 35.5q63 0 113 -16.5t87.5 -42t62.5 -56.5t38 -58h3v594h84v-1128q0 -55 1 -109.5t5 -109.5h-80v189h-4q-18 -43 -47.5 -81t-71 -67.5t-94.5 -46t-116 -16.5q-86 0 -157.5 35.5t-123 97.5t-81 144.5t-29.5 176.5z M155 602q0 -77 20 -146.5t60.5 -124t102.5 -86.5t144 -32q52 0 99.5 19t87 52t67.5 78.5t40 99.5q10 34 10 79v160q0 19 -2.5 43t-7.5 44q-13 46 -39 86.5t-63.5 71t-85 48t-105.5 17.5q-72 0 -132 -29.5t-104 -83t-68 -129t-24 -167.5z" />
<glyph unicode="e" horiz-adv-x="908" d="M72 590q0 114 31.5 206t86 156.5t129 99t160.5 34.5q76 0 131 -22.5t94.5 -58.5t64.5 -82t39 -92.5t19 -89t5 -73.5v-33t-2 -23h-677q0 -99 26.5 -173t73.5 -123.5t109.5 -74.5t135.5 -25q52 0 92 5t71 13.5t54 18.5t43 20l22 -73q-11 -5 -34 -16t-58.5 -21t-84.5 -17.5 t-113 -7.5q-95 0 -172 33.5t-131.5 94t-84.5 143.5t-30 181zM160 684h587q0 24 -3.5 57.5t-14 70t-30 72t-50 64t-75.5 46t-106 17.5q-77 0 -133 -31.5t-92.5 -80t-56.5 -106.5t-26 -109z" />
<glyph unicode="f" horiz-adv-x="482" d="M26 989v74h123v43q0 117 23 202t75 140q39 39 87 60t106 21q44 0 79 -10t54 -24l-26 -71q-20 11 -46 19.5t-67 8.5q-63 0 -102 -28t-61 -75t-30 -110t-8 -131v-45h237v-74h-237v-829h-84v829h-123z" />
<glyph unicode="g" horiz-adv-x="1018" d="M72 601q0 113 34.5 203.5t91.5 153t130 95.5t151 33q68 0 119.5 -17.5t89.5 -45t63.5 -61.5t40.5 -66h9v167h75q-4 -55 -5 -109t-1 -109v-551q0 -83 -9 -148t-25.5 -116t-39.5 -89.5t-51 -66.5q-32 -33 -69.5 -54t-78 -34t-81 -18.5t-76.5 -5.5q-38 0 -78.5 6t-78.5 16.5 t-72.5 27.5t-59.5 38l30 74q50 -36 116.5 -61t156.5 -25q72 0 133.5 21.5t105.5 67t68.5 118.5t24.5 176v132h-3q-17 -37 -46 -71.5t-69.5 -61.5t-92.5 -43.5t-115 -16.5q-87 0 -158 37t-122 98t-79.5 140.5t-28.5 165.5zM155 612q0 -67 19.5 -134.5t59.5 -121t102.5 -87 t146.5 -33.5q49 0 93.5 16t82.5 44.5t66.5 68.5t44.5 87q8 21 12 46.5t4 51.5v151q0 26 -2 49t-9 44q-15 44 -41 84t-63 69.5t-82.5 46.5t-100.5 17q-74 0 -134.5 -28.5t-105 -81t-69 -126t-24.5 -163.5z" />
<glyph unicode="h" horiz-adv-x="999" d="M149 160v1347h84v-627h2q20 44 51 82.5t74 64.5q40 27 86.5 43t96.5 16q19 0 50 -4.5t66.5 -18.5t71 -42t64 -73.5t46.5 -112.5t18 -160v-515h-83v512q0 65 -13 125.5t-44 106.5t-79 73.5t-119 27.5q-49 0 -92 -17.5t-79.5 -47t-63 -68t-41.5 -79.5q-8 -22 -10 -43.5 t-2 -52.5v-537h-84z" />
<glyph unicode="i" horiz-adv-x="380" d="M121 1330q0 32 20 56.5t50 24.5q29 0 48.5 -24t19.5 -57q0 -31 -19 -55.5t-51 -24.5h-1q-30 0 -48.5 24.5t-18.5 55.5zM149 160v903h84v-903h-84z" />
<glyph unicode="j" horiz-adv-x="389" d="M-98 -162q127 3 188 73q17 22 30 48.5t21 68.5t12 106t4 160v769h84v-837q0 -117 -19 -206.5t-75 -158.5q-24 -28 -56 -47t-65 -30.5t-63.5 -16.5t-52.5 -5zM131 1330q0 32 19.5 56.5t51.5 24.5q30 0 48 -24.5t18 -56.5q0 -31 -18 -55.5t-52 -24.5h-1q-32 0 -49 24.5 t-17 55.5z" />
<glyph unicode="k" horiz-adv-x="775" d="M149 160v1347h84v-879h2q17 23 42.5 52t47.5 52l316 331h106l-363 -371l415 -532h-103l-371 478l-92 -99v-379h-84z" />
<glyph unicode="l" horiz-adv-x="380" d="M149 160v1347h84v-1347h-84z" />
<glyph unicode="m" horiz-adv-x="1517" d="M142 1063h84v-175h5q21 42 48.5 78.5t62.5 63t80 41.5t101 15q48 0 89 -17t73.5 -47t56 -69t36.5 -82h3q18 42 40.5 73t45.5 53q21 21 44 37.5t49.5 28t58 17.5t68.5 6q20 0 49 -5t61 -21t64.5 -44t58.5 -74.5t42.5 -114.5t16.5 -162v-505h-83v503q0 171 -62.5 257.5 t-173.5 86.5q-43 0 -81 -16t-68.5 -41.5t-53.5 -58t-36 -67.5q-6 -18 -11 -40t-5 -48v-576h-83v550q0 66 -15.5 120.5t-45 94t-70 61t-91.5 21.5q-46 0 -87 -19t-73.5 -48.5t-56 -67t-36.5 -74.5q-14 -38 -14 -88v-550h-84v685q0 55 -1 109t-6 109z" />
<glyph unicode="n" horiz-adv-x="999" d="M142 1063h84v-181h5q18 42 48 79.5t70 65t89 43.5t105 16q18 0 49 -4.5t66.5 -18.5t71 -42t64 -73.5t47 -112.5t18.5 -161v-514h-83v514q0 67 -13.5 127t-44.5 106t-79 73t-118 27q-49 0 -92.5 -17.5t-80 -47t-63 -68.5t-40.5 -81q-5 -17 -8.5 -39t-3.5 -43v-551h-84v685 q0 55 -1 109t-6 109z" />
<glyph unicode="o" horiz-adv-x="999" d="M72 602q0 113 35.5 203t94.5 152.5t137 95.5t163 33q98 0 177 -36t134 -99t84.5 -147.5t29.5 -180.5q0 -127 -40 -218.5t-103 -151t-140.5 -87.5t-151.5 -28h-1q-91 0 -167.5 34.5t-132 97t-87.5 147.5t-32 185zM155 608q0 -95 28.5 -168.5t75.5 -124t108 -76.5t127 -26 h2q67 0 129.5 26.5t111 78t78.5 127t30 173.5q0 64 -20 133.5t-62 127t-106.5 95t-154.5 37.5q-86 0 -151 -33.5t-108.5 -89.5t-65.5 -129t-22 -151z" />
<glyph unicode="p" horiz-adv-x="1036" d="M142 1063h85v-188h6q22 46 54 84.5t74.5 67t95.5 44t116 15.5q90 0 162 -36.5t123 -99t78.5 -145.5t27.5 -175q0 -118 -33 -210t-89.5 -154.5t-131 -95t-156.5 -32.5q-48 0 -94.5 11t-88 34t-76.5 57.5t-60 81.5h-2v-538h-84v988q0 74 -1 145.5t-6 145.5zM233 523 q0 -18 1.5 -36t6.5 -35q12 -48 40 -91.5t68 -76t90.5 -52t107.5 -19.5q76 0 138.5 29t105.5 83t66.5 130.5t23.5 171.5q0 77 -22.5 146.5t-64 122.5t-102 84t-135.5 31q-51 0 -99.5 -16t-89.5 -47t-72.5 -77.5t-48.5 -108.5q-5 -18 -9.5 -39t-4.5 -40v-160z" />
<glyph unicode="q" horiz-adv-x="1014" d="M72 592q0 133 39 227t99.5 153.5t134.5 86.5t145 27q64 0 114 -17.5t87 -46t62 -62.5t39 -65h9v168h75q-4 -55 -5 -109t-1 -109v-1061h-84v550h-3q-17 -38 -45.5 -73.5t-69 -63t-92.5 -43.5t-114 -16q-86 0 -157 36t-122.5 98t-81 144.5t-29.5 175.5zM155 604 q0 -74 19 -144t58.5 -125.5t101 -88.5t145.5 -33q49 0 94 16t82.5 44.5t66.5 68t46 87.5q8 21 13 45t5 45v183q0 51 -10 88q-13 44 -39 84t-62.5 70.5t-84 48.5t-104.5 18q-73 0 -133.5 -28.5t-104.5 -81.5t-68.5 -128.5t-24.5 -168.5z" />
<glyph unicode="r" horiz-adv-x="540" d="M142 1063h79v-196h5q16 47 40 87t55.5 70t69.5 46t83 16q24 0 41 -7v-83q-11 2 -23 2.5t-26 0.5q-42 0 -78.5 -19t-66 -53.5t-50 -82t-30.5 -106.5q-5 -20 -6.5 -43t-1.5 -46v-489h-84v612q0 74 -1 145.5t-6 145.5z" />
<glyph unicode="s" horiz-adv-x="690" d="M85 204l29 79q38 -26 90 -47t113 -21q53 0 92.5 14.5t64.5 38.5t37 55.5t12 66.5q0 39 -12 69.5t-36 54.5t-60 42t-83 36q-112 38 -166.5 100.5t-54.5 142.5q0 48 17.5 93t51 80t83.5 56.5t116 21.5q60 0 110 -17t85 -44l-31 -75q-10 8 -26 18t-38.5 19.5t-51.5 15.5 t-64 6q-42 0 -73.5 -13.5t-53 -36t-32.5 -51.5t-11 -60q0 -39 12.5 -66.5t36.5 -49t59.5 -38.5t80.5 -33q57 -21 98 -45.5t68.5 -56.5t41.5 -71t14 -90q0 -55 -20 -102.5t-57 -83t-92 -55t-124 -19.5q-65 0 -122.5 18t-103.5 48z" />
<glyph unicode="t" horiz-adv-x="573" d="M34 989v74h149v171l83 28v-199h257v-74h-257v-577q0 -42 6 -77.5t21 -61.5t40 -41.5t63 -15.5q36 0 62 5t44 13l11 -72q-22 -10 -53 -17t-72 -7q-49 0 -87.5 16.5t-63.5 51.5q-30 39 -42 96.5t-12 121.5v565h-149z" />
<glyph unicode="u" horiz-adv-x="991" d="M141 557v506h82v-487q0 -79 13 -145t42 -113.5t76 -73.5t114 -26q46 0 88.5 15.5t77.5 41.5t61.5 60.5t42.5 74.5q9 21 15.5 49t6.5 57v547h83v-684q0 -55 1 -109.5t5 -109.5h-83v184h-2q-19 -38 -48 -75t-68 -66.5t-89.5 -47t-111.5 -17.5q-24 0 -55.5 4.5t-65.5 19 t-67.5 42.5t-59.5 74t-42 114.5t-16 164.5z" />
<glyph unicode="v" horiz-adv-x="839" d="M23 1063h90l212 -556q29 -77 51 -137.5t41 -118.5h4q21 60 46 121.5t52 134.5l217 556h87l-369 -903h-75z" />
<glyph unicode="w" horiz-adv-x="1326" d="M41 1063h87l148 -526q23 -83 41 -149.5t34 -129.5h2q17 61 40 128.5t51 150.5l180 526h83l172 -524q29 -86 49.5 -154.5t37.5 -126.5h4q14 61 33.5 128.5t46.5 150.5l161 526h85l-294 -903h-75l-165 499q-30 87 -54.5 165.5t-42.5 155.5h-3q-20 -79 -46 -159t-56 -164 l-178 -497h-74z" />
<glyph unicode="x" horiz-adv-x="795" d="M16 160l331 463l-310 440h96l155 -223q28 -41 52.5 -76t50.5 -76h3q25 41 51 77.5t55 74.5l156 223h92l-312 -438l328 -465h-98l-162 230q-32 46 -59.5 87.5t-54.5 83.5h-4q-26 -45 -53.5 -83.5t-60.5 -87.5l-159 -230h-97z" />
<glyph unicode="y" horiz-adv-x="811" d="M14 1063h91l242 -603q18 -45 36.5 -96.5t29.5 -93.5h4q14 42 30 92t36 105l228 596h90l-288 -729q-43 -108 -78.5 -189.5t-70.5 -142.5t-69.5 -105t-75.5 -77q-25 -21 -49.5 -36t-44.5 -24.5t-34.5 -14.5t-20.5 -6l-21 77q32 11 71 31.5t78 56.5q33 30 75 88.5t80 155.5 q10 23 10 36q0 12 -11 40z" />
<glyph unicode="z" horiz-adv-x="744" d="M28 160v56l485 637q26 33 51 65.5t54 65.5v3h-556v76h655v-64l-484 -636q-25 -33 -48.5 -63t-48.5 -60v-4h588v-76h-696z" />
<glyph unicode="{" horiz-adv-x="564" d="M46 743v75h13q56 0 90.5 14.5t52.5 37t24 52t6 58.5q0 46 -6.5 89.5t-14.5 89.5q-9 44 -16 86.5t-7 88.5q0 72 24 124.5t66 86.5t100.5 50.5t127.5 16.5h26v-80h-39q-58 0 -98.5 -14t-65.5 -41t-36 -66t-11 -90q0 -41 6.5 -82t14.5 -83q8 -41 14 -81.5t6 -83.5 q0 -37 -9.5 -71t-27.5 -61t-42.5 -46t-53.5 -29v-4q29 -9 53.5 -29.5t42.5 -48.5t27.5 -62t9.5 -71q0 -43 -6 -83.5t-14 -81.5q-8 -43 -14.5 -84t-6.5 -83q0 -214 211 -214h39v-78h-26q-67 0 -125.5 16t-101 51.5t-67 92.5t-24.5 141q0 43 7 84t16 82q8 43 14.5 84t6.5 83 q0 26 -6 55t-24.5 53t-54 40t-94.5 16h-7z" />
<glyph unicode="|" horiz-adv-x="457" d="M184 -421v2089h89v-2089h-89z" />
<glyph unicode="}" horiz-adv-x="564" d="M32 23h39q211 0 211 214q0 42 -6.5 83t-14.5 84q-8 41 -14 81.5t-6 83.5q0 37 9.5 71t27 62t42.5 48.5t54 29.5v4q-29 10 -54 29t-42.5 46t-27 61t-9.5 71q0 43 6 83.5t14 81.5q8 42 14.5 83t6.5 82q0 51 -11 90t-36 66t-65 41t-99 14h-39v80h26q68 0 127 -16.5 t101 -50.5t66 -86.5t24 -124.5q0 -46 -6.5 -88.5t-14.5 -86.5q-9 -46 -15.5 -89.5t-6.5 -89.5q0 -29 5.5 -58.5t23.5 -52t52 -37t91 -14.5h13v-75h-8q-58 0 -93.5 -16t-54 -40t-24 -53t-5.5 -55q0 -42 6.5 -83t15.5 -84q8 -41 14.5 -82t6.5 -84q0 -84 -24.5 -141t-67 -92.5 t-101 -51.5t-125.5 -16h-26v78z" />
<glyph unicode="~" horiz-adv-x="1245" d="M87 492v11q0 61 19 109t52 81t74.5 50.5t86.5 17.5q32 0 59.5 -4.5t61 -16t78.5 -29.5t110 -46q43 -18 82.5 -35t77.5 -29.5t75.5 -21t74.5 -8.5q140 0 140 188h80q0 -7 0.5 -13t0.5 -13q0 -69 -20.5 -117.5t-53 -79t-73 -44.5t-81.5 -14q-26 0 -54.5 4.5t-65.5 15 t-86 29t-115 46.5q-41 18 -78 34.5t-72.5 30.5t-70 22.5t-70.5 8.5q-73 0 -111.5 -48t-38.5 -141h-81q-1 6 -1 12z" />
<glyph unicode="&#xa4;" horiz-adv-x="1106" d="M98 223l134 132q-19 18 -34.5 45.5t-28 61.5t-19 71t-6.5 75q0 87 27 155t70 114l-143 134l65 66l136 -144q47 41 112.5 65.5t140.5 24.5h2q79 0 144.5 -24.5t108.5 -65.5l148 144l64 -64l-154 -136q18 -20 33.5 -48t26.5 -61t17.5 -68.5t6.5 -71.5q0 -89 -24.5 -158.5 t-55.5 -104.5l142 -142l-64 -65l-140 147q-53 -49 -123 -70.5t-138 -21.5q-36 0 -71.5 5.5t-68.5 16.5t-61.5 25.5t-49.5 33.5l-136 -136zM241 614q0 -90 30.5 -151t76 -99t98 -54t97.5 -16q51 0 106 15t100.5 53.5t74.5 102.5t29 161q0 51 -18 106.5t-55.5 102t-95.5 76.5 t-138 30h-3q-75 0 -131 -28.5t-94.5 -74.5t-57.5 -105t-19 -119z" />
<glyph unicode="&#xa6;" horiz-adv-x="460" d="M205 -397v859h77zM205 787v863h77v-863h-77z" />
<glyph unicode="&#xa7;" horiz-adv-x="1148" d="M111 810q0 86 27.5 145.5t70 99t93.5 62t97 34.5q-46 26 -76 53t-47.5 56.5t-24 64t-6.5 74.5q0 78 30.5 129t78 80.5t105 42t111.5 12.5q69 0 128 -17t103 -57t69 -104t25 -159v-8h-93q0 76 -16.5 126t-47 79t-74 40.5t-96.5 11.5q-7 0 -26.5 -1t-44.5 -6t-52 -17 t-49.5 -32.5t-36.5 -52t-14 -77.5q0 -55 18.5 -89t60.5 -61t110 -54.5t166 -69.5q76 -33 138.5 -67.5t106.5 -78.5t68.5 -101t24.5 -135q0 -84 -28 -146t-70 -103.5t-91 -66.5t-91 -38q47 -22 77 -49.5t47 -58t23 -63.5t6 -64q0 -60 -20.5 -112t-62.5 -91t-105 -61.5 t-149 -22.5q-73 0 -127 16t-92.5 42.5t-63.5 62t-38.5 75.5t-19.5 81.5t-6 80.5h92q0 -21 3 -49.5t12.5 -59t26.5 -59.5t45.5 -52t69.5 -36.5t98 -13.5q46 0 88.5 10.5t75.5 34t53 60t20 88.5q0 59 -24.5 95.5t-68 62.5t-102.5 48t-127 51q-95 39 -166 80t-118 90.5 t-70.5 109t-23.5 135.5zM215 816q0 -73 22.5 -124.5t74 -94t135.5 -81.5t209 -88q99 28 155 69t83 83.5t33 82t6 63.5q0 71 -24 121.5t-77.5 91.5t-138.5 78t-206 79q-44 -6 -92 -23t-88 -50.5t-66 -84t-26 -122.5z" />
<glyph unicode="&#xa9;" horiz-adv-x="1670" d="M104 928q0 100 26 193.5t73 174.5t113 148.5t148 114.5t175.5 74t195.5 27q100 0 193.5 -26t174.5 -73.5t148.5 -114.5t115 -148t74 -175t26.5 -195q0 -102 -26.5 -195t-74 -174.5t-115 -148t-148.5 -114t-174.5 -73.5t-193.5 -26q-102 0 -195.5 26.5t-175.5 74 t-148 114.5t-113 148.5t-73 174.5t-26 193zM188 928q0 -92 22.5 -177.5t64 -159.5t100.5 -135t130.5 -105t155 -68t174.5 -24q88 0 170.5 24t154.5 67.5t132 104.5t102 135t65.5 159.5t23.5 178.5t-24 179t-67 160t-102.5 135t-131.5 104t-154 66.5t-169 23.5 q-90 0 -173 -23.5t-155 -66.5t-131 -104.5t-100.5 -135.5t-64.5 -159.5t-23 -178.5zM497 930q0 89 21 162t63 124t105.5 79t148.5 28q60 0 113.5 -16.5t94.5 -47.5t65.5 -76t25.5 -101h-92q-3 32 -14.5 62t-35 53.5t-62.5 38t-95 14.5q-59 0 -100 -19t-67.5 -48.5t-41.5 -66 t-22 -72t-8.5 -66t-1.5 -48.5q0 -72 15 -122.5t38.5 -84t52.5 -52.5t57 -28.5t51.5 -11.5t37.5 -2q62 0 101 22t62 52t32.5 62t11.5 52h91q-3 -18 -10 -44.5t-20.5 -56t-35 -58t-54.5 -51.5t-77 -37t-103 -14q-80 0 -144.5 25t-109.5 73t-69 117t-24 159z" />
<glyph unicode="&#xab;" horiz-adv-x="1018" d="M146 539l295 382h75l-243 -382l243 -382h-77zM524 539q2 0 293 382h78l-243 -382l243 -382h-80z" />
<glyph unicode="&#xac;" horiz-adv-x="1245" d="M84 721v83h1078v-531h-92v448h-986z" />
<glyph unicode="&#xad;" horiz-adv-x="751" d="M46 588v87h698v-87h-698z" />
<glyph unicode="&#xae;" horiz-adv-x="1670" d="M104 931q0 101 26 194.5t74 174.5t115 148t148 115t174 74t194 26q102 0 196 -26t175 -74t148 -115t114 -148t73 -174.5t26 -194.5t-26 -194t-73 -174.5t-114 -148t-148 -114.5t-175 -74t-196 -26q-101 0 -194 26t-174 74t-148 114.5t-115 148t-74 174.5t-26 194z M188 931q0 -92 23.5 -177.5t65.5 -159.5t101.5 -135t131 -105t154.5 -68t171 -24q137 0 255.5 52.5t205.5 143.5t137 213t50 260q0 140 -50.5 262t-138 212t-206 142t-253.5 52q-87 0 -169.5 -23.5t-154 -66.5t-131.5 -104.5t-102.5 -135.5t-66 -159.5t-23.5 -178.5z M568 572v731h315q87 0 136.5 -24t74.5 -57.5t31.5 -69.5t6.5 -61q0 -39 -12.5 -69.5t-31 -51t-40 -34t-39.5 -20.5v-4q34 -8 54.5 -25t31 -39.5t14 -48.5t5.5 -53q2 -42 2.5 -69t2.5 -46t7 -32.5t16 -26.5h-98q-9 10 -14 21t-7.5 28.5t-3.5 45t-2 71.5q-1 26 -4.5 50.5 t-19 44t-47 31t-89.5 11.5h-197v-303h-92zM660 948h201q34 0 65.5 8t56 25.5t39 44.5t14.5 65q0 43 -16.5 70t-44 42.5t-62 21t-67.5 5.5h-186v-282z" />
<glyph unicode="&#xaf;" horiz-adv-x="1249" d="M-23 1575v88h1356v-88h-1356z" />
<glyph unicode="&#xb0;" horiz-adv-x="906" d="M171 1379q0 54 24.5 103t66 85.5t95 58.5t111.5 22q60 0 114 -22t95.5 -58.5t65.5 -85.5t24 -103q0 -60 -24 -110.5t-65.5 -88.5t-95.5 -58.5t-114 -20.5q-57 0 -110.5 20.5t-95 58t-66.5 88.5t-25 111zM223 1379q0 -49 20 -88.5t53.5 -68.5t78 -44.5t93.5 -15.5 q50 0 95 15.5t78.5 44.5t53 68.5t19.5 88.5q0 42 -19.5 80t-53 67.5t-78.5 46.5t-95 17q-49 0 -93.5 -17t-78 -46.5t-53.5 -67.5t-20 -80z" />
<glyph unicode="&#xb1;" horiz-adv-x="1245" d="M84 0v84h1078v-84h-1078zM84 668v84h492v432h92v-432h494v-84h-494v-449h-92v449h-492z" />
<glyph unicode="&#xb4;" horiz-adv-x="751" d="M305 1406l134 248h181l-215 -248h-100z" />
<glyph unicode="&#xb6;" horiz-adv-x="1106" d="M73 1206q0 52 11 106t36.5 105t69 96t108 78t154 52.5t206.5 19.5q93 0 145.5 -4.5t83.5 -10.5v-1499h-89v1430h-156v-1430h-90v647h-20q-79 0 -160.5 25t-148 76t-108.5 128t-42 181z" />
<glyph unicode="&#xb7;" horiz-adv-x="705" d="M282 506v166h169v-166h-169z" />
<glyph unicode="&#xba;" horiz-adv-x="626" d="M62 1172q0 57 20 105t54 82.5t80.5 54t98.5 19.5h2q62 0 108.5 -21t77 -55t46 -77.5t15.5 -89.5q0 -61 -23 -108.5t-59 -80.5t-81.5 -50.5t-91.5 -17.5q-57 0 -102.5 20t-77.5 53t-49.5 76.5t-17.5 89.5zM142 1174q0 -36 12.5 -67.5t35.5 -54.5t54 -36t67 -13 q38 0 69.5 13.5t54.5 38t36 58t13 73.5q0 24 -7 54.5t-26.5 58t-53 46.5t-86.5 19h-2q-46 0 -78 -18.5t-52 -46t-28.5 -61t-8.5 -64.5z" />
<glyph unicode="&#xbb;" horiz-adv-x="1018" d="M167 155l242 382l-242 382h80l290 -385l-290 -379h-80zM548 155l239 382l-239 382h74l289 -382l-289 -382h-74z" />
<glyph unicode="&#x2da;" horiz-adv-x="785" d="M203 1459q0 38 16.5 74t45 63.5t66.5 43.5t83 16q42 0 80 -16t67.5 -43.5t46 -64t16.5 -76.5q0 -43 -16.5 -80.5t-45.5 -65.5t-66.5 -44t-79.5 -16q-48 0 -87 16.5t-67 44.5t-43.5 66.5t-15.5 81.5zM279 1459q1 -22 9 -45t24.5 -41.5t44.5 -31t67 -12.5q32 0 55.5 12 t38.5 30t22.5 40.5t7.5 44.5t-8.5 44t-24 40t-40.5 28.5t-59 10.5q-36 0 -61.5 -10t-42 -27t-25 -39t-8.5 -44z" />
<glyph unicode="&#x2dc;" horiz-adv-x="751" d="M30 1461q12 49 28.5 84.5t42.5 58.5q27 25 63.5 36.5t73.5 11.5q31 0 75.5 -16.5t108.5 -41.5q43 -19 73.5 -27t62.5 -8q50 0 79 18.5t44 76.5h75q-14 -95 -66 -143t-126 -48q-36 0 -79.5 15t-102.5 43q-91 42 -135 42q-53 0 -87.5 -23.5t-46.5 -78.5h-83z" />
<glyph unicode="&#x10d0;" horiz-adv-x="795" d="M82 471q0 107 64 189l69 -40q-47 -56 -47 -149q0 -115 73 -176q75 -60 162 -60q88 0 154 60t66 200q0 176 -180 288q-161 101 -161 214q0 6 0.5 12.5t1.5 12.5h91q-1 -5 -1.5 -10.5t-0.5 -10.5q0 -98 161 -199q180 -114 180 -307q0 -174 -93 -257q-94 -85 -218 -85 q-137 0 -230 83q-91 82 -91 235z" />
<glyph unicode="&#x10d1;" horiz-adv-x="826" d="M82 561q0 153 82 271q84 119 221 139q39 105 39 192q0 133 -99 217q-167 115 -167 259v3h102q0 -2 -0.5 -4.5t-0.5 -5.5q0 -91 138 -216q111 -89 111 -248q0 -92 -35 -199q115 -34 193 -141q79 -109 79 -267q0 -167 -94 -289q-94 -119 -238 -119q-143 0 -238 118 q-93 122 -93 290zM173 561q0 -147 77 -237q76 -89 163 -89q100 0 170 93q71 93 71 233q0 138 -70 232q-69 94 -169 94q-110 0 -175 -94q-67 -94 -67 -232z" />
<glyph unicode="&#x10d2;" horiz-adv-x="925" d="M71 18q0 180 110 310q138 130 279 130q159 116 159 275q0 64 -52 118q-51 54 -138 54t-137 -46t-50 -108q0 -76 29 -103l-64 -56q-54 78 -54 154q0 111 83 175q82 64 193 64q122 0 199 -71q80 -72 80 -180q0 -171 -144 -284q129 -54 208 -159q81 -102 81 -273v-5 q0 -171 -116 -302q-114 -129 -283 -129q-149 0 -266 129q-117 130 -117 307zM163 18q0 -166 97 -260q96 -95 194 -95q132 0 218 94q85 94 87 261q-2 154 -94 258q-92 105 -203 105q-118 0 -208 -105q-91 -106 -91 -258z" />
<glyph unicode="&#x10d3;" horiz-adv-x="1248" d="M82 591q0 201 90 289q90 89 209 89q129 0 227 -132q92 132 237 132q140 0 230 -117q92 -119 92 -276q0 -188 -94 -307q-94 -116 -228 -116q-135 0 -229 118q-93 118 -93 290q0 100 39 198q-66 128 -161 128q-94 0 -161 -69t-67 -227q0 -194 110 -355q110 -160 299 -277 q334 -172 396 -362h-109q-83 150 -160 203q-77 52 -176 53q-106 -2 -241 -40v104h194v7q-202 128 -303 292t-101 375zM615 561q0 -160 70 -244q72 -82 160 -82q75 0 153 80q78 82 78 256q0 128 -69 222q-70 94 -161 94q-89 0 -161 -85q-70 -85 -70 -241z" />
<glyph unicode="&#x10d4;" horiz-adv-x="836" d="M71 -76q0 151 128 254l56 -52q-92 -85 -92 -202q0 -123 77 -191q78 -70 158 -70q102 0 174 67q72 65 72 191v728q0 124 -56 181t-152 57q-93 0 -152 -59q-61 -60 -61 -131q0 -107 74 -167l-71 -53q-84 76 -84 207q0 127 77 204q78 81 209 81q132 0 219 -74 q87 -76 87 -246v-728q0 -177 -101 -258q-100 -81 -235 -81q-128 0 -228 91q-99 89 -99 251z" />
<glyph unicode="&#x10d5;" horiz-adv-x="816" d="M71 -76q0 158 128 254l32 -67q-68 -70 -68 -187q0 -110 76 -185q78 -76 164 -76q114 0 176 75q64 75 64 196v140q0 79 -57 153q-57 77 -117 77h-98v78h99q55 0 113 73q60 71 60 206q0 94 -67 160q-66 66 -161 66q-90 0 -155 -55t-65 -135q0 -76 43 -126l-68 -57 q-58 75 -58 170q0 132 88 208q89 77 213 77q151 0 235 -84q86 -82 86 -226q0 -198 -182 -307v-15q182 -113 182 -273v-130q0 -176 -82 -264t-249 -88q-145 0 -239 97q-93 96 -93 245z" />
<glyph unicode="&#x10d6;" horiz-adv-x="844" d="M10 1357q0 123 79 214q79 92 203 92q133 0 212 -91q78 -91 78 -208q0 -118 -52 -201q-25 -43 -69 -92.5t-106 -108.5l75 7q125 0 229 -106t104 -302q-1 -186 -101 -298q-100 -110 -232 -110q-128 0 -230 116q-101 117 -101 292q0 120 45 227q22 52 74.5 114.5 t135.5 138.5h-63q-95 0 -189 88q-92 90 -92 228zM97 1356q0 -108 70 -181q71 -72 132 -72q70 0 135 55q64 56 64 201q0 89 -56 155q-57 67 -148 67q-78 0 -137 -64q-60 -67 -60 -161zM194 561q0 -159 73 -243q75 -83 163 -83q95 0 167 83q71 84 71 243q0 133 -66 229 q-66 97 -172 97q-124 0 -180 -91q-56 -90 -56 -235z" />
<glyph unicode="&#x10d7;" horiz-adv-x="1290" d="M82 561q0 172 99 290t232 118q68 0 143 -41q76 -41 127 -126q44 83 105 125t129 42q129 0 210 -109q82 -109 82 -285q0 -270 -232 -429h-109q245 166 245 430q0 155 -62 233q-64 78 -133 78q-74 0 -124 -58q-24 -28 -42.5 -55t-31.5 -54q25 -85 25 -159q0 -161 -96 -285 q-95 -123 -236 -123q-145 0 -238 125q-93 128 -93 283zM173 561q0 -141 73 -235q71 -91 167 -91q93 0 166 89q74 90 74 237q0 151 -77 239q-75 87 -163 87q-97 0 -168 -92q-72 -90 -72 -234z" />
<glyph unicode="&#x10d8;" horiz-adv-x="826" d="M82 592q0 178 87 278q87 99 244 99t244 -99q88 -100 88 -278q0 -220 -160 -429h-80q148 228 148 432q0 125 -70 210q-69 82 -170 82q-102 0 -170 -82q-70 -85 -70 -210q0 -183 148 -432h-79q-160 231 -160 429z" />
<glyph unicode="&#x10d9;" horiz-adv-x="805" d="M61 -76q0 158 128 254l36 -68q-72 -64 -72 -186q0 -107 73 -183q75 -78 167 -78q86 0 162 71q75 69 75 190v92q0 159 -84 238q-85 79 -167 79h-86v83h88q89 0 151 59q64 61 64 151q0 147 -246 261l11 82q333 -134 333 -335q0 -83 -45 -143q-43 -59 -177 -110v-18 q125 -24 188 -127q64 -103 64 -216v-96q0 -150 -95 -246q-92 -96 -236 -96q-146 0 -239 99q-93 96 -93 243z" />
<glyph unicode="&#x10da;" horiz-adv-x="1619" d="M82 574q0 176 70 280q71 105 208 105q93 0 152 -46.5t86 -130.5h15q16 93 68.5 145t139.5 52q90 0 138.5 -52t65.5 -145h16q26 84 83.5 130.5t140.5 46.5q273 0 273 -334q0 -215 -194 -424h-77q182 235 182 424q0 252 -183 252q-114 0 -153 -84q-39 -89 -39 -211v-152 h-87v156q0 163 -29 239q-30 73 -136 73q-103 0 -137 -73q-32 -76 -35 -239v-156h-88v156q0 117 -39 206q-39 85 -166 85q-65 0 -124 -68q-60 -68 -60 -237q0 -234 194 -395q195 -159 442 -240q260 -89 416 -317h-117q-134 185 -314 242q-59 19 -117 19q-18 0 -36 -2t-35 -5 q-95 -19 -271 -74l-18 106l297 26l1 17q-298 113 -415 279q-118 168 -118 346z" />
<glyph unicode="&#x10db;" horiz-adv-x="847" d="M82 561q2 161 96 284q97 124 235 124q145 0 240 -125l6 1v429q0 84 -12 143t-39 94q-55 70 -162 70q-105 0 -170 -58q-64 -58 -65 -154q2 -62 45 -130l-91 -37q-43 89 -43 154q3 136 91 221q89 86 232 86q152 0 226.5 -101t74.5 -285l-1 -727q0 -162 -96 -280 q-95 -117 -236 -117t-237 122q-94 123 -94 286zM174 555q0 -147 76 -235q76 -85 163 -85q92 0 165 87q75 87 75 224q0 85 -17.5 149.5t-48.5 107t-75.5 63.5t-97.5 21q-106 0 -173 -102q-67 -103 -67 -219v-11z" />
<glyph unicode="&#x10dc;" horiz-adv-x="846" d="M102 561v834q0 232 258 232h188q107 0 107 40h83q0 -114 -190 -114h-213q-149 0 -149 -127v-579h20q101 122 228 122q137 0 233 -120q98 -120 98 -288t-95 -289q-95 -119 -236 -119q-143 0 -238 117q-94 119 -94 291zM194 561q0 -138 67 -233q69 -93 173 -93q95 0 168 90 q71 90 71 236t-79 237q-78 89 -157 89q-112 0 -177.5 -80.5t-65.5 -245.5z" />
<glyph unicode="&#x10dd;" horiz-adv-x="1275" d="M82 588q0 98 20.5 170t60.5 119t96.5 69.5t129.5 22.5q86 0 146.5 -51t89.5 -156h17q29 105 91 156t148 51q126 0 220 -91q92 -90 92 -292q0 -264 -305 -423h-101q314 179 314 429q0 131 -65 213q-63 82 -153 82q-96 0 -149 -86q-59 -87 -59 -219v-124h-80v124 q0 132 -59 219q-54 86 -145 86q-90 0 -153 -81q-64 -82 -64 -218q0 -243 285 -425h-97q-280 161 -280 425z" />
<glyph unicode="&#x10de;" horiz-adv-x="826" d="M82 512q0 112 91 218l66 -48q-65 -69 -65 -170v-4q0 -49 18 -93.5t54 -90.5q73 -89 167 -89q99 0 169 87q71 87 71 209q0 168 -96 254q-96 87 -179 87h-58v82h79q84 0 148 76q63 79 63 180q0 128 -171 191q-172 65 -172 241h79q0 -112 178 -199q180 -87 180 -241 q0 -91 -40 -149q-39 -57 -156 -130v-21q87 -35 161 -127q76 -94 76 -246q0 -128 -94 -253q-93 -123 -238 -123q-136 0 -233 112q-98 113 -98 247z" />
<glyph unicode="&#x10df;" horiz-adv-x="826" d="M61 296v72h109q32 1 63.5 9t56.5 24.5t40.5 42t15.5 62.5q0 41 -26.5 78t-66.5 64.5t-87.5 44t-87.5 16.5h-15v68q355 29 559 202h102v-1054q0 -76 -25.5 -139t-70 -108.5t-104.5 -70.5t-129 -25q-133 0 -233 88q-99 86 -99 227q0 119 89 204l44 -55q-46 -60 -46 -146 q0 -94 68 -165q69 -72 177 -72q49 0 93.5 19t79 53.5t55 82.5t20.5 106v961h-29q-169 -144 -403 -144v-15q209 -44 209 -228q0 -105 -60 -153.5t-190 -48.5h-109z" />
<glyph unicode="&#x10e0;" horiz-adv-x="1270" d="M82 572q0 184 103 320q105 140 184 243t132 177q107 147 178 307h100q-122 -225 -245 -393t-241 -296l11 -11q59 50 109 50q84 0 135.5 -50t81.5 -155h21q29 105 86 155t146 50q152 0 229 -104t77 -293q0 -266 -289 -409h-99q295 167 295 409q0 145 -60 230 q-59 84 -150 86q-87 -2 -143 -87q-64 -88 -64 -204v-134h-80v134q0 118 -58 203q-53 85 -150 87q-91 0 -153 -82q-64 -82 -64 -233q0 -242 289 -408h-107q-274 143 -274 408z" />
<glyph unicode="&#x10e1;" horiz-adv-x="826" d="M102 554v1088h86v-1088q2 -156 68 -238q69 -81 167 -81q92 0 161 85q71 87 71 231q0 115 -87 193q-86 79 -86 164q0 84 60 171l75 -42q-58 -60 -58 -123q0 -48 93 -144t93 -219q0 -175 -95 -286q-94 -112 -227 -112q-144 0 -232 118q-89 120 -89 283z" />
<glyph unicode="&#x10e2;" horiz-adv-x="1063" d="M71 278q0 332 137 499q138 167 295 167l-21 306h102l-20 -306q146 0 287 -167q141 -163 141 -499q0 -295 -114 -495q-115 -201 -340 -201q-217 0 -342 200q-125 201 -125 496zM163 278q0 -287 110 -450q111 -165 269 -165q166 0 266 165q99 163 99 450q0 255 -103 435 q-103 177 -240 177l20 -542h-102l21 542q-138 0 -239 -177q-101 -176 -101 -435z" />
<glyph unicode="&#x10e3;" horiz-adv-x="944" d="M20 949l67 33q10 -123 73 -123q43 0 73 55q28 55 69 55h30q26 0 62 -33q35 -32 51 -111h10q14 78 60 111t111 33q99 0 157 -70q60 -69 60 -183v-789q0 -164 -87 -253q-88 -92 -233 -92q-157 0 -250 95q-93 93 -93 248q0 145 132 253l31 -69q-71 -75 -71 -179 q0 -103 69 -184q68 -83 181 -83q88 0 163 70q75 68 75 191v820q0 52 -29 102q-26 51 -93 51h-55q-55 0 -75 -55q-20 -60 -20 -130v-237h-75v237q0 38 -7 71.5t-19.5 59t-29 40t-36.5 14.5h-19q-17 0 -34 -18t-33 -45q-31 -52 -87 -52q-88 0 -128 167z" />
<glyph unicode="&#x10e4;" horiz-adv-x="1188" d="M82 584q0 158 82 271q84 114 222 114q128 0 226 -145q89 145 216 145q106 0 188 -88q80 -86 80 -259q0 -186 -164 -326v-12q139 -102 139 -301v-45q0 -179 -100 -267q-100 -89 -229 -89q-153 0 -243 86q-91 88 -91 207q0 125 81 192l52 -37q-57 -60 -57 -118 q0 -94 67 -172q65 -77 189 -77q87 0 162 69q75 67 75 205v40q0 128 -36 203t-104 75h-65v70h65q57 0 111 76q55 76 55 195q0 171 -47 230q-48 61 -140 61q-100 0 -173 -114q29 -126 29 -187q0 -145 -77 -260q-79 -115 -217 -115q-125 0 -211 105q-85 105 -85 268zM168 583 q0 -123 58 -210q59 -87 152 -87q94 0 155 87q62 87 62 210q0 135 -57 220q-58 84 -152 84q-93 0 -155 -86q-63 -84 -63 -218z" />
<glyph unicode="&#x10e5;" horiz-adv-x="856" d="M82 -76q0 167 127 254l37 -67q-72 -52 -72 -187q0 -92 67 -177q67 -84 172 -84q97 0 170 74q75 73 75 187v742q0 105 -65 163q-67 58 -159 58q-114 0 -154 -58q-39 -58 -39 -134q0 -100 66 -167l-52 -62q-100 115 -100 229v3q0 134 68.5 202.5t210.5 68.5q105 0 205 -82 h24v755h82v-1718q0 -161 -94 -251q-94 -91 -238 -91q-134 0 -232 96q-99 95 -99 246z" />
<glyph unicode="&#x10e6;" horiz-adv-x="1183" d="M82 602q0 104 23.5 174.5t60 113t82 61t88.5 18.5q39 0 77.5 -10.5t71 -35.5t59 -67t44.5 -103h10q15 60 36.5 101.5t49 67t61 36.5t73.5 11q68 0 121 -25.5t89 -70t55 -105t19 -130.5q0 -206 -174 -382h-59q138 169 138 377q0 65 -16 112.5t-42 79t-60 47t-71 15.5 q-42 0 -76.5 -25t-60 -68t-39.5 -101t-14 -123v-149h-73v149q-1 65 -14.5 123t-39 101t-62 68t-83.5 25q-37 0 -69.5 -12.5t-57 -44.5t-40 -88t-16.5 -140q0 -136 107 -320q44 -72 106.5 -131.5t142.5 -109.5q282 -155 385 -411h-108q-100 241 -284 303q-7 1 -13.5 1h-13.5 q-52 0 -114.5 -17.5t-135.5 -53.5l-6 113l195 27v13q-352 277 -352 586z" />
<glyph unicode="&#x10e7;" horiz-adv-x="836" d="M71 -76q0 118 82 209l47 -29q-42 -75 -42 -180q0 -108 84 -184q83 -77 161 -77q100 0 172 67q73 66 73 194v450h-15q-103 -109 -219 -109q-151 0 -231.5 87t-80.5 261q0 117 48 210t130 151h92q-109 -117 -146 -189q-36 -72 -36 -174q0 -119 66 -198q67 -76 157 -76 q96 0 165 70q70 72 70 184v371h86v-1038q0 -168 -92 -254q-94 -88 -239 -88q-130 0 -231 89q-101 86 -101 253z" />
<glyph unicode="&#x10e8;" horiz-adv-x="900" d="M20 1237v208q0 105 49.5 161.5t154.5 56.5q122 0 171 -139h9q56 139 161 139q117 0 175.5 -67.5t58.5 -200.5v-834q0 -172 -96 -290q-95 -118 -236 -118q-154 0 -243 122q-88 123 -88 286v5q0 180 98 290q99 113 233 113q110 0 229 -112h16v540q0 105 -30 150 q-28 44 -109 44q-39 0 -64.5 -14.5t-41 -41.5t-22 -65t-6.5 -84v-223h-78v223q0 96 -25 148q-27 57 -97 57q-87 0 -114 -42q-25 -40 -25 -110v-202h-80zM233 561q0 -171 68 -249q68 -77 165 -77q89 0 167 87q79 88 79 239t-76 239q-75 87 -170 87q-96 0 -165 -81 q-68 -81 -68 -245z" />
<glyph unicode="&#x10e9;" horiz-adv-x="846" d="M102 173v1126q0 96 17.5 165t51 113t82.5 65t112 21q125 0 193 -69q69 -67 69 -173q0 -150 -103 -290l-49 32q69 120 69 258q0 53 -50 106q-51 54 -133 54q-87 0 -129.5 -69.5t-42.5 -219.5v-445h20q102 122 225 122q156 0 243 -103q88 -103 88 -249q0 -235 -201 -454 h-101q205 203 205 452q0 110 -65 191q-64 81 -169 81q-98 0 -172 -74q-73 -73 -73 -198v-442h-87z" />
<glyph unicode="&#x10ea;" horiz-adv-x="963" d="M71 289q0 349 137 642h92q-132 -283 -132 -644q0 -267 82 -447q82 -177 260 -177q134 0 210 112q77 111 77 263q0 128 -70 204q-69 73 -145 73h-121v93h121q73 0 128 56q56 56 56 150q0 79 -118 146q-118 68 -118 181h86q0 -85 124 -147q123 -63 123 -181 q0 -146 -176 -242v-9q205 -69 205 -326q0 -204 -105 -328q-104 -126 -285 -126q-202 0 -316 184q-115 185 -115 523z" />
<glyph unicode="&#x10eb;" horiz-adv-x="846" d="M82 561q0 183 102 294q102 114 228 114t226 -112h17v785h90v-1081q0 -166 -94 -288q-93 -120 -239 -120q-144 0 -237 122q-93 125 -93 286zM174 560q0 -134 74 -230q74 -95 165 -95q103 0 172 94q70 97 70 232q0 140 -73 234q-71 92 -170 92q-100 0 -169 -100 q-69 -99 -69 -227z" />
<glyph unicode="&#x10ec;" horiz-adv-x="860" d="M62 1325v5q0 171 53.5 252t172.5 81q108 0 165 -125q45 125 156 125q98 0 144.5 -62.5t46.5 -198.5v-163h-76v161q0 114 -33 152q-34 39 -91 39q-50 0 -81 -50.5t-31 -168.5v-167h-75v169q0 114 -26 165q-27 52 -103 52q-63 0 -97 -52q-32 -47 -32 -198v-14 q1 -64 3.5 -128t7.5 -131q5 -65 11 -121.5t11 -102.5h10q102 125 248 125q160 0 246 -94q85 -94 85 -240q0 -210 -209 -556q-209 -347 -209 -472h-92q-1 281 -46 506q-22 114 -42.5 227t-39.5 227q-68 488 -77 758zM219 690q0 -9 0.5 -17t1.5 -16v-8q0 -131 49 -337 q26 -105 41.5 -244.5t21.5 -319.5h10q56 215 197 455q140 239 140 426q0 131 -67 194q-67 64 -166 64q-110 0 -174 -57q-54 -49 -54 -140z" />
<glyph unicode="&#x10ed;" horiz-adv-x="795" d="M82 -76q0 167 127 254l37 -69q-68 -63 -68 -185q0 -114 68 -187q68 -74 167 -74q109 0 172 80q63 77 63 181q0 144 -102 298t-117 304v37h-9q-93 -77 -126 -77h-4q-206 0 -206 230v6q0 230 206 230h3q32 0 141 -84h10q17 73 26 147t9 152v6q0 120 -116 187 q-119 68 -119 286h90q0 -184 114 -246q114 -61 114 -229q0 -106 -61 -389h16q25 18 48 34.5t45 32.5t45.5 41.5t48.5 61.5l51 -122q-59 -14 -122.5 -42t-127.5 -64v-14q39 -26 70.5 -45.5t56.5 -35.5q50 -30 123 -55l-51 -121q-26 38 -53 68.5t-52 54t-46.5 40.5t-36.5 29 h-19v-57q13 -145 130 -327q118 -178 118 -337q0 -152 -92 -247t-240 -95q-149 0 -241 97q-90 97 -90 245zM155 716q0 -154 139 -154q59 0 174 132v48q-117 135 -174 135q-139 0 -139 -161z" />
<glyph unicode="&#x10ee;" horiz-adv-x="846" d="M102 563v1079h86v-805h11q98 132 237 132q135 0 232 -118q97 -119 97 -290q0 -167 -97 -289q-97 -119 -234 -119q-136 0 -234 112q-98 113 -98 298zM194 561q0 -145 74 -235q75 -91 168 -91q92 0 165 93q72 97 72 233q0 126 -69 226q-70 100 -170 100q-104 0 -172 -99 q-68 -95 -68 -227z" />
<glyph unicode="&#x10ef;" horiz-adv-x="736" d="M41 680l45 69l285 -197l50 76q111 173 112 244q0 87 -87 87q-96 0 -97 -84h-77q0 155 175 155q168 -2 168 -168q0 -93 -102 -253l-71 -109l254 -181l-46 -64l-253 180l-172 -264q230 -54 230 -238v-2q0 -278 -367 -349v81q278 72 278 265q0 139 -169 186l-76 52l205 316z " />
<glyph unicode="&#x10f0;" horiz-adv-x="826" d="M82 459q0 77 42 173l79 -37q-25 -54 -25 -138q0 -52 62 -138q61 -85 173 -85q103 1 169 73q66 71 66 160q0 240 -358 353v67q129 -21 219 -66q12 -6 25 -6q24 0 50 23q38 35 38 96q0 139 -334 231v68q113 -12 186 -49q9 -3 18 -3q28 0 58 28q38 34 38 117q0 91 -171 146 q-170 57 -170 191h86q0 -90 172 -140t172 -194q0 -117 -103 -190q138 -90 138 -188q0 -147 -120 -193q153 -137 153 -287q0 -126 -88 -223q-88 -95 -245 -95q-160 0 -246 100q-84 103 -84 206z" />
<glyph unicode="&#x10f1;" horiz-adv-x="867" d="M102 563v518q0 332 106 561h92q-111 -187 -111 -567v-514q0 -153 64 -240q64 -86 213 -86q77 0 146 48q69 47 69 124q0 142 -202 142h-70v62h70q192 0 192 126q0 131 -202 131h-60v62h60q192 0 192 131q0 125 -202 125h-50v62h50q192 0 192 138q0 76 -71 127 q-69 51 -69 129h75q0 -77 74 -130t74 -120q0 -126 -168 -173q179 -47 179 -158q0 -116 -179 -163q189 -45 189 -158q0 -114 -179 -161q189 -51 189 -173q0 -140 -97 -197q-96 -56 -202 -56q-93 0 -161 28t-113.5 80.5t-67.5 128.5t-22 173z" />
<glyph unicode="&#x10f2;" horiz-adv-x="867" d="M102 56v91q185 0 246 79q-246 175 -246 379q0 168 98 266t235 98q131 0 231 -98q99 -98 99 -267q0 -203 -245 -379q61 -78 245 -78v-92q-125 0 -329 134q-208 -133 -331 -133h-3zM194 607q2 -133 67 -216q64 -83 173 -139q53 26 96 60t76 77q66 84 67 216q0 121 -66 203 q-66 79 -173 79t-174 -79q-66 -82 -66 -201z" />
<glyph unicode="&#x10f3;" horiz-adv-x="867" d="M102 -76q0 155 128 254l29 -67q-64 -60 -64 -187q0 -102 68 -180q69 -81 171 -81q108 0 171 83q63 82 63 178v134q0 131 -76 204q-77 74 -193 74h-82v78h80q105 0 187 104q84 102 84 359h-459v-255h-76v327h632q0 -444 -262 -567v-10q150 -30 206 -105q56 -71 56 -209 v-134q0 -143 -97 -243q-96 -99 -234 -99q-134 0 -234 97q-98 96 -98 245z" />
<glyph unicode="&#x10f4;" horiz-adv-x="867" d="M102 -76q0 166 128 254l32 -72q-67 -54 -67 -182q0 -117 69 -189q71 -72 170 -72q96 0 166 71q68 68 68 190v159q0 159 -68 236q-68 80 -147 80h-115v76h116q75 0 145 83q69 85 69 324q-150 -44 -215 -44q-158 0 -254 109q-97 109 -97 263q0 169 114 289q114 123 279 123 v-82q-101 -2 -201 -93t-100 -223q0 -121 81 -212q81 -89 177 -89q154 0 313 166v-165q0 -195 -45 -321q-45 -123 -178 -161v-11q138 -46 180 -133q43 -85 43 -215v-159q0 -162 -101 -251q-103 -91 -229 -91q-135 0 -234 99q-99 98 -99 243z" />
<glyph unicode="&#x10f5;" horiz-adv-x="969" d="M102 481q0 145 91 242q92 95 304 95h181v211h-175q-216 0 -310 85q-91 84 -91 239q0 134 87 221q86 89 245 89q149 0 239 -84q92 -85 92 -241v-223h102v-86h-102v-211h102v-88h-102v-237q0 -170 -101 -255q-100 -85 -230 -85q-167 0 -249 98q-83 98 -83 230zM195 481 q0 -115 69 -181q69 -65 170 -65q103 0 173 79q71 81 71 176v240h-182q-166 0 -234 -68q-67 -67 -67 -181zM195 1353q0 -126 68 -182q69 -56 242 -56h173v223q0 94 -71 169q-70 74 -173 74q-99 0 -170 -58q-69 -58 -69 -170z" />
<glyph unicode="&#x10f6;" horiz-adv-x="1275" d="M102 564q0 169 79 288q77 117 228 117q155 0 229 -166h10q80 166 232 166q124 0 208 -119q85 -122 85 -289q0 -166 -85 -288q-83 -120 -205 -120q-108 0 -201 104v-269q0 -233 -71 -320q-70 -86 -177 -86v81q40 0 98 63q59 62 59 259v649q0 108 -51 180q-51 73 -134 73 q-88 0 -150 -89q-62 -90 -62 -237q0 -136 63 -233q64 -93 136 -93v-82q-123 0 -206 122q-85 125 -85 289zM682 475q0 -99 55 -170q57 -70 149 -70q79 0 133 90q53 90 53 236q0 141 -54 235q-54 91 -135 91q-91 0 -147 -73q-54 -72 -54 -180v-159z" />
<glyph unicode="&#x10f7;" horiz-adv-x="953" d="M102 -27q0 237 271 405q272 171 272 353q0 62 -42 125q-42 61 -143 61q-91 0 -138 -55q-48 -54 -48 -104q0 -76 42 -109l-54 -80q-67 80 -67 182q0 94 66 172q67 80 209 80q131 0 194 -82q64 -82 64 -189q0 -213 -265 -389q-264 -175 -264 -371q0 -121 71 -214 q72 -95 214 -95q128 0 199 90q73 91 73 189q0 154 -88 224l31 83q151 -131 153 -309q-1 -152 -104 -255t-264 -103q-178 0 -281 112q-101 111 -101 279z" />
<glyph unicode="&#x10f8;" horiz-adv-x="867" d="M102 -76v1038h87v-351q0 -112 53 -193q54 -81 181 -81q89 0 156 76q68 77 68 198q0 102 -37 174t-146 189h92q83 -58 130.5 -151t47.5 -210q0 -174 -80.5 -261t-231.5 -87q-146 0 -224 109h-9v-450q0 -128 72 -194q73 -67 173 -67q75 0 160 77q84 76 84 184 q0 105 -42 180l47 29q82 -91 82 -209q0 -167 -101 -253q-101 -89 -230 -89q-146 0 -240 88q-92 86 -92 254z" />
<glyph unicode="&#x10f9;" horiz-adv-x="985" d="M102 549q0 171 115 305q115 131 284 131q149 0 265 -129q117 -130 117 -307q0 -181 -110 -310q-108 -130 -278 -130q-159 -116 -159 -275q0 -64 51 -118q52 -54 138 -54q87 0 138 46q50 46 50 108q0 76 -30 103l65 57q54 -79 54 -154q0 -112 -83 -176t-194 -64 q-121 0 -199 71q-79 72 -79 180q0 171 144 284q-129 54 -209 158q-80 105 -80 274zM200 549q0 -130 91 -248q90 -115 202 -115q117 0 208 104q91 106 91 259q0 166 -97 260q-97 95 -194 95q-133 0 -217 -109t-84 -246z" />
<glyph unicode="&#x10fa;" horiz-adv-x="867" d="M102 631q0 151 87 244q87 94 236 94q158 0 249 -86q91 -85 91 -236q0 -127 -92 -216l-54 49q54 64 54 165q0 111 -69 177q-68 65 -179 65q-98 0 -165 -69q-66 -69 -66 -190q0 -199 191 -310q190 -112 318 -269l-76 -53q-90 182 -193 182q-101 0 -182 -129l-58 42 q34 80 160 144q-252 166 -252 396z" />
<glyph unicode="&#x10fb;" horiz-adv-x="829" d="M102 141v163h161v-163h-161zM102 825v161h161v-161h-161zM566 480v161h161v-161h-161z" />
<glyph unicode="&#x10fc;" horiz-adv-x="507" d="M6 1140v337q0 182 184 182h240v-74l-263 2q-34 0 -56.5 -25.5t-22.5 -66.5v-169q29 39 66 58.5t69 19.5q52 0 91.5 -20t65.5 -55t39 -83t13 -104q0 -146 -55.5 -218.5t-157.5 -72.5q-213 0 -213 289zM88 1134q0 -101 35 -156t96 -55t97 57t36 162q0 90 -37.5 140 t-101.5 50q-58 0 -91 -51.5t-34 -146.5z" />
<glyph unicode="&#x2000;" horiz-adv-x="834" />
<glyph unicode="&#x2001;" horiz-adv-x="1668" />
<glyph unicode="&#x2002;" horiz-adv-x="834" />
<glyph unicode="&#x2003;" horiz-adv-x="1668" />
<glyph unicode="&#x2004;" horiz-adv-x="556" />
<glyph unicode="&#x2005;" horiz-adv-x="417" />
<glyph unicode="&#x2006;" horiz-adv-x="278" />
<glyph unicode="&#x2007;" horiz-adv-x="278" />
<glyph unicode="&#x2008;" horiz-adv-x="208" />
<glyph unicode="&#x2009;" horiz-adv-x="333" />
<glyph unicode="&#x200a;" horiz-adv-x="92" />
<glyph unicode="&#x2010;" horiz-adv-x="756" d="M102 627v80h553v-80h-553z" />
<glyph unicode="&#x2011;" horiz-adv-x="756" d="M102 627v80h553v-80h-553z" />
<glyph unicode="&#x2012;" horiz-adv-x="1259" d="M0 541v107h1320v-107h-1320z" />
<glyph unicode="&#x2013;" horiz-adv-x="1259" d="M-14 511v100h1297v-100h-1297z" />
<glyph unicode="&#x2014;" horiz-adv-x="2262" d="M-24 510v100h2381v-100h-2381z" />
<glyph unicode="&#x2018;" horiz-adv-x="511" d="M146 1284q0 49 12.5 99.5t36.5 99.5t59 95.5t78 86.5l33 -34q-76 -85 -106.5 -149t-30.5 -120q0 -13 2 -24.5t4 -23.5q6 2 16 2h10q36 0 63 -21t27 -59q0 -25 -8.5 -43.5t-22.5 -30.5t-31.5 -18t-33.5 -6q-49 0 -78.5 34t-29.5 112z" />
<glyph unicode="&#x2019;" horiz-adv-x="511" d="M146 1172q74 86 105 148.5t31 119.5q0 12 -1.5 24.5t-3.5 24.5q-6 -2 -16 -2h-10q-36 0 -63 21t-27 59q0 25 8.5 43.5t22.5 30.5t31 18t34 6q49 0 78.5 -34t29.5 -112q0 -49 -12.5 -99.5t-36.5 -99.5t-59 -95.5t-77 -86.5z" />
<glyph unicode="&#x201a;" horiz-adv-x="511" d="M146 -165q74 85 105 148t31 120q0 12 -1.5 24.5t-3.5 24.5q-6 -2 -16 -2h-10q-36 0 -63 21t-27 59q0 25 8.5 43.5t22.5 30.5t31 17.5t34 5.5q49 0 78.5 -33.5t29.5 -111.5q0 -49 -12.5 -99.5t-36.5 -99.5t-59 -95.5t-77 -86.5z" />
<glyph unicode="&#x201c;" horiz-adv-x="817" d="M146 1284q0 49 12.5 99.5t36.5 99.5t59 95.5t78 86.5l33 -34q-76 -85 -106.5 -149t-30.5 -120q0 -13 2 -24.5t4 -23.5q6 2 16 2h10q36 0 63 -21t27 -59q0 -25 -8.5 -43.5t-22.5 -30.5t-31.5 -18t-33.5 -6q-49 0 -78.5 34t-29.5 112zM452 1284q0 49 12.5 99.5t36.5 99.5 t59 95.5t78 86.5l33 -34q-76 -85 -106.5 -149t-30.5 -120q0 -13 2 -24.5t4 -23.5q6 2 16 2h10q36 0 63 -21t27 -59q0 -25 -8.5 -43.5t-22.5 -30.5t-31.5 -18t-33.5 -6q-49 0 -78.5 34t-29.5 112z" />
<glyph unicode="&#x201d;" horiz-adv-x="817" d="M146 1172q74 86 105 148.5t31 119.5q0 12 -1.5 24.5t-3.5 24.5q-6 -2 -16 -2h-10q-36 0 -63 21t-27 59q0 25 8.5 43.5t22.5 30.5t31 18t34 6q49 0 78.5 -34t29.5 -112q0 -49 -12.5 -99.5t-36.5 -99.5t-59 -95.5t-77 -86.5zM452 1172q74 86 105 148.5t31 119.5 q0 12 -1.5 24.5t-3.5 24.5q-6 -2 -16 -2h-10q-36 0 -63 21t-27 59q0 25 8.5 43.5t22.5 30.5t31 18t34 6q49 0 78.5 -34t29.5 -112q0 -49 -12.5 -99.5t-36.5 -99.5t-59 -95.5t-77 -86.5z" />
<glyph unicode="&#x201e;" horiz-adv-x="817" d="M146 -165q74 85 105 148t31 120q0 12 -1.5 24.5t-3.5 24.5q-6 -2 -16 -2h-10q-36 0 -63 21t-27 59q0 25 8.5 43.5t22.5 30.5t31 17.5t34 5.5q49 0 78.5 -33.5t29.5 -111.5q0 -49 -12.5 -99.5t-36.5 -99.5t-59 -95.5t-77 -86.5zM452 -165q74 85 105 148t31 120 q0 12 -1.5 24.5t-3.5 24.5q-6 -2 -16 -2h-10q-36 0 -63 21t-27 59q0 25 8.5 43.5t22.5 30.5t31 17.5t34 5.5q49 0 78.5 -33.5t29.5 -111.5q0 -49 -12.5 -99.5t-36.5 -99.5t-59 -95.5t-77 -86.5z" />
<glyph unicode="&#x2020;" horiz-adv-x="1106" d="M115 767v84l397 102v455h92v-463l388 -102v-84l-396 102v-965h-92v973z" />
<glyph unicode="&#x2022;" horiz-adv-x="1044" d="M355 731q0 35 13 65t36 53t53.5 36.5t64.5 13.5q35 0 65 -13.5t53 -36.5t36.5 -53t13.5 -65q0 -34 -13.5 -64.5t-36.5 -53t-53 -36t-65 -13.5q-34 0 -64.5 13.5t-53.5 36t-36 53t-13 64.5z" />
<glyph unicode="&#x2026;" horiz-adv-x="1892" d="M345 157v164h167v-164h-167zM889 157v164h172v-164h-172zM1439 157v164h170v-164h-170z" />
<glyph unicode="&#x202f;" horiz-adv-x="333" />
<glyph unicode="&#x2039;" horiz-adv-x="751" d="M140 622l355 474h101l-307 -474l305 -467h-99z" />
<glyph unicode="&#x203a;" horiz-adv-x="751" d="M157 155l307 473l-307 468h98l345 -463l-345 -478h-98z" />
<glyph unicode="&#x205f;" horiz-adv-x="417" />
<glyph unicode="&#x20ac;" horiz-adv-x="1106" d="M28 719v78h129v27q0 60 6 117h-135v77h147q20 114 69 210.5t125 169.5q79 75 180 119.5t232 44.5q52 0 96.5 -7.5t80.5 -18t64 -23.5t48 -25l-32 -79q-49 29 -117 49t-148 20q-105 0 -184.5 -33.5t-143.5 -91.5q-65 -62 -106.5 -149t-61.5 -186h705v-77h-717 q-6 -54 -6 -109v-35h723v-78h-717q14 -111 55 -197.5t102 -146.5q135 -134 341 -134q51 0 96 8.5t82.5 21.5t67.5 27.5t52 27.5l27 -72q-26 -19 -60 -37.5t-75.5 -32.5t-91.5 -22.5t-109 -8.5q-128 0 -229.5 43.5t-177.5 119.5q-77 77 -122.5 180t-59.5 223h-135z" />
<glyph unicode="&#x2122;" horiz-adv-x="1329" d="M73 1515v66h495v-66h-209v-502h-77v502h-209zM596 1013l50 568h114l147 -367q12 -32 22 -61.5t20 -58.5h4q11 30 21 61.5t18 54.5l146 371h116l54 -568h-84l-30 386q-2 26 -3 56.5t-3 65.5h-4q-5 -12 -11 -29t-13 -35l-14 -37l-6 -18t-6 -17l-142 -364h-89l-145 374 q-9 27 -22.5 63t-23.5 63h-4q0 -29 -1 -59t-3 -63l-29 -386h-79z" />
<glyph unicode="&#x25fc;" horiz-adv-x="1060" d="M0 0v1061h1061v-1061h-1061z" />
</font>
</defs>
</svg>
