<?xml version="1.0" standalone="no"?>
<!DOCTYPE svg PUBLIC "-//W3C//DTD SVG 1.1//EN" "http://www.w3.org/Graphics/SVG/1.1/DTD/svg11.dtd" >
<svg>
<metadata>
Created by FontForge 20090914 at Sun Oct 26 02:35:41 2014
 By www-data
Copyright (c) BPG InfoTech, 2008. All rights reserved.
</metadata>
<defs>
<font id="BPGNinoMtavruliBook" horiz-adv-x="1000" >
  <font-face 
    font-family="BPG Nino Mtavruli Book"
    font-weight="400"
    font-style="italic"
    font-stretch="normal"
    units-per-em="2048"
    panose-1="2 0 5 6 0 0 0 2 0 4"
    ascent="1638"
    descent="-410"
    x-height="1042"
    cap-height="1399"
    bbox="-96 -413 2311 1635"
    underline-thickness="49"
    underline-position="-52"
    slope="-25"
    unicode-range="U+0020-U+2122"
  />
<missing-glyph horiz-adv-x="1735" 
d="M338 137h1145v1270h-1145v-1270zM309 98v1348h1200v-1348h-1200z" />
    <glyph glyph-name=".notdef" horiz-adv-x="1735" 
d="M338 137h1145v1270h-1145v-1270zM309 98v1348h1200v-1348h-1200z" />
    <glyph glyph-name="space" unicode=" " horiz-adv-x="400" 
 />
    <glyph glyph-name="space" unicode="&#xa0;" horiz-adv-x="400" 
 />
    <glyph glyph-name="exclam" unicode="!" horiz-adv-x="440" 
d="M186 544v1011h105v-1011h-105zM217 150c-12 0 -23 2.5 -33 7.5s-18.833 11.5 -26.5 19.5s-13.667 17.333 -18 28s-6.5 22 -6.5 34c0 30 7.66699 54.5 23 73.5s37 28.5 65 28.5c25.333 0 46 -9 62 -27s24 -41 24 -69c0 -12.667 -2.16699 -24.667 -6.5 -36
s-10.333 -21.333 -18 -30s-17 -15.667 -28 -21s-22.833 -8 -35.5 -8h-2z" />
    <glyph glyph-name="quotedbl" unicode="&#x22;" horiz-adv-x="618" 
d="M246 1630l-29 -454h-65l-29 454h123zM496 1630l-29 -454h-66l-28 454h123z" />
    <glyph glyph-name="numbersign" unicode="#" horiz-adv-x="1719" 
d="M1284 1450c40 0 76.167 -8.49707 108.5 -25.4971s59.833 -41 82.5 -72s40 -68.333 52 -112s18 -91.834 18 -144.501c0 -65.333 -7.83301 -120.833 -23.5 -166.5s-36 -82.834 -61 -111.501s-53.167 -49.667 -84.5 -63s-62.333 -20 -93 -20c-38 0 -73 8 -105 24
s-59.667 39 -83 69s-41.5 66.667 -54.5 110s-19.5 92.666 -19.5 147.999c0 59.333 7.33301 111.666 22 156.999s34.334 83.333 59.001 114s52.667 53.834 84 69.501s63.666 23.5 96.999 23.5h1zM1281 1379c-31.333 0 -58.6699 -8.16699 -82.0029 -24.5
s-42.666 -38 -57.999 -65s-26.833 -58 -34.5 -93s-11.5 -71.167 -11.5 -108.5c0 -45.333 5.33301 -85.5 16 -120.5s24.834 -64.5 42.501 -88.5s37.834 -42.167 60.501 -54.5s45.667 -18.5 69 -18.5c26 0 50.333 6.33301 73 19s42.5 31 59.5 55s30.5 53.833 40.5 89.5
s15 76.5 15 122.5c0 33.333 -3.5 67 -10.5 101s-18 64.833 -33 92.5s-34.333 50.167 -58 67.5s-52.5 26 -86.5 26h-2zM1069 565.003v80h430v-80h-430zM173.996 151.003v1330h93l580 -1205v1205h64v-1330h-84l-584 1201v-1201h-69z" />
    <glyph glyph-name="dollar" unicode="$" horiz-adv-x="1085" 
d="M473 -68l-0.00292969 215.003c-28 0 -56.333 2.16699 -85 6.5s-56.667 10.5 -84 18.5s-53.166 18 -77.499 30s-45.833 25.667 -64.5 41l45 78c34.667 -28 76.667 -50.667 126 -68s102.333 -26 159 -26c43.333 0 83 6.16699 119 18.5s66.833 29.5 92.5 51.5
s45.5 47.833 59.5 77.5s21 61.834 21 96.501c0 32.667 -5.83301 62.667 -17.5 90s-28.5 52.166 -50.5 74.499s-48.833 42.833 -80.5 61.5s-67.5 36 -107.5 52c-58.667 24 -109.5 48 -152.5 72s-78.5 49.833 -106.5 77.5s-48.833 57.667 -62.5 90s-20.5 69.166 -20.5 110.499
c0 40 7.16699 77.5 21.5 112.5s34.833 66.167 61.5 93.5s59 50 97 68s80.667 30 128 36v219h86v-219c61.333 -2.66699 112.833 -11.834 154.5 -27.501s77.5 -33.167 107.5 -52.5l-45 -78c-10 6.66699 -22.667 14.5 -38 23.5s-33.666 17.5 -54.999 25.5
s-45.5 14.833 -72.5 20.5s-57.167 8.5 -90.5 8.5c-48 0 -88.5 -6.66699 -121.5 -20s-59.667 -30.5 -80 -51.5s-35.166 -44.333 -44.499 -70s-14 -50.834 -14 -75.501c0 -30 5 -57 15 -81s26 -46.333 48 -67s50.333 -40.5 85 -59.5s76.667 -38.833 126 -59.5
c50.667 -21.333 96.167 -43.833 136.5 -67.5s74.5 -50 102.5 -79s49.5 -61.5 64.5 -97.5s22.5 -77.333 22.5 -124c0 -33.333 -6.33301 -67.833 -19 -103.5s-32.334 -69 -59.001 -100s-60.167 -57.833 -100.5 -80.5s-88.166 -38 -143.499 -46v-215h-86z" />
    <glyph glyph-name="percent" unicode="%" horiz-adv-x="1577" 
d="M371 1530c42.667 0 81.499 -8.16602 116.499 -24.499s65 -40.833 90 -73.5s44.5 -73.667 58.5 -123s21 -107.333 21 -174c0 -71.333 -7.83301 -133.5 -23.5 -186.5s-37.167 -97.167 -64.5 -132.5s-59.333 -61.666 -96 -78.999s-76.334 -26 -119.001 -26
c-38 0 -74.333 7.83301 -109 23.5s-65.5 39.667 -92.5 72s-48.667 73.666 -65 123.999s-25.166 110.166 -26.499 179.499c0 72 8.83301 134.333 26.5 187s41 96.167 70 130.5s61.833 60 98.5 77s74.334 25.5 113.001 25.5h2zM357.999 1460
c-32.667 0 -61.8311 -8.50098 -87.498 -25.501s-47.5 -41.333 -65.5 -73s-31.833 -70 -41.5 -115s-14.5 -95.833 -14.5 -152.5c0 -49.333 5.33301 -93.333 16 -132s25.167 -71.5 43.5 -98.5s40.333 -47.667 66 -62s53.5 -21.5 83.5 -21.5c35.333 0 66.166 8 92.499 24
s48.333 38.833 66 68.5s30.834 65.834 39.501 108.501s13 91 13 145c0 50 -4 95.667 -12 137s-20.333 76.5 -37 105.5s-38.334 51.5 -65.001 67.5s-58.334 24 -95.001 24h-2zM332.002 149l825 1381h84l-825 -1381h-84zM1229 983c42.667 0 81.4971 -8.16895 116.497 -24.502
s65.167 -40.833 90.5 -73.5s45 -73.667 59 -123s21 -107.333 21 -174c0 -71.333 -7.83301 -133.5 -23.5 -186.5s-37.167 -97.167 -64.5 -132.5s-59.5 -61.666 -96.5 -78.999s-76.833 -26 -119.5 -26c-37.333 0 -73.5 7.83301 -108.5 23.5s-66 39.834 -93 72.501
s-48.667 74 -65 124s-24.833 109.667 -25.5 179c0 72 8.83301 134.333 26.5 187s40.834 96.167 69.501 130.5s61.334 60 98.001 77s74.334 25.5 113.001 25.5h2zM1217 912.998c-32.667 0 -61.998 -8.50098 -87.998 -25.501s-48 -41.167 -66 -72.5
s-31.833 -69.5 -41.5 -114.5s-14.5 -95.833 -14.5 -152.5c0 -49.333 5.33301 -93.333 16 -132s25.5 -71.667 44.5 -99s41.167 -48.166 66.5 -62.499s53 -21.5 83 -21.5c35.333 0 66.166 8 92.499 24s48.166 38.833 65.499 68.5s30.333 66 39 109s13 91.5 13 145.5
c0 50 -4 95.5 -12 136.5s-20.333 76 -37 105s-38.167 51.5 -64.5 67.5s-57.833 24 -94.5 24h-2z" />
    <glyph glyph-name="ampersand" unicode="&#x26;" horiz-adv-x="1208" 
d="M1098 176l-76.002 73.002c-25.333 25.333 -55.333 53.666 -90 84.999c-40 -35.333 -79 -64.833 -117 -88.5s-75.833 -42.5 -113.5 -56.5s-75.334 -23.833 -113.001 -29.5s-76.167 -8.5 -115.5 -8.5c-56.667 0 -110 9.5 -160 28.5s-93.667 45.667 -131 80
s-66.833 75.166 -88.5 122.499s-32.5 99.333 -32.5 156c0 52 8.16699 99 24.5 141s38 79.5 65 112.5s58.333 62.167 94 87.5s72.834 47.666 111.501 66.999v6c-44 54.667 -76.167 106.834 -96.5 156.501s-30.5 96.5 -30.5 140.5c0 42 7.33301 82.833 22 122.5
s36.334 75 65.001 106s63.667 56 105 75s88.666 28.5 141.999 28.5c40.667 0 78.334 -7 113.001 -21s64.667 -33.167 90 -57.5s45 -53.5 59 -87.5s21 -71 21 -111c0 -37.333 -6.16699 -72.5 -18.5 -105.5s-32.166 -65 -59.499 -96s-63.333 -61 -108 -90
s-99.334 -57.833 -164.001 -86.5v-7l127.5 -141l121 -129.5l105.5 -110l82 -83.5c16.667 21.333 32.334 45 47.001 71s28.5 56.5 41.5 91.5s25.333 75.333 37 121s22.5 99.167 32.5 160.5h94c-22.667 -122.667 -49.667 -224.5 -81 -305.5s-69.333 -145.167 -114 -192.5
l125 -120.5l113 -104.5h-129zM499.998 231.002c39.333 0 76.832 4.16895 112.499 12.502s69.167 19.666 100.5 33.999s60.5 31.166 87.5 50.499s51.5 40.333 73.5 63l-68 69l-110.5 114l-139 146.5l-153.5 166.5c-22.667 -11.333 -48 -26.333 -76 -45
s-54.333 -41.667 -79 -69s-45.5 -59.166 -62.5 -95.499s-25.5 -77.833 -25.5 -124.5c0 -48.667 8.83301 -92.834 26.5 -132.501s41.834 -73.5 72.501 -101.5s66.5 -49.667 107.5 -65s84.833 -23 131.5 -23h2zM546.997 1503c-36.667 0 -68.8301 -6.83496 -96.4971 -20.502
s-50.834 -31.667 -69.501 -54s-32.834 -48.166 -42.501 -77.499s-14.5 -60 -14.5 -92c0 -30 3.66699 -58 11 -84s16.833 -50.333 28.5 -73s24.5 -44 38.5 -64s28 -39 42 -57c45.333 21.333 86.833 42.833 124.5 64.5s70.167 44.834 97.5 69.501s48.5 51.667 63.5 81
s22.5 62 22.5 98c0 24.667 -3.83301 49.5 -11.5 74.5s-19.834 47.5 -36.501 67.5s-37.667 36.167 -63 48.5s-56 18.5 -92 18.5h-2z" />
    <glyph glyph-name="quotesingle" unicode="'" horiz-adv-x="369" 
d="M246 1630l-29 -454h-65l-29 454h123z" />
    <glyph glyph-name="parenleft" unicode="(" horiz-adv-x="553" 
d="M543 1533c-47.333 -60.667 -90.332 -124.002 -128.999 -190.002s-71.667 -136.833 -99 -212.5s-48.5 -157.334 -63.5 -245.001s-22.5 -183.5 -22.5 -287.5c0 -101.333 7.83301 -194.666 23.5 -279.999s37.5 -165 65.5 -239s61.167 -143.5 99.5 -208.5
s80.166 -128.167 125.499 -189.5h-97c-38.667 49.333 -76.667 104.333 -114 165s-70.833 128.334 -100.5 203.001s-53.5 157.5 -71.5 248.5s-27 191.833 -27 302.5c0 111.333 9 212.833 27 304.5s41.833 175.334 71.5 251.001s63.167 144.5 100.5 206.5s75.333 119 114 171
h97z" />
    <glyph glyph-name="parenright" unicode=")" horiz-adv-x="553" 
d="M10 -316c44.667 60 86.168 122.664 124.501 187.997s71.5 135.666 99.5 210.999s50 156.5 66 243.5s24 182.167 24 285.5c0 102 -7.66699 196 -23 282s-36.833 166.333 -64.5 241s-60.834 144.834 -99.501 210.501s-81 129.167 -127 190.5h96
c38.667 -50.667 76.834 -106.5 114.501 -167.5s71.167 -129.167 100.5 -204.5s53.166 -158.666 71.499 -249.999s27.5 -192.666 27.5 -303.999s-9.16699 -212.5 -27.5 -303.5s-42.166 -174 -71.499 -249s-62.833 -143.167 -100.5 -204.5s-75.834 -117.666 -114.501 -168.999
h-96z" />
    <glyph glyph-name="asterisk" unicode="*" horiz-adv-x="1118" 
d="M588 1114l173.998 211.002c6 8 12.167 15.5 18.5 22.5s13.166 10.5 20.499 10.5h10c4.66699 0 9.83398 -0.666992 15.501 -2s11.5 -4.66602 17.5 -9.99902c5.33301 -6 8.66602 -11.833 9.99902 -17.5s2 -10.834 2 -15.501v-10c0 -7.33301 -3.33301 -14.166 -10 -20.499
s-14.334 -12.5 -23.001 -18.5l-211 -174l4 -13l273 29h13c24 0 39.833 -5 47.5 -15s11.5 -20 11.5 -30c0 -5.33301 -0.666992 -10.833 -2 -16.5s-4.16602 -10.667 -8.49902 -15s-10.333 -7.83301 -18 -10.5s-17.5 -4 -29.5 -4h-6.5c-2.33301 0 -4.83301 0.333008 -7.5 1
l-273 28l-4 -12l211 -174c8.66699 -6 16.334 -12.167 23.001 -18.5s10 -13.166 10 -20.499v-10c0 -4.66699 -0.666992 -10 -2 -16s-4.66602 -11.667 -9.99902 -17c-9.33301 -8 -19 -12 -29 -12c-9.33301 0 -18.666 3 -27.999 9s-17.666 14 -24.999 24l-174 211l-13 -4
l29 -273v-15c0 -24 -4.66699 -39.5 -14 -46.5s-19.666 -10.5 -30.999 -10.5c-5.33301 0 -10.666 0.666992 -15.999 2s-10.166 4.16602 -14.499 8.49902s-8 10.333 -11 18s-4.5 17.5 -4.5 29.5c0 7.33301 0.333008 12 1 14l29 273l-13 4l-174 -211
c-8 -10 -16.5 -18 -25.5 -24s-18.167 -9 -27.5 -9c-11.333 0 -21 4 -29 12s-12 17.667 -12 29c0 9.33301 3 18.5 9 27.5s14 17.5 24 25.5l211 174l-4 12l-273 -28c-2 -0.666992 -7 -1 -15 -1c-24 0 -39.333 4.83301 -46 14.5s-10 20.167 -10 31.5
c0 4.66699 0.666992 9.66699 2 15s4 10.333 8 15s9.83301 8.33398 17.5 11.001s17.5 4 29.5 4h14l273 -29l4 13l-211 174c-10 7.33301 -18 15.666 -24 24.999s-9 18.666 -9 27.999c0 10 4 19.667 12 29c6 5.33301 11.833 8.66602 17.5 9.99902s10.834 2 15.501 2h10
c7.33301 0 14.166 -3.5 20.499 -10.5s12.5 -14.5 18.5 -22.5l174 -211l13 4l-29 273c-0.666992 2 -1 6.33301 -1 13c0 12 1.5 21.833 4.5 29.5s6.66699 13.667 11 18s9.16602 7.16602 14.499 8.49902s10.666 2 15.999 2s10.666 -0.666992 15.999 -2s10.166 -4 14.499 -8
s7.83301 -9.83301 10.5 -17.5s4 -17.5 4 -29.5v-14l-29 -273z" />
    <glyph glyph-name="plus" unicode="+" horiz-adv-x="1221" 
d="M655 1240v-502h484v-82h-484v-506h-90v506h-483v82h483v502h90z" />
    <glyph glyph-name="comma" unicode="," horiz-adv-x="502" 
d="M143 -162c48.667 56 83.001 104.499 103.001 145.499s30 80.167 30 117.5c0 8 -0.333008 16 -1 24s-1.66699 16 -3 24c-4 -1.33301 -9.33301 -2 -16 -2h-10c-23.333 0 -43.833 6.83301 -61.5 20.5s-26.5 32.834 -26.5 57.501c0 16.667 2.83301 31 8.5 43s13 22 22 30
s19 13.833 30 17.5s22.167 5.5 33.5 5.5c32 0 57.667 -11 77 -33s29 -58.667 29 -110c0 -32 -4.16699 -64.5 -12.5 -97.5s-20.333 -65.5 -36 -97.5s-34.834 -63.167 -57.501 -93.5s-48 -58.5 -76 -84.5z" />
    <glyph glyph-name="hyphen" unicode="-" horiz-adv-x="742" 
d="M642 693v-78h-542v78h542z" />
    <glyph glyph-name="period" unicode="." horiz-adv-x="530" 
d="M172 246c0 12 2.33301 23.6689 7 35.002s11.334 21.166 20.001 29.499s18.667 15 30 20s23.666 7.5 36.999 7.5c26 0 47.833 -8.83301 65.5 -26.5s26.5 -39.5 26.5 -65.5c0 -28 -9.16699 -50.833 -27.5 -68.5s-39.833 -26.5 -64.5 -26.5c-12.667 0 -24.667 2.5 -36 7.5
s-21.333 11.833 -30 20.5s-15.5 18.667 -20.5 30s-7.5 23.666 -7.5 36.999z" />
    <glyph glyph-name="slash" unicode="/" horiz-adv-x="532" 
d="M2 150l426 1362h104l-432 -1362h-98z" />
    <glyph glyph-name="zero" unicode="0" horiz-adv-x="798" 
d="M747 908c0 -124 -8.33203 -232.831 -24.999 -326.498s-40.5 -172 -71.5 -235s-68.833 -110.333 -113.5 -142s-95 -47.5 -151 -47.5c-42.667 0 -83.834 14 -123.501 42s-75 71.167 -106 129.5s-56 132.666 -75 222.999s-29.167 197.833 -30.5 322.5
c0 126.667 10.167 236.167 30.5 328.5s47.333 168.5 81 228.5s72.167 104.5 115.5 133.5s87.666 43.5 132.999 43.5c48.667 0 93.667 -14.167 135 -42.5s76.833 -71.5 106.5 -129.5s52.834 -130.833 69.501 -218.5s25 -190.834 25 -309.501zM649.001 894.002
c0 93.333 -4.83203 178.5 -14.499 255.5s-24.5 143 -44.5 198s-45.833 97.667 -77.5 128s-69.5 45.5 -113.5 45.5c-36.667 0 -70.334 -15 -101.001 -45s-57 -72.333 -79 -127s-39.167 -120.5 -51.5 -197.5s-18.5 -162.833 -18.5 -257.5v-33
c0 -96 6.16699 -182.167 18.5 -258.5s29.333 -141 51 -194s47.667 -93.667 78 -122s63.5 -42.5 99.5 -42.5c43.333 0 80.833 15.5 112.5 46.5s58 74.833 79 131.5s36.5 125 46.5 205s15 169 15 267z" />
    <glyph glyph-name="one" unicode="1" horiz-adv-x="659" 
d="M365 1465l-80.5 -65.5l-77.5 -63.5l-21 92l186 153h87v-1397h-94v1281z" />
    <glyph glyph-name="two" unicode="2" horiz-adv-x="798" 
d="M63 184l0.000976562 63l99 130l144 193c42 57.333 78.833 110 110.5 158s58.667 92 81 132s40.333 78.167 54 114.5s23.667 71.833 30 106.5s9.5 70.334 9.5 107.001c0 38 -3.16699 76.5 -9.5 115.5s-18 74.167 -35 105.5s-40 56.833 -69 76.5s-65.833 29.5 -110.5 29.5
c-22.667 0 -45 -4.5 -67 -13.5s-43 -20.5 -63 -34.5s-38.833 -29.833 -56.5 -47.5s-33.5 -35.167 -47.5 -52.5l-35 84c38 50 80.667 88.667 128 116s99.333 41 156 41c39.333 0 74.166 -6.33301 104.499 -19s56.833 -29.334 79.5 -50.001s41.667 -44.5 57 -71.5
s27.833 -55 37.5 -84s16.667 -58 21 -87s6.5 -55.833 6.5 -80.5c0 -69.333 -9 -135 -27 -197s-45 -126 -81 -192s-81 -136.333 -135 -211l-188 -252l-69 -88h2v-4h527v-88h-654z" />
    <glyph glyph-name="three" unicode="3" horiz-adv-x="798" 
d="M100 358c10.667 -11.333 24.832 -23.3291 42.499 -35.9961s37.167 -24.5 58.5 -35.5s44 -20.167 68 -27.5s47.667 -11 71 -11c35.333 0 66.333 5.16699 93 15.5s49.5 24.166 68.5 41.499s34.833 37 47.5 59s22.5 44.5 29.5 67.5s12 45.5 15 67.5s4.5 41.667 4.5 59v13
c-0.666992 60.667 -10.167 111.834 -28.5 153.501s-41.833 75.334 -70.5 101.001s-60.834 44.167 -96.501 55.5s-71.5 17 -107.5 17h-84v88h89c28.667 0 58.167 5.5 88.5 16.5s57.833 27.833 82.5 50.5s44.834 51.667 60.501 87s23.5 77 23.5 125c0 30 -3.33301 60 -10 90
s-17.5 57 -32.5 81s-35.167 43.5 -60.5 58.5s-56.333 22.5 -93 22.5c-19.333 0 -39 -3.33301 -59 -10s-39.167 -15.667 -57.5 -27s-36 -24.333 -53 -39s-32.167 -29.667 -45.5 -45l-36 92c12.667 14.667 28.334 29.167 47.001 43.5s39.334 27.166 62.001 38.499
s46.834 20.5 72.501 27.5s51.5 10.5 77.5 10.5c53.333 0 98.333 -10.167 135 -30.5s66.167 -46.333 88.5 -78s38.333 -67 48 -106s14.5 -77.5 14.5 -115.5c0 -35.333 -5.83301 -69.5 -17.5 -102.5s-27.667 -64 -48 -93s-44.333 -55.333 -72 -79
s-57.834 -43.834 -90.501 -60.501c34.667 -9.33301 68.5 -25 101.5 -47s62 -49 87 -81s45.167 -68.333 60.5 -109s23 -84.334 23 -131.001c0 -50 -7 -99.833 -21 -149.5s-36 -94.5 -66 -134.5s-68.167 -72.333 -114.5 -97s-101.5 -37 -165.5 -37
c-30 0 -58.5 3.33301 -85.5 10s-51.833 15.167 -74.5 25.5s-42.834 21.666 -60.501 33.999s-32.167 24.166 -43.5 35.499z" />
    <glyph glyph-name="four" unicode="4" horiz-adv-x="830" 
d="M548 184v408h-518v69l531 920h78v-901h162v-88h-162v-408h-91zM548 680v773l-54 -151l-355 -617h1v-5h408z" />
    <glyph glyph-name="five" unicode="5" horiz-adv-x="798" 
d="M669 1489h-402l-47 -446c10.667 1.33301 23.334 2.83301 38.001 4.5s33.667 2.5 57 2.5c34 0 66 -3.66699 96 -11s60 -18.666 90 -33.999c21.333 -13.333 42.833 -31.5 64.5 -54.5s41 -50.5 58 -82.5s30.833 -68.167 41.5 -108.5s16 -84.5 16 -132.5
c0 -70 -9.5 -133.833 -28.5 -191.5s-44.667 -107.167 -77 -148.5s-70.333 -73.333 -114 -96s-90.167 -34 -139.5 -34c-30 0 -58.167 3.16699 -84.5 9.5s-50.5 14.5 -72.5 24.5s-41.5 21 -58.5 33s-31.167 23.667 -42.5 35l33 94c12 -11.333 26.167 -23.166 42.5 -35.499
s34.5 -23.666 54.5 -33.999s41.333 -18.833 64 -25.5s46 -10 70 -10c37.333 0 71.833 9.33301 103.5 28s59 44.167 82 76.5s41 70.166 54 113.499s19.5 89.666 19.5 138.999c0 47.333 -5.5 92.5 -16.5 135.5s-28.333 80.667 -52 113s-53.834 58.166 -90.501 77.499
s-81 29 -133 29c-32 0 -62.333 -2.16699 -91 -6.5s-54.667 -8.83301 -78 -13.5l62 641h481v-92z" />
    <glyph glyph-name="six" unicode="6" horiz-adv-x="798" 
d="M750 650c0 -58 -7.33301 -116.33 -22 -174.997s-36.5 -111.5 -65.5 -158.5s-65 -85.333 -108 -115s-92.833 -44.5 -149.5 -44.5c-46.667 0 -91.5 11.833 -134.5 35.5s-81 60 -114 109s-59.5 110.833 -79.5 185.5s-30 163 -30 265c0 70.667 4.83301 137.5 14.5 200.5
s22.667 121.5 39 175.5s35.5 103.167 57.5 147.5s45.333 83.166 70 116.499c36.667 48 79.834 89 129.501 123s103.834 59 162.501 75c20 6 41.333 10.5 64 13.5s42.667 4.5 60 4.5l2 -97c-18.667 0 -39.167 -0.833008 -61.5 -2.5s-44.833 -6.16699 -67.5 -13.5
c-51.333 -14 -98 -38.167 -140 -72.5s-78.5 -76 -109.5 -125s-56.333 -103.833 -76 -164.5s-32.834 -124.334 -39.501 -191.001c13.333 22.667 29 44 47 64s38.333 37.5 61 52.5s47.167 26.833 73.5 35.5s54.5 13 84.5 13c52 0 98.5 -11.667 139.5 -35
s75.667 -55.5 104 -96.5s50.166 -89.333 65.499 -145s23 -115.834 23 -180.501zM652 646.003c0 59.333 -6.33105 112.003 -18.998 158.003s-30.167 84.667 -52.5 116s-48.833 55.166 -79.5 71.499s-64 24.5 -100 24.5c-28.667 0 -58.167 -7.83301 -88.5 -23.5
s-58 -37 -83 -64s-45.667 -58.5 -62 -94.5s-24.5 -74.333 -24.5 -115c0 -64.667 5.66699 -125.667 17 -183s28.166 -107.5 50.499 -150.5s50.166 -77 83.499 -102s72.333 -37.5 117 -37.5c37.333 0 70.833 10.667 100.5 32s55 50.166 76 86.499s37 78.666 48 126.999
s16.5 99.833 16.5 154.5z" />
    <glyph glyph-name="seven" unicode="7" horiz-adv-x="798" 
d="M735 1581v-81l-482 -1316h-91l475 1305v4h-540v88h638z" />
    <glyph glyph-name="eight" unicode="8" horiz-adv-x="798" 
d="M706 1267c0 -27.333 -2.66504 -55.833 -7.99805 -85.5s-15 -59.5 -29 -89.5s-33.333 -59.333 -58 -88s-56.334 -55.334 -95.001 -80.001h-2c80 -38 138.167 -88.167 174.5 -150.5s54.5 -132.833 54.5 -211.5c0 -63.333 -9.66699 -120 -29 -170s-45 -92.5 -77 -127.5
s-68.667 -61.667 -110 -80s-84 -27.5 -128 -27.5c-46.667 0 -90.834 8.66699 -132.501 26s-78.167 42.5 -109.5 75.5s-56.166 73 -74.499 120s-27.5 100.5 -27.5 160.5c0 85.333 18.667 160.5 56 225.5s92.333 119.5 165 163.5c-32.667 18 -60.5 39 -83.5 63
s-41.833 49.833 -56.5 77.5s-25.334 56.167 -32.001 85.5s-10 58.666 -10 87.999c0 52.667 8 101.334 24 146.001s38 83.334 66 116.001s61.333 58.167 100 76.5s81 27.5 127 27.5c44.667 0 85.167 -8.66699 121.5 -26s67.333 -41.166 93 -71.499s45.5 -66.333 59.5 -108
s21 -86.834 21 -135.501zM648.002 543c0 51.333 -4.83008 96.167 -14.4971 134.5s-24.834 71.5 -45.501 99.5s-46.667 51.667 -78 71s-68.666 35.666 -111.999 48.999c-36 -11.333 -69 -27.833 -99 -49.5s-56 -47.334 -78 -77.001s-39 -62.5 -51 -98.5s-18 -74 -18 -114
c0 -3.33301 -0.166992 -6.66602 -0.5 -9.99902s-0.5 -6.66602 -0.5 -9.99902c0 -38 5.5 -74.833 16.5 -110.5s27.167 -67 48.5 -94s47.166 -48.667 77.499 -65s65.166 -24.5 104.499 -24.5s74.5 8.16699 105.5 24.5s57.167 38.333 78.5 66s37.666 59.5 48.999 95.5
s17 73.667 17 113zM610.005 1261c0 28.667 -3.50098 58.5 -10.501 89.5s-18.667 59.333 -35 85s-37.666 46.834 -63.999 63.501s-58.833 25 -97.5 25c-35.333 0 -66.5 -7.5 -93.5 -22.5s-49.5 -35 -67.5 -60s-31.5 -53.5 -40.5 -85.5s-13.5 -65 -13.5 -99v-4
c0 -82.667 17.333 -147.167 52 -193.5s89 -79.833 163 -100.5c27.333 10.667 53.5 24.667 78.5 42s47 38.5 66 63.5s34.167 53.667 45.5 86s17 69.166 17 110.499z" />
    <glyph glyph-name="nine" unicode="9" horiz-adv-x="798" 
d="M752 1014c0 -82 -5.49902 -157.496 -16.499 -226.496s-25.333 -131.5 -43 -187.5s-37.834 -105.667 -60.501 -149s-45.667 -80 -69 -110c-16 -19.333 -34 -37.833 -54 -55.5s-40.667 -33.834 -62 -48.501s-42.833 -27.167 -64.5 -37.5s-41.834 -17.833 -60.501 -22.5
c-28 -6.66699 -53.833 -11.834 -77.5 -15.501s-45.5 -5.5 -65.5 -5.5h-9.5c-3 0 -6.16699 0.333008 -9.5 1v100c12 -2 24.667 -3 38 -3c28.667 0 60.667 4 96 12c40 8 80.5 27.667 121.5 59s77.5 70.333 109.5 117c28.667 46 54.167 101.5 76.5 166.5
s38.166 140.833 47.499 227.5c-69.333 -105.333 -158.333 -158 -267 -158c-52.667 0 -98.667 12.5 -138 37.5s-72.166 57.833 -98.499 98.5s-46 86.667 -59 138s-19.5 103 -19.5 155c0 63.333 8.33301 125 25 185s40.5 113.5 71.5 160.5s68.333 84.667 112 113
s92.834 42.5 147.501 42.5c44 0 85.833 -11.833 125.5 -35.5s74.5 -59.834 104.5 -108.501s54 -110.334 72 -185.001s27 -163 27 -265zM656.001 1023c0 68 -4.83203 132.171 -14.499 192.504s-24.667 113 -45 158s-46.333 80.5 -78 106.5s-69.5 39 -113.5 39
c-37.333 0 -71 -11.333 -101 -34s-55.5 -52.834 -76.5 -90.501s-37 -81.167 -48 -130.5s-16.5 -100.333 -16.5 -153c0 -48.667 5.5 -93.834 16.5 -135.501s26.667 -77.834 47 -108.501s44.666 -54.667 72.999 -72s59.833 -26 94.5 -26c32 0 63.5 7 94.5 21
s59 32.833 84 56.5s45.167 50.667 60.5 81s23 62.166 23 95.499z" />
    <glyph glyph-name="colon" unicode=":" horiz-adv-x="530" 
d="M172 834c0 12 2.33203 23.668 6.99902 35.001s11.334 21.166 20.001 29.499s18.667 15 30 20s23.666 7.5 36.999 7.5c26 0 47.833 -8.83301 65.5 -26.5s26.5 -39.5 26.5 -65.5c0 -13.333 -2.5 -25.666 -7.5 -36.999s-11.667 -21.333 -20 -30
s-18.166 -15.334 -29.499 -20.001s-23 -7 -35 -7c-12.667 0 -24.667 2.5 -36 7.5s-21.333 11.833 -30 20.5s-15.5 18.667 -20.5 30s-7.5 23.333 -7.5 36zM171.999 247.001c0 12 2.33301 23.6689 7 35.002s11.334 21.166 20.001 29.499s18.667 15 30 20
s23.666 7.5 36.999 7.5c26 0 47.833 -8.83301 65.5 -26.5s26.5 -39.5 26.5 -65.5c0 -28 -9.16699 -50.833 -27.5 -68.5s-39.833 -26.5 -64.5 -26.5c-12.667 0 -24.667 2.5 -36 7.5s-21.333 11.833 -30 20.5s-15.5 18.667 -20.5 30s-7.5 23.666 -7.5 36.999z" />
    <glyph glyph-name="semicolon" unicode=";" horiz-adv-x="502" 
d="M158 830c0 12 2.33203 23.668 6.99902 35.001s11.334 21.166 20.001 29.499s18.667 15 30 20s23.666 7.5 36.999 7.5c26 0 47.833 -8.83301 65.5 -26.5s26.5 -39.5 26.5 -65.5c0 -13.333 -2.5 -25.666 -7.5 -36.999s-11.667 -21.333 -20 -30
s-18.166 -15.334 -29.499 -20.001s-23 -7 -35 -7c-12.667 0 -24.667 2.5 -36 7.5s-21.333 11.833 -30 20.5s-15.5 18.667 -20.5 30s-7.5 23.333 -7.5 36zM142.999 -162.999c48.667 56 83.001 104.499 103.001 145.499s30 80.167 30 117.5c0 8 -0.333008 16 -1 24
s-1.66699 16 -3 24c-4 -1.33301 -9.33301 -2 -16 -2h-10c-23.333 0 -43.833 6.83301 -61.5 20.5s-26.5 32.834 -26.5 57.501c0 16.667 2.83301 31 8.5 43s13 22 22 30s19 13.833 30 17.5s22.167 5.5 33.5 5.5c32 0 57.667 -11 77 -33s29 -58.667 29 -110
c0 -32 -4.16699 -64.5 -12.5 -97.5s-20.333 -65.5 -36 -97.5s-34.834 -63.167 -57.501 -93.5s-48 -58.5 -76 -84.5z" />
    <glyph glyph-name="less" unicode="&#x3c;" horiz-adv-x="1014" 
d="M133 583v85l797 307v-54l-754 -295l754 -296v-55z" />
    <glyph glyph-name="equal" unicode="=" horiz-adv-x="1014" 
d="M930 575h-793v54h793v-54zM930 950h-793v56h793v-56z" />
    <glyph glyph-name="greater" unicode="&#x3e;" horiz-adv-x="1014" 
d="M943 597l-810 -325v58l761 301l-761 288v55l810 -305v-72z" />
    <glyph glyph-name="question" unicode="?" horiz-adv-x="827" 
d="M419 332c25.333 0 44.333 -8.16895 57 -24.502s19 -36.166 19 -59.499c0 -21.333 -6.33301 -39.666 -19 -54.999s-31.667 -23 -57 -23c-26 0 -46.667 7.33301 -62 22s-23 33.334 -23 56.001c0 23.333 7.66699 43.166 23 59.499s36 24.5 62 24.5zM464 501.998
l-87.001 0.00292969v150c0 22 3.66699 43.167 11 63.5s17.666 40.5 30.999 60.5s29.166 40.167 47.499 60.5s38.5 41.166 60.5 62.499c54 49.333 95.333 97.166 124 143.499s43 96.833 43 151.5c0 44 -4.33301 85 -13 123s-23 71 -43 99s-46 50 -78 66s-71.333 24 -118 24
c-31.333 0 -61.833 -5.83301 -91.5 -17.5s-56.167 -28 -79.5 -49s-42.166 -46.167 -56.499 -75.5s-21.5 -61.333 -21.5 -96c0 -19.333 2.66699 -40.166 8 -62.499s13.5 -43 24.5 -62s25 -34.833 42 -47.5s37.167 -19 60.5 -19c36 0 62.833 9.5 80.5 28.5
s26.5 52.833 26.5 101.5c0 9.33301 -0.333008 19.666 -1 30.999s-3.66699 28.666 -9 51.999h42c10.667 -26 18.167 -49.167 22.5 -69.5s6.5 -38.166 6.5 -53.499c0 -50 -13.833 -89.833 -41.5 -119.5s-69.834 -44.5 -126.501 -44.5c-35.333 0 -67 7.83301 -95 23.5
s-51.667 36 -71 61s-34.166 53.333 -44.499 85s-15.5 63.5 -15.5 95.5c0 48 9.33301 91.333 28 130s43.667 71.5 75 98.5s67.5 47.833 108.5 62.5s83.833 22 128.5 22c56.667 0 106.334 -9.33301 149.001 -28s78.334 -45 107.001 -79s50 -74.667 64 -122s21 -100 21 -158
c0 -36.667 -5.16699 -69.834 -15.5 -99.501s-25 -58.5 -44 -86.5s-41.667 -56.5 -68 -85.5l-88.5 -95.5c-30 -32 -54.833 -60.5 -74.5 -85.5s-29.5 -50.833 -29.5 -77.5c0 -6 0.333008 -10 1 -12v-150z" />
    <glyph glyph-name="at" unicode="@" horiz-adv-x="1569" 
d="M1042 1142c-13.333 5.33301 -32.5029 10.833 -57.5029 16.5s-55.5 8.5 -91.5 8.5c-53.333 0 -104 -10 -152 -30s-90.167 -48 -126.5 -84s-65.166 -78.667 -86.499 -128s-32 -103.333 -32 -162c0 -24 3.66699 -47.167 11 -69.5s18.333 -42 33 -59
s33.334 -30.5 56.001 -40.5s49.334 -15 80.001 -15c40 0 78 11.167 114 33.5s68.167 50.166 96.5 83.499s52 69.333 71 108s31.5 74.334 37.5 107.001zM1114 239c-58.667 -32 -119.168 -55.002 -181.501 -69.002s-128.833 -21 -199.5 -21
c-59.333 0 -116.5 7.33301 -171.5 22s-106.833 35.5 -155.5 62.5s-93.167 60 -133.5 99s-74.833 82.833 -103.5 131.5s-51 102 -67 160s-24 119.333 -24 184c0 67.333 7.83301 133.333 23.5 198s38.5 125.5 68.5 182.5s67 109.333 111 157s94.5 88.667 151.5 123
s120.333 61.166 190 80.499s144.834 29 225.501 29c98 0 186.5 -16.167 265.5 -48.5s146.5 -77 202.5 -134s99.167 -124 129.5 -201s45.5 -159.833 45.5 -248.5c0 -70 -10.667 -132.667 -32 -188s-49 -102 -83 -140s-72.5 -67 -115.5 -87s-86.5 -30 -130.5 -30
c-18 0 -36 3.33301 -54 10s-34.333 17.167 -49 31.5s-26.5 32.666 -35.5 54.999s-13.5 49.166 -13.5 80.499v13.5c0 4.33301 0.333008 9.16602 1 14.499h-8c-19.333 -32 -40.166 -60.833 -62.499 -86.5s-46.833 -47.167 -73.5 -64.5s-56.334 -30.666 -89.001 -39.999
s-69 -14 -109 -14c-29.333 0 -58 6.33301 -86 19s-53 30.5 -75 53.5s-39.667 50.667 -53 83s-20 68.5 -20 108.5c0 68 13.5 131.333 40.5 190s63.5 109.5 109.5 152.5s99.333 76.667 160 101s124.667 36.5 192 36.5c50.667 0 94.667 -4.16699 132 -12.5
s72 -19.166 104 -32.499l-70 -342c-10.667 -51.333 -16 -96.666 -16 -135.999c0 -48 8.16699 -83.333 24.5 -106s39.5 -34.334 69.5 -35.001h6c29.333 0 58.333 8.16699 87 24.5s54.334 39.833 77.001 70.5s41 67.834 55 111.501s21 92.834 21 147.501
c0 81.333 -12.667 156.666 -38 225.999s-62.166 129.333 -110.499 180s-107.5 90.334 -177.5 119.001s-149.333 43 -238 43c-90.667 0 -175.834 -15.833 -255.501 -47.5s-149.334 -77.167 -209.001 -136.5s-106.667 -131.166 -141 -215.499s-51.5 -179.166 -51.5 -284.499
c0 -86.667 14.833 -166.167 44.5 -238.5s70.167 -134.5 121.5 -186.5s111.166 -92.5 179.499 -121.5s141.5 -43.5 219.5 -43.5c66.667 0 129.334 7 188.001 21s110 35 154 63z" />
    <glyph glyph-name="A" unicode="A" horiz-adv-x="1062" 
d="M288 594l-154 -437h-85l451 1242h80l449 -1242h-86l-156 437h-499zM760 670l-157.999 436.999c-8 20.667 -14.833 39.667 -20.5 57s-10.834 33.833 -15.501 49.5l-13 45.5l-12 45h-3c-8.66699 -32 -17.667 -62.667 -27 -92s-21 -62.666 -35 -99.999l-159 -442h443z" />
    <glyph glyph-name="B" unicode="B" horiz-adv-x="909" 
d="M146 1383c34 8.66699 72.668 15.5029 116.001 20.5029s88 7.5 134 7.5c76.667 0 140 -9 190 -27s92 -45.333 126 -82c23.333 -26 40.666 -55.667 51.999 -89s17 -72 17 -116c0 -30.667 -5 -60.334 -15 -89.001s-23.833 -55 -41.5 -79s-38.5 -45.333 -62.5 -64
s-50 -33.334 -78 -44.001v-6c20 -4 44 -12.667 72 -26s54.667 -32.5 80 -57.5s47 -56.167 65 -93.5s27 -82 27 -134s-7.66699 -96.833 -23 -134.5s-36 -70.834 -62 -99.501c-40 -44 -91.5 -75.5 -154.5 -94.5s-140.5 -28.5 -232.5 -28.5c-42.667 0 -82 1.33301 -118 4
s-66.667 4.66699 -92 6v1226zM228.001 850.003l195.001 0.00292969c44 0 83 6.5 117 19.5s62.667 30.5 86 52.5s41.166 47.667 53.499 77s18.5 60.666 18.5 93.999c0 47.333 -8.16699 86.666 -24.5 117.999s-38.5 56.166 -66.5 74.499s-60.5 31.333 -97.5 39
s-76.5 11.5 -118.5 11.5c-44 0 -78.833 -1.66699 -104.5 -5s-45.167 -7 -58.5 -11v-470zM228.002 233.006c18.667 -4.66699 41.167 -7.66699 67.5 -9s55.833 -2 88.5 -2c44 0 87.5 4.16699 130.5 12.5s81.5 23 115.5 44s61.333 49.333 82 85s31 81.167 31 136.5
c0 48.667 -9.33301 90.5 -28 125.5s-43.834 63.833 -75.501 86.5s-68.667 39.167 -111 49.5s-87.166 15.5 -134.499 15.5h-166v-544z" />
    <glyph glyph-name="C" unicode="C" horiz-adv-x="1062" 
d="M1003 207c-30.667 -18.667 -76.3359 -35.335 -137.003 -50.002s-131.667 -22 -213 -22c-75.333 0 -148.333 13 -219 39s-133.5 65.333 -188.5 118s-99.167 119 -132.5 199s-50 174 -50 282c0 54 6 107.5 18 160.5s29.833 103.5 53.5 151.5s53.334 92.667 89.001 134
s77 77 124 107s99.667 53.5 158 70.5s122.5 25.5 192.5 25.5c42.667 0 80.5 -2.33301 113.5 -7s61.833 -10.167 86.5 -16.5s45.334 -13.166 62.001 -20.499s30 -13.666 40 -18.999l-26 -76c-34 18.667 -74.667 33.834 -122 45.501s-97 17.5 -149 17.5
c-90.667 0 -170.5 -14.5 -239.5 -43.5s-126.833 -69.333 -173.5 -121s-82 -112.834 -106 -183.501s-36 -148 -36 -232c0 -76.667 11.333 -148.667 34 -216s56.5 -126 101.5 -176s101 -89.5 168 -118.5s144.5 -43.5 232.5 -43.5c54.667 0 107.834 5.83301 159.501 17.5
s96.5 28.167 134.5 49.5z" />
    <glyph glyph-name="D" unicode="D" horiz-adv-x="1201" 
d="M146 1383c50 7.33301 102.669 13.834 158.002 19.501s114.333 8.5 177 8.5c120 0 224 -17.167 312 -51.5s158 -83.833 210 -148.5c47.333 -56 81.666 -117.333 102.999 -184s32 -140.334 32 -221.001c0 -35.333 -2.66699 -72.333 -8 -111s-14 -77.667 -26 -117
s-27.833 -78 -47.5 -116s-43.834 -74.333 -72.501 -109c-54 -64.667 -127.167 -115.167 -219.5 -151.5s-201.833 -54.5 -328.5 -54.5c-50.667 0 -99.5 0.5 -146.5 1.5s-94.833 3.83301 -143.5 8.5v1226zM228.002 233.001c26 -4.66699 58.1689 -7.66699 96.502 -9
s79.833 -2 124.5 -2c106 0 197.167 15.167 273.5 45.5s139.333 71.833 189 124.5s86.167 114.5 109.5 185.5s35 146.833 35 227.5c0.666992 76 -10 146.333 -32 211s-56.833 120.667 -104.5 168s-108.334 84.5 -182.001 111.5s-161.5 40.5 -263.5 40.5
c-54 0 -101.333 -2.5 -142 -7.5s-75.334 -10.833 -104.001 -17.5v-1078z" />
    <glyph glyph-name="E" unicode="E" horiz-adv-x="848" 
d="M724 775h-496v-542h553v-76h-635v1242h607v-75h-525v-474h496v-75z" />
    <glyph glyph-name="F" unicode="F" horiz-adv-x="846" 
d="M146 1399h607v-75h-525v-488h480v-76h-480v-603h-82v1242z" />
    <glyph glyph-name="G" unicode="G" horiz-adv-x="1151" 
d="M1047 220l-59 -22c-23.333 -8.66699 -50.833 -17 -82.5 -25s-67 -14.667 -106 -20s-81.833 -8 -128.5 -8c-84.667 0 -164.5 13.333 -239.5 40s-143.5 72 -205.5 136c-24.667 26 -47 55.667 -67 89s-37.167 69.666 -51.5 108.999s-25.333 80.833 -33 124.5
s-11.5 89.167 -11.5 136.5c0 48.667 5.66699 98.167 17 148.5s28.5 98.833 51.5 145.5s52.167 90.667 87.5 132s77 77.333 125 108s102.667 54.834 164 72.501s129.333 26.5 204 26.5c34.667 0 67.667 -2.16699 99 -6.5s59.833 -9.66602 85.5 -15.999
s48.167 -13.166 67.5 -20.499s34.666 -14 45.999 -20l-26 -74c-34.667 17.333 -74.167 31.833 -118.5 43.5s-96.833 17.5 -157.5 17.5c-91.333 0 -172 -14.833 -242 -44.5s-128.5 -69.834 -175.5 -120.501s-82.5 -110 -106.5 -178s-36 -140.333 -36 -217
c0 -80.667 12 -155 36 -223s59 -126.833 105 -176.5s102.5 -88.334 169.5 -116.001s143.167 -41.5 228.5 -41.5c68.667 0 125.834 4.83301 171.501 14.5s81.5 22.167 107.5 37.5v425h-289v74h370v-551z" />
    <glyph glyph-name="H" unicode="H" horiz-adv-x="1154" 
d="M228 1399v-543h699v543h81v-1242h-81v623h-699v-623h-82v1242h82z" />
    <glyph glyph-name="I" unicode="I" horiz-adv-x="373" 
d="M228 1399v-1242h-82v1242h82z" />
    <glyph glyph-name="J" unicode="J" horiz-adv-x="627" 
d="M413 1399h81.001v-836c0 -57.333 -4.33301 -107.833 -13 -151.5s-20.5 -81.334 -35.5 -113.001s-33 -58 -54 -79s-43.5 -37.833 -67.5 -50.5s-49.167 -21.5 -75.5 -26.5s-52.833 -7.5 -79.5 -7.5c-14.667 0 -29.834 1 -45.501 3s-30.667 4.83301 -45 8.5
s-27.5 7.5 -39.5 11.5s-21.667 8 -29 12l20 74c15.333 -8.66699 34.833 -16.167 58.5 -22.5s50.5 -9.5 80.5 -9.5c38.667 0 73.167 5.83301 103.5 17.5s55.833 31.834 76.5 60.501s36.5 67 47.5 115s16.5 108.667 16.5 182v812z" />
    <glyph glyph-name="K" unicode="K" horiz-adv-x="895" 
d="M146 1399h82v-635h6c16.667 24 33.667 46.167 51 66.5l51 58.5l445 510h104l-472 -528l521 -714h-102l-476 657l-128 -144v-513h-82v1242z" />
    <glyph glyph-name="L" unicode="L" horiz-adv-x="814" 
d="M146 1399h82v-1166h553v-76h-635v1242z" />
    <glyph glyph-name="M" unicode="M" horiz-adv-x="1402" 
d="M1179 743l-8.5 146.997l-8.5 151.5c-2.66699 49.667 -4.83398 96.834 -6.50098 141.501s-2.5 83.667 -2.5 117h-4l-74.5 -211l-92.5 -253l-258 -679h-63l-242 669l-90.5 260c-25.667 76.667 -47.5 148 -65.5 214h-5c-1.33301 -36 -2.66602 -76.5 -3.99902 -121.5
s-3 -92.667 -5 -143s-4.5 -102 -7.5 -155s-6.83301 -104.833 -11.5 -155.5l-39 -568h-80l90 1242h92l269 -740l75.5 -214.5c21.667 -64.333 40.834 -124.833 57.501 -181.5h3c15.333 52.667 34.166 110.834 56.499 174.501s49.5 136.834 81.5 219.501l282 742h96l79 -1242
h-79z" />
    <glyph glyph-name="N" unicode="N" horiz-adv-x="1171" 
d="M146 157l-0.00195312 1242h76l506 -765l71 -106.5l59.5 -91.5l51.5 -83c16 -26.667 31.333 -53.667 46 -81l3 3c-6.66699 72 -10.667 146.667 -12 224s-2 164 -2 260v640h80v-1242h-74l-490 739l-134 205c-41.333 64 -77 124.333 -107 181l-5 -4
c2.66699 -35.333 4.83398 -70.333 6.50098 -105s2.83398 -70.334 3.50098 -107.001s1 -75.167 1 -115.5v-129.5v-664h-80z" />
    <glyph glyph-name="O" unicode="O" horiz-adv-x="1249" 
d="M619 135c-80 0 -153.831 15.6641 -221.498 46.9971s-126.334 74.833 -176.001 130.5s-88.5 121.834 -116.5 198.501s-42 160.334 -42 251.001c0 98 14.5 187.5 43.5 268.5s69 150.5 120 208.5s111 103 180 135s143.5 48 223.5 48c82 0 157.167 -15.833 225.5 -47.5
s127 -75.5 176 -131.5s87 -122.167 114 -198.5s40.5 -159.166 40.5 -248.499c0 -108 -15.833 -203.167 -47.5 -285.5s-73.834 -151.333 -126.501 -207s-113 -97.667 -181 -126s-138.333 -42.5 -211 -42.5h-1zM622.002 208.997c74 0 140.669 14.6631 200.002 43.9961
s109.666 69.833 150.999 121.5s73.166 112.834 95.499 183.501s33.5 147 33.5 229c0 67.333 -10 134.5 -30 201.5s-49.833 127.167 -89.5 180.5s-89.167 96.5 -148.5 129.5s-128.333 49.5 -207 49.5c-80 0 -149.833 -16 -209.5 -48s-109.5 -74.833 -149.5 -128.5
s-70 -115.5 -90 -185.5s-30 -143.333 -30 -220c0 -73.333 10.833 -143.666 32.5 -210.999s53 -126.666 94 -177.999s90.5 -92.166 148.5 -122.499s123.667 -45.5 197 -45.5h2z" />
    <glyph glyph-name="P" unicode="P" horiz-adv-x="909" 
d="M146 1387c36 6.66699 76.1699 12.333 120.503 17s92.5 7 144.5 7c76 0 140.333 -9.5 193 -28.5s96 -46.5 130 -82.5c30 -30 52.5 -64.833 67.5 -104.5s22.5 -85.5 22.5 -137.5c0 -106.667 -28.667 -191.667 -86 -255c-38.667 -46 -88.334 -80 -149.001 -102
s-128.334 -33 -203.001 -33c-28.667 0 -56.334 1 -83.001 3s-51.667 7.33301 -75 16v-530h-82v1230zM228.003 765.999c23.333 -8.66699 49.167 -14.668 77.5 -18.001s58.5 -5 90.5 -5c112 0 197.833 26.833 257.5 80.5s89.5 128.5 89.5 224.5
c0 53.333 -8.83301 98.333 -26.5 135s-41.667 66.334 -72 89.001s-65.833 39 -106.5 49s-83.667 15 -129 15c-42 0 -78.5 -2 -109.5 -6s-54.833 -8 -71.5 -12v-552z" />
    <glyph glyph-name="Q" unicode="Q" horiz-adv-x="1249" 
d="M1174 -10c-84.667 19.333 -168 39.999 -250 61.999s-158.333 43.667 -229 65c-12.667 3.33301 -24.5 7.16602 -35.5 11.499s-22.833 6.5 -35.5 6.5c-78 2.66699 -151 19 -219 49s-127.333 71.833 -178 125.5s-90.667 118.5 -120 194.5s-44 161.333 -44 256
c0 99.333 14.5 189.666 43.5 270.999s69 151 120 209s111.167 102.833 180.5 134.5s144.333 47.5 225 47.5c81.333 0 156 -15.833 224 -47.5s126.5 -75.5 175.5 -131.5s87 -122.167 114 -198.5s40.5 -159.166 40.5 -248.499c0 -84 -9.83301 -160.5 -29.5 -229.5
s-47.167 -130 -82.5 -183s-77.5 -97.667 -126.5 -134s-103.167 -64.166 -162.5 -83.499v-7c36 -7.33301 72.333 -15.166 109 -23.499l108.5 -24c35.667 -7.66699 70 -14.667 103 -21s63.833 -11.5 92.5 -15.5zM620 208.999c74 0 140.667 14.667 200 44
s109.833 69.833 151.5 121.5s73.834 112.834 96.501 183.501s34 147 34 229c0 67.333 -10 134.5 -30 201.5s-49.667 127.167 -89 180.5s-88.333 96.5 -147 129.5s-126.667 49.5 -204 49.5c-80.667 0 -151.334 -16.167 -212.001 -48.5s-111.167 -75.5 -151.5 -129.5
s-70.5 -116.333 -90.5 -187s-30 -144.334 -30 -221.001c0 -73.333 11 -143.5 33 -210.5s53.333 -125.833 94 -176.5s90 -91 148 -121s123.333 -45 196 -45h1z" />
    <glyph glyph-name="R" unicode="R" horiz-adv-x="911" 
d="M146 1383c18.667 4.66699 39.167 8.83496 61.5 12.502s45.5 6.66699 69.5 9s48.167 4 72.5 5s47.166 1.5 68.499 1.5c80 0 146 -9.33301 198 -28s95 -46.334 129 -83.001c24 -24.667 43.167 -56.334 57.5 -95.001s21.5 -79.334 21.5 -122.001
c0 -41.333 -5.66699 -79.166 -17 -113.499s-27.166 -65 -47.499 -92s-44.5 -50.333 -72.5 -70s-59 -35.5 -93 -47.5v-3c45.333 -17.333 82.833 -48.333 112.5 -93s51.167 -98 64.5 -160l29 -129.5l23.5 -97c7 -27.667 13.667 -51.167 20 -70.5s12.5 -36 18.5 -50h-86
c-9.33301 18 -20.333 52.833 -33 104.5s-26.667 116.5 -42 194.5c-17.333 88.667 -46.5 155 -87.5 199s-98.833 68 -173.5 72h-212v-570h-82v1226zM228 801.001h215c46 0 87.5 6.5 124.5 19.5s68.5 31.167 94.5 54.5s46 51.333 60 84s21 69 21 109
c0 50 -8.66699 92.167 -26 126.5s-40.666 62 -69.999 83s-63.833 36.167 -103.5 45.5s-81.834 14 -126.501 14c-46.667 0 -86 -2.16699 -118 -6.5s-55.667 -8.83301 -71 -13.5v-516z" />
    <glyph glyph-name="S" unicode="S" horiz-adv-x="838" 
d="M108 303c36.667 -28 78.3379 -50.332 125.005 -66.999s97 -25 151 -25c45.333 0 86.166 6.33301 122.499 19s67 30.5 92 53.5s44.167 50.333 57.5 82s20 66.834 20 105.501c0 35.333 -4.5 67.166 -13.5 95.499s-23.5 54 -43.5 77s-46 44 -78 63s-71.333 36.833 -118 53.5
c-56 20 -104 41.5 -144 64.5s-72.5 48.333 -97.5 76s-43.333 58.167 -55 91.5s-17.5 70.333 -17.5 111c0 45.333 8.33301 87.5 25 126.5s40.334 72.667 71.001 101s67.334 50.666 110.001 66.999s89.667 24.5 141 24.5c60 0 111 -6.66699 153 -20s74 -27.666 96 -42.999
l-32 -76c-8 6 -18.833 12.833 -32.5 20.5s-29.834 14.834 -48.501 21.501s-39.667 12.167 -63 16.5s-48.666 6.5 -75.999 6.5c-50.667 0 -92.834 -7.5 -126.501 -22.5s-60.667 -33.833 -81 -56.5s-34.833 -47.667 -43.5 -75s-13 -53.333 -13 -78
c0 -33.333 4.66699 -63.166 14 -89.499s24.166 -50.333 44.499 -72s46.333 -41.5 78 -59.5s70.167 -35.333 115.5 -52c50.667 -18.667 95.667 -38.667 135 -60s72.166 -46 98.499 -74s46.333 -60.5 60 -97.5s20.5 -80.833 20.5 -131.5c0 -43.333 -7.33301 -85.5 -22 -126.5
s-37.334 -77.833 -68.001 -110.5s-70 -58.834 -118 -78.501s-105.333 -29.5 -172 -29.5c-26 0 -53 2.16699 -81 6.5s-55.333 10.666 -82 18.999s-51.834 18.166 -75.501 29.499s-43.834 24 -60.501 38z" />
    <glyph glyph-name="T" unicode="T" horiz-adv-x="846" 
d="M383 1324h-416v75h913v-75h-416v-1167h-81v1167z" />
    <glyph glyph-name="U" unicode="U" horiz-adv-x="1146" 
d="M228 1399l-0.00195312 -715.999c0 -84.667 8.83301 -156.834 26.5 -216.501s41.667 -108.5 72 -146.5s65.833 -65.667 106.5 -83s84 -26 130 -26c52 0 99.833 9.16699 143.5 27.5s81.334 46.666 113.001 84.999s56.167 87.333 73.5 147s26 130.5 26 212.5v716h81v-709
c0 -100 -11.833 -185.167 -35.5 -255.5s-55.667 -127.666 -96 -171.999s-87.166 -76.666 -140.499 -96.999s-109.666 -30.5 -168.999 -30.5c-54.667 0 -106.834 9.5 -156.501 28.5s-93.5 50 -131.5 93s-68.333 99.167 -91 168.5s-34 154.666 -34 255.999v718h82z" />
    <glyph glyph-name="V" unicode="V" horiz-adv-x="904" 
d="M394 157l-406.999 1242h86l220 -683l82.5 -257c24.333 -75.333 45.166 -145.333 62.499 -210h3c19.333 66.667 42.833 138 70.5 214l90.5 251l249 685h88l-465 -1242h-80z" />
    <glyph glyph-name="W" unicode="W" horiz-adv-x="1462" 
d="M336 157l-316.999 1242h82l178 -712l55.5 -229c18.333 -72 33.5 -134.667 45.5 -188h3c10.667 51.333 26.167 113 46.5 185l66.5 232l205 712h80l181 -711l28 -113.5l27 -111.5c8.66699 -36 16.5 -70.5 23.5 -103.5s12.833 -62.833 17.5 -89.5h4
c12.667 58.667 28.667 121.667 48 189l64 226l207 714h83l-369 -1242h-80l-181 712l-33.5 133l-26 111.5c-7.66699 34.333 -14.334 66.333 -20.001 96s-10.5 58.167 -14.5 85.5h-4c-4.66699 -27.333 -10.5 -55.5 -17.5 -84.5s-15.167 -60.5 -24.5 -94.5l-31.5 -110.5
l-38.5 -132.5l-209 -716h-79z" />
    <glyph glyph-name="X" unicode="X" horiz-adv-x="995" 
d="M846 157l-186 294.001l-56 89.5l-45.5 71.5l-37 59l-31.5 53h-4l-29 -53l-34 -59l-43.5 -71.5l-56.5 -91.5l-174 -292h-96l392 629l-376 613h97l199 -334l72.5 -121.5l56.5 -96.5h4c18 31.333 37.667 63.666 59 96.999l75 119l212 336h98l-401 -607l401 -635h-96z" />
    <glyph glyph-name="Y" unicode="Y" horiz-adv-x="897" 
d="M411 157v530.999l-391 711h92l207 -387l74.5 -133.5c21.667 -40.333 42.5 -82.166 62.5 -125.499h3c18.667 40 39.5 81.167 62.5 123.5l76.5 135.5l218 387h93l-417 -714v-528h-81z" />
    <glyph glyph-name="Z" unicode="Z" horiz-adv-x="1003" 
d="M61 219l765 1099v6h-701v75h809v-62l-767 -1099v-5h778v-76h-884v62z" />
    <glyph glyph-name="bracketleft" unicode="[" horiz-adv-x="553" 
d="M184 -330v1880h379v-78h-287v-1725h287v-77h-379z" />
    <glyph glyph-name="backslash" unicode="\" horiz-adv-x="532" 
d="M434 150l-432 1362h104l426 -1362h-98z" />
    <glyph glyph-name="bracketright" unicode="]" horiz-adv-x="553" 
d="M369 1550v-1880h-379v77h286v1725h-286v78h379z" />
    <glyph glyph-name="asciicircum" unicode="^" horiz-adv-x="1221" 
d="M981 576l-369 838h-4l-368 -838h-97l420 930h94l420 -930h-96z" />
    <glyph glyph-name="underscore" unicode="_" horiz-adv-x="1024" 
d="M1024 21v-102h-1024v102h1024z" />
    <glyph glyph-name="grave" unicode="`" horiz-adv-x="614" 
d="M211 1592l186 -287h-78l-260 287h152z" />
    <glyph glyph-name="a" unicode="a" horiz-adv-x="823" 
d="M690 372c0 -36 0.842773 -71.8369 2.50977 -107.504s5.16699 -71.5 10.5 -107.5h-75l-12 137h-4c-10 -17.333 -23.833 -35.333 -41.5 -54s-38.834 -35.834 -63.501 -51.501s-52.334 -28.5 -83.001 -38.5s-64.334 -15 -101.001 -15c-45.333 0 -84 7.66699 -116 23
s-58.333 35 -79 59s-35.667 50.333 -45 79s-14 56.334 -14 83.001c0 50 10.667 95.333 32 136s54.166 75.334 98.499 104.001s100.5 50.334 168.5 65.001s148.333 21.667 241 21v20c0 11.333 -0.666992 25.833 -2 43.5s-4.5 36.167 -9.5 55.5s-12.333 38.833 -22 58.5
s-22.834 37.334 -39.501 53.001s-37.5 28.5 -62.5 38.5s-55.167 15 -90.5 15c-40 0 -79.667 -5.83301 -119 -17.5s-76 -30.5 -110 -56.5l-26 64c43.333 32.667 88.166 55.167 134.499 67.5s88.833 18.5 127.5 18.5c44.667 0 83.167 -6 115.5 -18
s59.666 -27.833 81.999 -47.5s40.166 -42.5 53.499 -68.5s23.666 -52.833 30.999 -80.5s12.166 -55.167 14.499 -82.5s3.5 -52.666 3.5 -75.999v-320zM609.01 628.996c-34.667 1.33301 -70 1.16504 -106 -0.501953s-70.833 -5.5 -104.5 -11.5s-65.167 -14.5 -94.5 -25.5
s-54.833 -25.333 -76.5 -43s-38.834 -39.167 -51.501 -64.5s-19 -55 -19 -89c0 -31.333 4.66699 -58.666 14 -81.999s22 -42.666 38 -57.999s34.333 -26.833 55 -34.5s42.667 -11.5 66 -11.5c38.667 0 72.834 5.66699 102.501 17s55.5 25.833 77.5 43.5
s40.167 37.167 54.5 58.5s25.5 42 33.5 62c4 9.33301 6.83301 18.333 8.5 27s2.5 16.667 2.5 24v188z" />
    <glyph glyph-name="b" unicode="b" horiz-adv-x="1016" 
d="M146 1477l82 0.00195312v-618h2c14 29.333 31.333 56.666 52 81.999s44.834 47.166 72.501 65.499s58.667 32.666 93 42.999s72.5 15.5 114.5 15.5c58.667 0 111.5 -12 158.5 -36s87.167 -56.5 120.5 -97.5s59 -89 77 -144s27 -113.167 27 -174.5
c0 -78 -11.333 -146.833 -34 -206.5s-52.5 -109.667 -89.5 -150s-79.333 -70.666 -127 -90.999s-96.167 -30.5 -145.5 -30.5c-70 0 -132.333 14.833 -187 44.5s-101.334 79.167 -140.001 148.5h-3l-5 -171h-75c3.33301 36 5.33301 71.833 6 107.5s1 71.5 1 107.5v1105z
M228 509.002c0 -10.667 0.499023 -21.832 1.49902 -33.499s3.16699 -23.167 6.5 -34.5c8 -30.667 21 -60 39 -88s40 -52.667 66 -74s55.5 -38.333 88.5 -51s68.5 -19 106.5 -19c50 0 95.333 9.5 136 28.5s75.167 46 103.5 81s50.166 77 65.499 126s23 103.833 23 164.5
c0 51.333 -7.33301 100.166 -22 146.499s-35.667 87 -63 122s-60.666 62.667 -99.999 83s-83.666 30.5 -132.999 30.5c-32.667 0 -64.834 -5.16699 -96.501 -15.5s-61.167 -25.833 -88.5 -46.5s-51.5 -46.5 -72.5 -77.5s-37.167 -67.167 -48.5 -108.5
c-3.33301 -10.667 -6.16602 -22.5 -8.49902 -35.5s-3.5 -28.167 -3.5 -45.5v-153z" />
    <glyph glyph-name="c" unicode="c" horiz-adv-x="826" 
d="M760 200c-8.66699 -4.66699 -21.1699 -10.667 -37.5029 -18s-35.833 -14.5 -58.5 -21.5s-48.5 -13 -77.5 -18s-60.5 -7.5 -94.5 -7.5c-63.333 0 -121 11.5 -173 34.5s-96.333 54.833 -133 95.5s-65 88.5 -85 143.5s-30 114.5 -30 178.5c0 74 11.667 140.5 35 199.5
s55.333 109.167 96 150.5s88.5 73 143.5 95s114.5 33 178.5 33c29.333 0 57 -2 83 -6s49.333 -9.16699 70 -15.5s38.667 -13.166 54 -20.499s27 -14.333 35 -21l-30 -74c-23.333 15.333 -52.666 29 -87.999 41s-79 18 -131 18c-59.333 0 -111.666 -10.167 -156.999 -30.5
s-83.333 -48 -114 -83s-54 -76.167 -70 -123.5s-24 -98 -24 -152c0 -58 8.83301 -110.667 26.5 -158s42.334 -87.833 74.001 -121.5s69 -59.834 112 -78.501s89.833 -28 140.5 -28c28 0 53.667 2.16699 77 6.5s44.5 9.5 63.5 15.5s36 12.5 51 19.5l39.5 18.5z" />
    <glyph glyph-name="d" unicode="d" horiz-adv-x="999" 
d="M853 1477l-0.00488281 -1105c0 -36 0.333008 -71.833 1 -107.5s2.33398 -71.5 5.00098 -107.5h-74l-5 185h-4c-11.333 -28 -26.666 -54.5 -45.999 -79.5s-42.5 -47 -69.5 -66s-57.833 -34 -92.5 -45s-72.667 -16.5 -114 -16.5c-56 0 -107.5 11.667 -154.5 35
s-87.333 55.166 -121 95.499s-60 87.5 -79 141.5s-28.5 111.667 -28.5 173c-0.666992 72 9.33301 137.667 30 197s49.334 110.333 86.001 153s79.5 75.834 128.5 99.501s101.5 35.5 157.5 35.5c40.667 0 77.334 -5.5 110.001 -16.5s61.334 -24.833 86.001 -41.5
s45.167 -35 61.5 -55s28.833 -39 37.5 -57h3v582h82zM770.995 687c0 12.667 -0.834961 26.832 -2.50195 42.499s-4.16699 30.167 -7.5 43.5c-8.66699 30 -21.5 58.167 -38.5 84.5s-37.667 49.5 -62 69.5s-52.166 35.667 -83.499 47s-65.666 17 -102.999 17
c-47.333 0 -90.666 -9.66699 -129.999 -29s-73.333 -46.5 -102 -81.5s-50.834 -77.167 -66.501 -126.5s-23.5 -104 -23.5 -164c0 -50 6.5 -97.833 19.5 -143.5s32.833 -86.167 59.5 -121.5s60.167 -63.5 100.5 -84.5s87.5 -31.5 141.5 -31.5c34 0 66.5 6.16699 97.5 18.5
s59.333 29.333 85 51s47.667 47.334 66 77.001s31.5 62.167 39.5 97.5c6.66699 22 10 47.667 10 77v157z" />
    <glyph glyph-name="e" unicode="e" horiz-adv-x="891" 
d="M150 600c0 -64.667 8.66699 -121.168 26 -169.501s41.333 -88.666 72 -120.999s66.5 -56.666 107.5 -72.999s85.167 -24.5 132.5 -24.5c34 0 64.167 1.66699 90.5 5s49.5 7.66602 69.5 12.999s37.667 11.333 53 18s29.333 13.334 42 20.001l22 -72l-33.5 -15.5
c-15 -7 -34.167 -13.833 -57.5 -20.5s-51 -12.5 -83 -17.5s-69 -7.5 -111 -7.5c-62 0 -118.167 11 -168.5 33s-93.333 52.833 -129 92.5s-63.167 86.5 -82.5 140.5s-29 113 -29 177c0 74.667 10.167 142.167 30.5 202.5s48.333 111.5 84 153.5s77.834 74.333 126.501 97
s101.334 34 158.001 34c49.333 0 92 -7.33301 128 -22s66.833 -33.834 92.5 -57.501s46.667 -50.5 63 -80.5s29.166 -60.167 38.499 -90.5s15.666 -59.5 18.999 -87.5s5 -52 5 -72v-32.5c0 -7.66699 -0.666992 -15.167 -2 -22.5h-664zM732 670.999
c0 15.333 -1.16602 34.002 -3.49902 56.002s-6.83301 44.833 -13.5 68.5s-16.334 47.167 -29.001 70.5s-29 44.333 -49 63s-44.667 33.667 -74 45s-64 17 -104 17c-50.667 0 -94.167 -10.333 -130.5 -31s-66.5 -46.834 -90.5 -78.501s-42.5 -66.334 -55.5 -104.001
s-21.5 -73.167 -25.5 -106.5h575z" />
    <glyph glyph-name="f" unicode="f" horiz-adv-x="473" 
d="M146 157l-0.000976562 813h-121v72h121v42c0 76.667 7.5 142.834 22.5 198.501s39.5 101.5 73.5 137.5c25.333 25.333 53.833 44.833 85.5 58.5s66.167 20.5 103.5 20.5c29.333 0 55.333 -3.33301 78 -10s40.334 -14.334 53.001 -23.001l-26 -70
c-12.667 7.33301 -27.5 13.833 -44.5 19.5s-39.167 8.5 -66.5 8.5c-40.667 0 -73.834 -9.16699 -99.501 -27.5s-45.667 -43 -60 -74s-24.166 -67 -29.499 -108s-8 -83.833 -8 -128.5v-44h233v-72h-233v-813h-82z" />
    <glyph glyph-name="g" unicode="g" horiz-adv-x="999" 
d="M853 288c0 -54 -3 -102.331 -9 -144.998s-14.333 -80.667 -25 -114s-23.5 -62.5 -38.5 -87.5s-31.833 -46.833 -50.5 -65.5c-20.667 -21.333 -43.334 -38.833 -68.001 -52.5s-50.167 -24.834 -76.5 -33.501s-52.666 -14.667 -78.999 -18s-51.5 -5 -75.5 -5
c-24.667 0 -50.167 1.83301 -76.5 5.5s-52 9 -77 16s-48.667 16 -71 27s-41.833 23.5 -58.5 37.5l29 72c32.667 -23.333 70.834 -43.166 114.501 -59.499s94.834 -24.5 153.501 -24.5c47.333 0 91 7 131 21s74.5 36 103.5 66s51.5 68.833 67.5 116.5s24 105.167 24 172.5
v129h-3c-11.333 -24 -26.5 -47.333 -45.5 -70s-41.667 -42.834 -68 -60.501s-56.5 -31.834 -90.5 -42.501s-71.667 -16 -113 -16c-56.667 0 -108.334 12 -155.001 36s-86.667 56 -120 96s-59.166 86 -77.499 138s-27.5 106 -27.5 162c0 74 11.167 140.5 33.5 199.5
s52.166 109 89.499 150s79.833 72.333 127.5 94s97.167 32.5 148.5 32.5c44 0 82.833 -5.83301 116.5 -17.5s63 -26.5 88 -44.5s45.833 -38 62.5 -60s29.667 -43.667 39 -65h4l5 164h74c-2.66699 -36 -4.33398 -71.667 -5.00098 -107s-1 -71 -1 -107v-540zM771 687.002
c0 17.333 -0.668945 33.498 -2.00195 48.498s-4.33301 29.167 -9 42.5c-10 29.333 -23.5 57 -40.5 83s-37.5 48.667 -61.5 68s-51 34.5 -81 45.5s-63 16.5 -99 16.5c-48 0 -91.833 -9.33301 -131.5 -28s-74 -45.167 -103 -79.5s-51.5 -75.5 -67.5 -123.5
s-24 -101.333 -24 -160c0 -44 6.33301 -88 19 -132s32.167 -83.5 58.5 -118.5s59.833 -63.5 100.5 -85.5s88.667 -33 144 -33c32 0 62.5 5.33301 91.5 16s55.833 25.334 80.5 44.001s46.334 41 65.001 67s33.334 54.333 44.001 85c5.33301 14 9.33301 29.333 12 46
s4 33.334 4 50.001v148z" />
    <glyph glyph-name="h" unicode="h" horiz-adv-x="980" 
d="M146 1477h81.999v-614h2c13.333 28.667 30.166 55.5 50.499 80.5s44.5 46.167 72.5 63.5c26 17.333 54.167 31.333 84.5 42s61.833 16 94.5 16c12.667 0 29.167 -1.5 49.5 -4.5s42 -9.16699 65 -18.5s46.167 -23 69.5 -41s44.333 -42 63 -72
s33.834 -66.833 45.501 -110.5s17.5 -95.834 17.5 -156.501v-505h-81v502c0 42.667 -4.33301 83.667 -13 123s-23 74 -43 104s-45.833 54 -77.5 72s-70.5 27 -116.5 27c-32 0 -62.167 -5.66699 -90.5 -17s-54.333 -26.666 -78 -45.999s-44.167 -41.5 -61.5 -66.5
s-31 -51.167 -41 -78.5c-5.33301 -14 -8.66602 -28 -9.99902 -42s-2 -31.333 -2 -52v-526h-82v1320z" />
    <glyph glyph-name="i" unicode="i" horiz-adv-x="373" 
d="M146 157v885h82v-885h-82zM184 1225c-19.333 0 -35.001 8.16699 -47.001 24.5s-18 34.5 -18 54.5c0 20.667 6.5 39 19.5 55s29.167 24 48.5 24s35.333 -7.83301 48 -23.5s19 -34.167 19 -55.5c0 -20 -6.16699 -38.167 -18.5 -54.5s-29.166 -24.5 -50.499 -24.5h-1z" />
    <glyph glyph-name="j" unicode="j" horiz-adv-x="382" 
d="M-96 -159c82.667 2 144.002 26 184.002 72c11.333 14 21.166 29.667 29.499 47s15.166 39.833 20.499 67.5s9.33301 62.334 12 104.001s4 93.834 4 156.501v754h82v-820c0 -76.667 -6.16699 -144.334 -18.5 -203.001s-36.833 -110.334 -73.5 -155.001
c-15.333 -18.667 -33.5 -34.167 -54.5 -46.5s-42.333 -22.333 -64 -30s-42.5 -13 -62.5 -16s-37 -4.5 -51 -4.5zM193.002 1225c-20.667 0 -36.667 8.16699 -48 24.5s-17 34.5 -17 54.5c0 20.667 6.5 39 19.5 55s29.833 24 50.5 24c19.333 0 35 -8 47 -24s18 -34.333 18 -55
c0 -20 -6 -38.167 -18 -54.5s-29 -24.5 -51 -24.5h-1z" />
    <glyph glyph-name="k" unicode="k" horiz-adv-x="760" 
d="M228 616h2c11.333 14.667 25.333 31.5 42 50.5l47 51.5l309 324h104l-356 -364l407 -521h-101l-363 468l-91 -97v-371h-82v1320h82v-861z" />
    <glyph glyph-name="l" unicode="l" horiz-adv-x="373" 
d="M146 1477h82v-1320h-82v1320z" />
    <glyph glyph-name="m" unicode="m" horiz-adv-x="1488" 
d="M146 828c0 36 -0.332031 71.6611 -0.999023 106.994s-2.66699 71 -6 107h76l7 -171h4c14 27.333 30 52.833 48 76.5s38.5 44.167 61.5 61.5s49.167 31 78.5 41s62.333 15 99 15c31.333 0 60.333 -5.66699 87 -17s50.667 -26.666 72 -45.999s39.666 -41.833 54.999 -67.5
s27.333 -52.5 36 -80.5h3c11.333 27.333 24.333 51.166 39 71.499s29.667 37.5 45 51.5c14 14 28.5 26.333 43.5 37s31.167 19.834 48.5 27.501s36.166 13.5 56.499 17.5s42.833 6 67.5 6c12.667 0 28.5 -1.66699 47.5 -5s39 -10.166 60 -20.499
s42.167 -24.666 63.5 -42.999s40.5 -42.833 57.5 -73.5s30.833 -68.167 41.5 -112.5s16 -97.166 16 -158.499v-495h-81v493c0 112 -20.5 196.167 -61.5 252.5s-97.833 84.5 -170.5 84.5c-28 0 -54.333 -5.16699 -79 -15.5s-47 -23.833 -67 -40.5s-37.5 -35.667 -52.5 -57
s-26.833 -43.333 -35.5 -66c-4 -12 -7.66699 -25.167 -11 -39.5s-5 -29.833 -5 -46.5v-565h-81v539c0 43.333 -5.16699 82.833 -15.5 118.5s-25 66.334 -44 92.001s-41.833 45.5 -68.5 59.5s-56.667 21 -90 21c-30 0 -58.333 -6.16699 -85 -18.5
s-50.667 -28.166 -72 -47.499s-39.666 -41.166 -54.999 -65.499s-27.333 -48.833 -36 -73.5c-9.33301 -24.667 -14 -53.334 -14 -86.001v-539h-82v671z" />
    <glyph glyph-name="n" unicode="n" horiz-adv-x="980" 
d="M146 828c0 36 -0.333984 71.667 -1.00098 107s-2.66699 71 -6 107h76l7 -177h4c12 27.333 27.833 53.166 47.5 77.499s42.5 45.5 68.5 63.5s55 32.333 87 43s66.333 16 103 16c12 0 28.167 -1.5 48.5 -4.5s42 -9.16699 65 -18.5s46.167 -23 69.5 -41s44.333 -42 63 -72
s34 -66.833 46 -110.5s18 -96.167 18 -157.5v-504h-81v504c0 43.333 -4.5 84.666 -13.5 123.999s-23.5 74 -43.5 104s-45.833 53.833 -77.5 71.5s-70.167 26.5 -115.5 26.5c-32 0 -62.333 -5.66699 -91 -17s-54.834 -26.666 -78.501 -45.999s-44.167 -41.666 -61.5 -66.999
s-30.666 -52 -39.999 -80c-3.33301 -10.667 -6.16602 -23.167 -8.49902 -37.5s-3.5 -28.5 -3.5 -42.5v-540h-82v671z" />
    <glyph glyph-name="o" unicode="o" horiz-adv-x="980" 
d="M481 135c-59.333 0 -113.999 11.3311 -163.999 33.998s-93.167 54.334 -129.5 95.001s-64.833 88.834 -85.5 144.501s-31 116.167 -31 181.5c0 74 11.5 140.333 34.5 199s53.833 108.5 92.5 149.5s83.5 72.333 134.5 94s104.167 32.5 159.5 32.5
c64 0 121.833 -11.833 173.5 -35.5s95.5 -56 131.5 -97s63.667 -89.167 83 -144.5s29 -114.333 29 -177c0 -83.333 -13.167 -154.833 -39.5 -214.5s-60 -109 -101 -148s-86.833 -67.667 -137.5 -86s-100.334 -27.5 -149.001 -27.5h-1zM486.001 208.998
c44 0 86.4971 8.66699 127.497 26s77.333 42.833 109 76.5s57.167 75.167 76.5 124.5s29 106 29 170c0 42 -6.5 85.667 -19.5 131s-33.167 86.833 -60.5 124.5s-62.166 68.667 -104.499 93s-92.833 36.5 -151.5 36.5c-56 0 -105.333 -11 -148 -33
s-78.167 -51.167 -106.5 -87.5s-49.666 -78.333 -63.999 -126s-21.5 -97.167 -21.5 -148.5c0 -62 9.33301 -117 28 -165s43.334 -88.5 74.001 -121.5s66 -58 106 -75s81.333 -25.5 124 -25.5h2z" />
    <glyph glyph-name="p" unicode="p" horiz-adv-x="1016" 
d="M146 757c0 48 -0.333008 95.499 -1 142.499s-2.66699 94.5 -6 142.5h78l6 -184h5c14.667 30 32.5 57.5 53.5 82.5s45.333 46.833 73 65.5s58.834 33.167 93.501 43.5s72.667 15.5 114 15.5c58.667 0 111.5 -12 158.5 -36s87.167 -56.333 120.5 -97s59 -88.167 77 -142.5
s27 -111.5 27 -171.5c0 -77.333 -10.833 -146 -32.5 -206s-50.834 -110.5 -87.501 -151.5s-79.334 -72.167 -128.001 -93.5s-100 -32 -154 -32c-31.333 0 -62.166 3.66699 -92.499 11s-59 18.5 -86 33.5s-52 33.833 -75 56.5s-42.833 49.334 -59.5 80.001h-2v-528h-82v969z
M228 512.999c0 -12 0.500977 -23.8369 1.50098 -35.5039s3.16699 -23.167 6.5 -34.5c8 -31.333 21.167 -61.166 39.5 -89.499s40.5 -53.166 66.5 -74.499s55.5 -38.333 88.5 -51s68.167 -19 105.5 -19c50 0 95.333 9.5 136 28.5s75.167 46.167 103.5 81.5
s50.166 78 65.499 128s23 106 23 168c0 50 -7.33301 97.667 -22 143s-35.667 85.333 -63 120s-60.666 62.167 -99.999 82.5s-83.666 30.5 -132.999 30.5c-33.333 0 -65.833 -5.16699 -97.5 -15.5s-60.834 -25.666 -87.501 -45.999s-50.334 -45.666 -71.001 -75.999
s-36.667 -65.833 -48 -106.5c-3.33301 -12 -6.5 -24.833 -9.5 -38.5s-4.5 -26.5 -4.5 -38.5v-157z" />
    <glyph glyph-name="q" unicode="q" horiz-adv-x="995" 
d="M771 327h-2.99707c-11.333 -24.667 -26.333 -48.5 -45 -71.5s-41.167 -43.5 -67.5 -61.5s-56.5 -32.333 -90.5 -43s-71.333 -16 -112 -16c-56 0 -107.333 11.833 -154 35.5s-86.834 55.667 -120.501 96s-60 87.5 -79 141.5s-28.5 111.333 -28.5 172
c0 87.333 12.667 161.666 38 222.999s57.833 111.5 97.5 150.5s83.667 67.333 132 85s95.5 26.5 141.5 26.5c42 0 79.333 -5.83301 112 -17.5s61.167 -26.667 85.5 -45s44.666 -38.666 60.999 -60.999s28.833 -43.833 37.5 -64.5h4l5 165h74
c-2.66699 -36 -4.33398 -71.667 -5.00098 -107s-1 -71 -1 -107v-1040h-82v539zM771.003 688c0 33.333 -3.33008 62.334 -9.99707 87.001c-8.66699 28.667 -21.5 56 -38.5 82s-37.5 49 -61.5 69s-51.5 35.833 -82.5 47.5s-65.167 17.5 -102.5 17.5
c-47.333 0 -90.833 -9.33301 -130.5 -28s-73.834 -45.334 -102.501 -80.001s-51 -76.667 -67 -126s-24 -104.333 -24 -165c0 -48 6.16699 -95 18.5 -141s31.5 -87 57.5 -123s59 -64.833 99 -86.5s87.667 -32.5 143 -32.5c32 0 62.667 5.16699 92 15.5
s56.166 24.833 80.499 43.5s46 41 65 67s34.167 54.667 45.5 86c5.33301 13.333 9.66602 27.833 12.999 43.5s5 30.5 5 44.5v179z" />
    <glyph glyph-name="r" unicode="r" horiz-adv-x="530" 
d="M146 757c0 48 -0.333984 95.5 -1.00098 142.5s-2.66699 94.5 -6 142.5h75l3 -192h5c10 30.667 22.833 59.167 38.5 85.5s33.834 49.166 54.501 68.499s43.5 34.333 68.5 45s52.167 16 81.5 16c15.333 0 28.666 -2.33301 39.999 -7v-82
c-7.33301 1.33301 -14.833 2.16602 -22.5 2.49902s-16.167 0.5 -25.5 0.5c-27.333 0 -53 -6.16699 -77 -18.5s-45.667 -29.666 -65 -51.999s-35.666 -49.166 -48.999 -80.499s-23.333 -66 -30 -104c-3.33301 -13.333 -5.5 -27.5 -6.5 -42.5s-1.5 -30.167 -1.5 -45.5v-479
h-82v600z" />
    <glyph glyph-name="s" unicode="s" horiz-adv-x="677" 
d="M112 277c24.667 -16.667 54 -31.835 88 -45.502s71 -20.5 111 -20.5c34.667 0 64.834 4.66699 90.501 14s46.667 21.833 63 37.5s28.5 33.834 36.5 54.501s12 42.334 12 65.001c0 26 -4 48.833 -12 68.5s-19.833 37.334 -35.5 53.001s-35.167 29.5 -58.5 41.5
s-50.666 23.667 -81.999 35c-72.667 25.333 -126.834 58.333 -162.501 99s-53.5 87.334 -53.5 140.001c0 31.333 5.66699 61.666 17 90.999s28 55.5 50 78.5s49.333 41.5 82 55.5s70.667 21 114 21c38.667 0 74.334 -5.66699 107.001 -17s60.667 -25.666 84 -42.999l-31 -74
c-6 5.33301 -14.333 11.333 -25 18s-23.334 13 -38.001 19s-31.5 11 -50.5 15s-39.833 6 -62.5 6c-27.333 0 -51.333 -4.33301 -72 -13s-38 -20.334 -52 -35.001s-24.667 -31.5 -32 -50.5s-11 -38.833 -11 -59.5c0 -25.333 4.16699 -47 12.5 -65s20.333 -34 36 -48
s35 -26.5 58 -37.5s49.5 -21.833 79.5 -32.5c36.667 -14 68.5 -29 95.5 -45s49.5 -34.333 67.5 -55s31.5 -43.834 40.5 -69.501s13.5 -55.167 13.5 -88.5c0 -36 -6.5 -69.5 -19.5 -100.5s-31.667 -58 -56 -81s-54.333 -41 -90 -54s-76.167 -19.5 -121.5 -19.5
c-42.667 0 -82.834 6 -120.501 18s-71.5 27.667 -101.5 47z" />
    <glyph glyph-name="t" unicode="t" horiz-adv-x="562" 
d="M261 1237v-195h252v-72h-252v-566c0 -27.333 2 -52.666 6 -75.999s10.833 -43.5 20.5 -60.5s22.667 -30.5 39 -40.5s36.833 -15 61.5 -15c24 0 44.5 1.66699 61.5 5s31.167 7.33301 42.5 12l11 -70c-14.667 -6.66699 -32 -12.334 -52 -17.001s-43.667 -7 -71 -7
c-32 0 -60.5 5.5 -85.5 16.5s-45.833 27.833 -62.5 50.5c-19.333 25.333 -33 56.833 -41 94.5s-12 77.5 -12 119.5v554h-146v72h146v168z" />
    <glyph glyph-name="u" unicode="u" horiz-adv-x="972" 
d="M826 372c0 -36 0.334961 -71.834 1.00195 -107.501s2.33398 -71.5 5.00098 -107.5h-75l-6 180h-2c-12.667 -24.667 -28.334 -49.167 -47.001 -73.5s-40.834 -46 -66.501 -65s-55 -34.333 -88 -46s-69.5 -17.5 -109.5 -17.5c-15.333 0 -33.333 1.5 -54 4.5
s-42.167 9.33301 -64.5 19s-44.333 23.5 -66 41.5s-41 42.167 -58 72.5s-30.833 67.833 -41.5 112.5s-16 98.334 -16 161.001v496h81v-477c0 -52 4.16699 -99.5 12.5 -142.5s22 -80 41 -111s43.833 -55 74.5 -72s68 -25.5 112 -25.5c30 0 58.833 5 86.5 15s53 23.5 76 40.5
s43.167 36.833 60.5 59.5s31.333 47 42 73c5.33301 14 10.166 30 14.499 48s6.5 36.667 6.5 56v536h81v-670z" />
    <glyph glyph-name="v" unicode="v" horiz-adv-x="823" 
d="M111 1042l208.001 -545l49.5 -134.5l40.5 -116.5h4c13.333 39.333 28.166 79 44.499 119l51.5 132l213 545h85l-362 -885h-73l-349 885h88z" />
    <glyph glyph-name="w" unicode="w" horiz-adv-x="1300" 
d="M125 1042l146 -516l39.5 -146l33.5 -127h2c11.333 40 24.5 82 39.5 126l49.5 147l177 516h81l169 -514c18.667 -56 34.667 -106.333 48 -151l37 -124h4c9.33301 40 20.333 82 33 126s27.667 93 45 147l158 516h84l-289 -885h-73l-162 489l-53 162
c-16 51.333 -30 102.333 -42 153h-3c-13.333 -52 -28.5 -104.167 -45.5 -156.5l-54.5 -160.5l-174 -487h-73l-262 885h85z" />
    <glyph glyph-name="x" unicode="x" horiz-adv-x="780" 
d="M130 1042l152 -218.001l52 -75c16 -22.667 32.333 -47.334 49 -74.001h3c16.667 26.667 33.5 51.834 50.5 75.501l53.5 73.5l153 218h90l-306 -429l322 -456h-96l-159 225l-58 86l-54 82h-4c-16.667 -29.333 -34 -56.666 -52 -81.999l-59 -86l-156 -225h-95l324 454
l-304 431h94z" />
    <glyph glyph-name="y" unicode="y" horiz-adv-x="796" 
d="M103 1042l237.001 -591c12 -29.333 24 -60.833 36 -94.5s21.667 -64.167 29 -91.5h4l29.5 90c10.333 32.667 22.166 67 35.499 103l223 584h88l-282 -715l-77 -185c-23.333 -53.333 -46.333 -100 -69 -140s-45.334 -74.333 -68.001 -103s-47.334 -53.667 -74.001 -75
c-16.667 -14 -33 -25.833 -49 -35.5s-30.5 -17.667 -43.5 -24s-24.167 -11.166 -33.5 -14.499s-16 -5.33301 -20 -6l-21 76c20.667 6.66699 43.834 16.834 69.501 30.501s51.167 32.167 76.5 55.5c21.333 19.333 45.833 48.166 73.5 86.499s53.834 89.166 78.501 152.499
c6.66699 15.333 10 27 10 35s-3.66699 21.333 -11 40l-331 822h89z" />
    <glyph glyph-name="z" unicode="z" horiz-adv-x="730" 
d="M27 212l476.001 624l49.5 64.5c16.333 21 34.166 42.5 53.499 64.5v3h-545v74h644l-2 -63l-475 -623l-47 -61.5l-48 -59.5v-4h577v-74h-683v55z" />
    <glyph glyph-name="braceleft" unicode="{" horiz-adv-x="553" 
d="M45 802l12.9971 0.00488281c36.667 0 66.167 4.66699 88.5 14s39.5 21.5 51.5 36.5s19.833 32 23.5 51s5.5 38.167 5.5 57.5c0 30 -2 59.167 -6 87.5s-8.66699 57.5 -14 87.5c-6 28.667 -11.333 57 -16 85s-7 57 -7 87c0 46.667 7.83301 87.167 23.5 121.5
s37.334 62.666 65.001 84.999s60.5 38.833 98.5 49.5s79.667 16 125 16h26v-78h-39c-38 0 -70.167 -4.5 -96.5 -13.5s-47.666 -22.333 -63.999 -40s-28.166 -39.334 -35.499 -65.001s-11 -55.167 -11 -88.5c0 -26.667 2.16699 -53.334 6.5 -80.001s9.16602 -54 14.499 -82
c5.33301 -26.667 10 -53.167 14 -79.5s6 -53.5 6 -81.5c0 -24.667 -3.16699 -48 -9.5 -70s-15.333 -41.833 -27 -59.5s-25.5 -32.834 -41.5 -45.501s-33.667 -22 -53 -28v-4c19.333 -6 37 -15.667 53 -29s29.833 -29.166 41.5 -47.499s20.667 -38.666 27 -60.999
s9.5 -45.5 9.5 -69.5c0 -28 -2 -55.333 -6 -82s-8.66699 -53.334 -14 -80.001c-5.33301 -28 -10.166 -55.333 -14.499 -82s-6.5 -54 -6.5 -82c0 -139.333 69 -209 207 -209h39v-77h-26c-44 0 -85 5.16699 -123 15.5s-71 27.166 -99 50.499s-50 53.666 -66 90.999
s-24 83.333 -24 138c0 28 2.33301 55.5 7 82.5s10 53.833 16 80.5c5.33301 28 10 55.333 14 82s6 54 6 82c0 16.667 -1.83301 34.5 -5.5 53.5s-11.667 36.333 -24 52s-30 28.667 -53 39s-53.833 15.5 -92.5 15.5h-7v74z" />
    <glyph glyph-name="bar" unicode="|" horiz-adv-x="449" 
d="M268 1635v-2048h-88v2048h88z" />
    <glyph glyph-name="braceright" unicode="}" horiz-adv-x="553" 
d="M508 728l-8.00195 -0.00488281c-38 0 -68.5 -5.16699 -91.5 -15.5s-40.667 -23.333 -53 -39s-20.333 -33 -24 -52s-5.5 -36.833 -5.5 -53.5c0 -28 2.16699 -55.333 6.5 -82s9.5 -54 15.5 -82c5.33301 -26.667 10.166 -53.5 14.499 -80.5s6.5 -54.5 6.5 -82.5
c0 -54.667 -8 -100.667 -24 -138s-38 -67.666 -66 -90.999s-61 -40.166 -99 -50.499s-79 -15.5 -123 -15.5h-26v77h39c137.333 0 206 69.667 206 209c0 28 -2 55.333 -6 82s-8.66699 54 -14 82c-5.33301 26.667 -10 53.334 -14 80.001s-6 54 -6 82
c0 24 3.16699 47.167 9.5 69.5s15.166 42.666 26.499 60.999s25.166 34.166 41.499 47.499s34.166 23 53.499 29v4c-19.333 6 -37.166 15.333 -53.499 28s-30.166 27.834 -41.499 45.501s-20.166 37.5 -26.499 59.5s-9.5 45.333 -9.5 70c0 28 2 55.167 6 81.5
s8.66699 52.833 14 79.5c5.33301 28 10 55.333 14 82s6 53.334 6 80.001c0 33.333 -3.5 62.833 -10.5 88.5s-18.667 47.334 -35 65.001s-37.666 31 -63.999 40s-58.5 13.5 -96.5 13.5h-39v78h26c44.667 0 86.167 -5.33301 124.5 -16s71.333 -27.167 99 -49.5
s49.334 -50.666 65.001 -84.999s23.5 -74.833 23.5 -121.5c0 -30 -2.16699 -59 -6.5 -87s-9.16602 -56.333 -14.499 -85c-6 -30 -11.167 -59.167 -15.5 -87.5s-6.5 -57.5 -6.5 -87.5c0 -19.333 1.83301 -38.5 5.5 -57.5s11.5 -36 23.5 -51s29 -27.167 51 -36.5
s51.667 -14 89 -14h13v-74z" />
    <glyph glyph-name="asciitilde" unicode="~" horiz-adv-x="1221" 
d="M86 471c-0.666992 3.33301 -1 6.99902 -1 10.999v11c0 40 6.33301 75.667 19 107s29.667 57.833 51 79.5s45.666 38.167 72.999 49.5s55.666 17 84.999 17c20.667 0 40 -1.5 58 -4.5s38 -8.16699 60 -15.5s47.667 -17 77 -29l108 -45l80.5 -34.5
c25.667 -11 51 -20.667 76 -29s49.667 -15.166 74 -20.499s48.833 -8 73.5 -8c91.333 0 137 61.333 137 184h78c0 -4.66699 0.166992 -9 0.5 -13s0.5 -8 0.5 -12c0 -45.333 -6.66699 -83.833 -20 -115.5s-30.666 -57.5 -51.999 -77.5s-45.166 -34.5 -71.499 -43.5
s-52.833 -13.5 -79.5 -13.5c-17.333 0 -35.333 1.33301 -54 4s-40 7.5 -64 14.5s-52 16.5 -84 28.5s-69.667 27.333 -113 46l-76.5 33.5c-24.333 11 -48 21 -71 30s-45.833 16.333 -68.5 22s-45.667 8.5 -69 8.5c-48 0 -84.5 -15.667 -109.5 -47s-37.5 -77.333 -37.5 -138
h-80z" />
    <glyph glyph-name="currency" unicode="&#xa4;" horiz-adv-x="1085" 
d="M543 1003c52 0 99.333 -8.00488 142 -24.0049s78 -37.333 106 -64l145 141l63 -63l-151 -133c12 -13.333 23 -29.166 33 -47.499s18.667 -38.166 26 -59.499s13 -43.666 17 -66.999s6 -46.666 6 -69.999c0 -58.667 -8 -110.667 -24 -156s-34 -79.333 -54 -102l139 -139
l-63 -64l-137 144c-34.667 -32 -74.834 -55 -120.501 -69s-90.834 -21 -135.501 -21c-23.333 0 -46.666 1.83301 -69.999 5.5s-45.666 9 -66.999 16s-41.333 15.333 -60 25s-35 20.5 -49 32.5l-133 -133l-60 64l131 129c-12 12 -23.167 27 -33.5 45s-19.5 38 -27.5 60
s-14.167 45.167 -18.5 69.5s-6.5 48.833 -6.5 73.5c0 56.667 8.83301 107.334 26.5 152.001s40.5 82 68.5 112l-140 131l64 65l133 -141c30.667 26.667 67.5 48 110.5 64s88.833 24 137.5 24h2zM532 922.995c-48.667 0 -91.3291 -9.33203 -127.996 -27.999
s-67.5 -43.167 -92.5 -73.5s-43.833 -64.666 -56.5 -102.999s-19 -77.166 -19 -116.499c0 -58.667 10 -108 30 -148s44.833 -72.333 74.5 -97s61.667 -42.334 96 -53.001s66.166 -16 95.499 -16c33.333 0 68 5 104 15s68.833 27.5 98.5 52.5s54 58.5 73 100.5
s28.5 94.667 28.5 158c0 33.333 -5.83301 68.166 -17.5 104.499s-29.834 69.666 -54.501 99.999s-55.834 55.333 -93.501 75s-82.834 29.5 -135.501 29.5h-3z" />
    <glyph glyph-name="brokenbar" unicode="&#xa6;" horiz-adv-x="451" 
d="M276 1618v-846h-75v846h75zM276 453v-842h-75v842h75z" />
    <glyph glyph-name="section" unicode="&#xa7;" horiz-adv-x="1126" 
d="M786 1292c0 50 -5.33398 91.3369 -16.001 124.004s-26 58.5 -46 77.5s-44.167 32.167 -72.5 39.5s-59.833 11 -94.5 11c-4.66699 0 -13.334 -0.333008 -26.001 -1s-27.167 -2.66699 -43.5 -6s-33.333 -8.83301 -51 -16.5s-33.834 -18.167 -48.501 -31.5
s-26.667 -30.333 -36 -51s-14 -46 -14 -76c0 -36 6.16699 -65.167 18.5 -87.5s32.166 -42.333 59.499 -60s63.166 -35.5 107.499 -53.5l162.5 -68c50 -21.333 95.333 -43.333 136 -66s75.5 -48.334 104.5 -77.001s51.5 -61.667 67.5 -99s24 -81.333 24 -132
c0 -55.333 -9.16699 -103.166 -27.5 -143.499s-41.333 -74.166 -69 -101.499s-57.5 -49.166 -89.5 -65.499s-61.667 -28.5 -89 -36.5c30.667 -14.667 55.834 -31 75.501 -49s35 -37 46 -57s18.5 -40.667 22.5 -62s6 -42.333 6 -63c0 -39.333 -6.66699 -76 -20 -110
s-33.666 -63.667 -60.999 -89s-61.666 -45.333 -102.999 -60s-90 -22 -146 -22c-48 0 -89.667 5.16699 -125 15.5s-65.5 24.166 -90.5 41.499s-45.667 37.666 -62 60.999s-29 48 -38 74s-15.333 52.667 -19 80s-5.5 53.666 -5.5 78.999h90c0 -14 1 -30.333 3 -49
s6 -37.834 12 -57.501s14.667 -39 26 -58s26.166 -36 44.499 -51s41 -27 68 -36s59.167 -13.5 96.5 -13.5c30 0 58.833 3.5 86.5 10.5s52.334 18.167 74.001 33.5s39 34.833 52 58.5s19.5 52.5 19.5 86.5c0 38.667 -8 70 -24 94s-38.167 44.5 -66.5 61.5
s-61.833 32.667 -100.5 47s-80.334 30.833 -125.001 49.5c-62 25.333 -116.167 51.5 -162.5 78.5s-84.833 56.667 -115.5 89s-53.667 68 -69 107s-23 83.167 -23 132.5c0 56 9 103.5 27 142.5s40.833 71.5 68.5 97.5s58.167 46.333 91.5 61s65 25.667 95 33
c-30 17.333 -54.833 34.833 -74.5 52.5s-35.167 36.167 -46.5 55.5s-19.166 40.166 -23.499 62.499s-6.5 46.833 -6.5 73.5c0 50.667 10 92.667 30 126s45.5 59.666 76.5 78.999s65.333 33 103 41s74.167 12 109.5 12c44.667 0 86.334 -5.5 125.001 -16.5
s72.334 -29.5 101.001 -55.5s51.167 -60 67.5 -102s24.5 -94 24.5 -156v-8h-91zM642.999 420.004c64.667 18 115.331 40.334 151.998 67.001s63.834 54 81.501 82s28.5 54.833 32.5 80.5s6 46.5 6 62.5c0 46 -7.83301 85.5 -23.5 118.5s-41 63 -76 90
s-80.333 52.5 -136 76.5s-123.167 50 -202.5 78c-28.667 -4 -58.667 -11.667 -90 -23s-60 -27.833 -86 -49.5s-47.5 -49 -64.5 -82s-25.5 -73.167 -25.5 -120.5c0 -48 7.33301 -88.833 22 -122.5s38.834 -64.334 72.501 -92.001s78 -54.167 133 -79.5s123.167 -54 204.5 -86
z" />
    <glyph glyph-name="copyright" unicode="&#xa9;" horiz-adv-x="1638" 
d="M102 910c0 65.333 8.5 128.5 25.5 189.5s40.833 118 71.5 171s67.667 101.5 111 145.5s91.666 81.5 144.999 112.5s110.666 55.167 171.999 72.5s125.333 26 192 26c65.333 0 128.5 -8.5 189.5 -25.5s118 -41 171 -72s101.5 -68.333 145.5 -112s81.5 -92 112.5 -145
s55.167 -110.167 72.5 -171.5s26 -125 26 -191c0 -66.667 -8.66699 -130.5 -26 -191.5s-41.5 -118 -72.5 -171s-68.5 -101.333 -112.5 -145s-92.5 -81 -145.5 -112s-110 -55 -171 -72s-124.167 -25.5 -189.5 -25.5c-66.667 0 -130.667 8.66699 -192 26
s-118.666 41.5 -171.999 72.5s-101.666 68.5 -144.999 112.5s-80.333 92.5 -111 145.5s-54.5 110 -71.5 171s-25.5 124.167 -25.5 189.5zM184 910c0 -60 7.33301 -117.998 22 -173.998s35.667 -108.167 63 -156.5s60.166 -92.5 98.499 -132.5s81 -74.333 128 -103
s97.667 -50.834 152 -66.501s111.5 -23.5 171.5 -23.5c57.333 0 113 7.83301 167 23.5s104.5 37.667 151.5 66s90 62.5 129 102.5s72.333 84.167 100 132.5s49.167 100.5 64.5 156.5s23 114.333 23 175s-7.83301 119.167 -23.5 175.5s-37.5 108.666 -65.5 156.999
s-61.5 92.333 -100.5 132s-82 73.667 -129 102s-97.333 50.166 -151 65.499s-108.834 23 -165.501 23c-59.333 0 -116 -7.66699 -170 -23s-104.667 -37.166 -152 -65.499s-90.166 -62.5 -128.499 -102.5s-71.166 -84.167 -98.499 -132.5s-48.5 -100.5 -63.5 -156.5
s-22.5 -114.333 -22.5 -175zM1122 801.002c-2 -12 -5.33301 -26.667 -10 -44s-11.5 -35.5 -20.5 -54.5s-20.5 -37.833 -34.5 -56.5s-31.667 -35.5 -53 -50.5s-46.5 -27.167 -75.5 -36.5s-62.833 -14 -101.5 -14c-52 0 -99 8.16699 -141 24.5s-77.833 40.166 -107.5 71.499
s-52.334 69.666 -68.001 114.999s-23.5 97.333 -23.5 156c0 58 6.83301 110.833 20.5 158.5s34.334 88.167 62.001 121.5s62.167 59.166 103.5 77.499s90 27.5 146 27.5c38.667 0 75.5 -5.33301 110.5 -16s66 -26.167 93 -46.5s48.5 -45.166 64.5 -74.499
s24.333 -62.333 25 -99h-90c-2 20.667 -6.83301 40.834 -14.5 60.501s-19.167 37.167 -34.5 52.5s-35.666 27.666 -60.999 36.999s-56.333 14 -93 14c-38.667 0 -71.5 -6.16699 -98.5 -18.5s-49.167 -28.166 -66.5 -47.499s-30.833 -40.833 -40.5 -64.5
s-16.834 -47.167 -21.501 -70.5s-7.5 -45 -8.5 -65s-1.5 -35.667 -1.5 -47c0 -47.333 5 -87.5 15 -120.5s22.667 -60.5 38 -82.5s32.5 -39.167 51.5 -51.5s37.667 -21.5 56 -27.5s35.166 -9.66699 50.499 -11s27.333 -2 36 -2c40.667 0 73.834 7.16699 99.501 21.5
s46 31.333 61 51s25.5 39.834 31.5 60.501s9.66699 37.667 11 51h90z" />
    <glyph glyph-name="guillemotleft" unicode="&#xab;" horiz-adv-x="999" 
d="M639 528l238 -374h-78l-285 374c1.33301 0 97 125 287 375h76zM268 528l238 -374h-76l-287 374l289 375h74z" />
    <glyph glyph-name="logicalnot" unicode="&#xac;" horiz-adv-x="1221" 
d="M1139 788v-520h-90v439h-967v81h1057z" />
    <glyph glyph-name="uni00AD" unicode="&#xad;" horiz-adv-x="737" 
d="M45 576v86h684v-86h-684z" />
    <glyph glyph-name="registered" unicode="&#xae;" horiz-adv-x="1638" 
d="M102 913c0 66 8.5 129.5 25.5 190.5s41.167 118 72.5 171s68.833 101.333 112.5 145s92 81.167 145 112.5s110 55.5 171 72.5s124.5 25.5 190.5 25.5c66.667 0 130.667 -8.5 192 -25.5s118.5 -41.167 171.5 -72.5s101.333 -68.833 145 -112.5s80.834 -92 111.501 -145
s54.5 -110 71.5 -171s25.5 -124.5 25.5 -190.5s-8.5 -129.5 -25.5 -190.5s-40.833 -118 -71.5 -171s-67.834 -101.333 -111.501 -145s-92 -81.167 -145 -112.5s-110.167 -55.5 -171.5 -72.5s-125.333 -25.5 -192 -25.5c-66 0 -129.5 8.5 -190.5 25.5s-118 41.167 -171 72.5
s-101.333 68.833 -145 112.5s-81.167 92 -112.5 145s-55.5 110 -72.5 171s-25.5 124.5 -25.5 190.5zM184 913c0 -60 7.66602 -118 22.999 -174s36.833 -108.167 64.5 -156.5s60.834 -92.5 99.501 -132.5s81.5 -74.333 128.5 -103s97.5 -50.834 151.5 -66.501
s110 -23.5 168 -23.5c89.333 0 172.666 17.167 249.999 51.5s144.5 81.166 201.5 140.499s101.833 128.833 134.5 208.5s49 164.834 49 255.501c0 91.333 -16.5 176.833 -49.5 256.5s-78.167 149 -135.5 208s-124.666 105.5 -201.999 139.5s-160 51 -248 51
c-57.333 0 -112.833 -7.66699 -166.5 -23s-104 -37.166 -151 -65.499s-90 -62.5 -129 -102.5s-72.5 -84.167 -100.5 -132.5s-49.667 -100.5 -65 -156.5s-23 -114.333 -23 -175zM556.999 1277l309.009 0.00488281c56.667 0 101.167 -7.83301 133.5 -23.5
s56.666 -34.334 72.999 -56.001s26.666 -44.334 30.999 -68.001s6.5 -43.5 6.5 -59.5c0 -26 -4.16699 -48.833 -12.5 -68.5s-18.5 -36.334 -30.5 -50.001s-25 -24.834 -39 -33.501s-27 -15.334 -39 -20.001v-4c22.667 -5.33301 40.667 -13.5 54 -24.5
s23.333 -23.833 30 -38.5s11.167 -30.5 13.5 -47.5s4.16602 -34.5 5.49902 -52.5c1.33301 -27.333 2.16602 -49.833 2.49902 -67.5s1.16602 -32.667 2.49902 -45s3.66602 -22.833 6.99902 -31.5s8.66602 -17.334 15.999 -26.001h-96c-6 6.66699 -10.667 13.5 -14 20.5
s-5.83301 16.167 -7.5 27.5s-2.83398 26 -3.50098 44s-1.33398 41.667 -2.00098 71c-0.666992 16.667 -2.16699 33 -4.5 49s-8.5 30.333 -18.5 43s-25.333 22.834 -46 30.501s-50 11.5 -88 11.5h-193v-297h-90v716zM647.008 929.005l197 0.000976562
c22 0 43.333 2.66699 64 8s39 13.666 55 24.999s28.833 25.833 38.5 43.5s14.5 39.167 14.5 64.5c0 28 -5.5 50.833 -16.5 68.5s-25.5 31.5 -43.5 41.5s-38.167 16.833 -60.5 20.5s-44.5 5.5 -66.5 5.5h-182v-277z" />
    <glyph glyph-name="macron" unicode="&#xaf;" horiz-adv-x="1225" 
d="M-23 1544v86h1330v-86h-1330z" />
    <glyph glyph-name="degree" unicode="&#xb0;" horiz-adv-x="889" 
d="M219 1352c0 -32 6.5 -61 19.5 -87s30.5 -48.333 52.5 -67s47.5 -33.167 76.5 -43.5s59.5 -15.5 91.5 -15.5c32.667 0 63.667 5.16699 93 15.5s55 24.833 77 43.5s39.333 41 52 67s19 55 19 87c0 27.333 -6.33301 53.5 -19 78.5s-30 47 -52 66s-47.667 34.167 -77 45.5
s-60.333 17 -93 17c-32 0 -62.5 -5.66699 -91.5 -17s-54.5 -26.5 -76.5 -45.5s-39.5 -41 -52.5 -66s-19.5 -51.167 -19.5 -78.5zM168 1352c0 35.333 8 69.0029 24 101.003s37.5 60 64.5 84s58 43.167 93 57.5s71.5 21.5 109.5 21.5c39.333 0 76.666 -7.16699 111.999 -21.5
s66.5 -33.5 93.5 -57.5s48.333 -52 64 -84s23.5 -65.667 23.5 -101c0 -39.333 -7.83301 -75.5 -23.5 -108.5s-37 -61.833 -64 -86.5s-58.167 -43.834 -93.5 -57.501s-72.666 -20.5 -111.999 -20.5c-37.333 0 -73.5 6.83301 -108.5 20.5s-66 32.667 -93 57
s-48.667 53.166 -65 86.499s-24.5 69.666 -24.5 108.999z" />
    <glyph glyph-name="plusminus" unicode="&#xb1;" horiz-adv-x="1221" 
d="M655 1161v-424h484v-82h-484v-440h-90v440h-483v82h483v424h90zM1139 82v-82h-1057v82h1057z" />
    <glyph glyph-name="acute" unicode="&#xb4;" horiz-adv-x="737" 
d="M299 1378l131 244h178l-211 -244h-98z" />
    <glyph glyph-name="paragraph" unicode="&#xb6;" horiz-adv-x="1085" 
d="M541 146v634.003h-19c-52 0 -104.667 8.16699 -158 24.5s-101.666 41.166 -144.999 74.499s-78.666 75.166 -105.999 125.499s-41 109.5 -41 177.5c0 34 3.5 68.667 10.5 104s18.833 69.666 35.5 102.999s39.167 64.666 67.5 93.999s63.666 54.833 105.999 76.5
s92.666 38.834 150.999 51.501s125.833 19 202.5 19c60.667 0 108.167 -1.33301 142.5 -4s61.833 -6 82.5 -10v-1470h-88v1402h-153v-1402h-88z" />
    <glyph glyph-name="periodcentered" unicode="&#xb7;" horiz-adv-x="692" 
d="M276 496v163h166v-163h-166z" />
    <glyph glyph-name="ordmasculine" unicode="&#xba;" horiz-adv-x="614" 
d="M311 1405c40.667 0 76.1689 -6.83398 106.502 -20.501s55.5 -31.667 75.5 -54s35 -47.666 45 -75.999s15 -57.5 15 -87.5c0 -40 -7.5 -75.5 -22.5 -106.5s-34.333 -57.333 -58 -79s-50.334 -38.167 -80.001 -49.5s-59.5 -17 -89.5 -17c-37.333 0 -70.833 6.5 -100.5 19.5
s-55 30.333 -76 52s-37.167 46.667 -48.5 75s-17 57.5 -17 87.5c0 37.333 6.5 71.666 19.5 102.999s30.667 58.333 53 81s48.666 40.334 78.999 53.001s62.5 19 96.5 19h2zM303.002 1337c-30 0 -55.499 -6 -76.499 -18s-38 -27 -51 -45s-22.333 -38 -28 -60
s-8.5 -43 -8.5 -63c0 -23.333 4.16699 -45.333 12.5 -66s20 -38.5 35 -53.5s32.667 -26.833 53 -35.5s42.166 -13 65.499 -13c24.667 0 47.334 4.5 68.001 13.5s38.5 21.5 53.5 37.5s26.833 35 35.5 57s13 46 13 72c0 15.333 -2.33301 33 -7 53s-13.334 39 -26.001 57
s-30 33.167 -52 45.5s-50.333 18.5 -85 18.5h-2z" />
    <glyph glyph-name="guillemotright" unicode="&#xbb;" horiz-adv-x="999" 
d="M401 526l-237 375h78l284 -377l-284 -372h-78zM772 526l-235 375h73l283 -375l-283 -374h-73z" />
    <glyph glyph-name="tilde" unicode="&#x2dc;" horiz-adv-x="737" 
d="M29 1432c8 32 17.5 59.668 28.5 83.001s24.833 42.666 41.5 57.999c17.333 16 38 27.833 62 35.5s48 11.5 72 11.5c20.667 0 45.5 -5.5 74.5 -16.5l106.5 -40.5c28 -12.667 52 -21.667 72 -27s40.333 -8 61 -8c32.667 0 58.5 6.16699 77.5 18.5s33.5 37.5 43.5 75.5h73
c-9.33301 -62.667 -31 -109.667 -65 -141s-75 -47 -123 -47c-23.333 0 -49.333 5 -78 15s-62 24 -100 42c-60 27.333 -104.333 41 -133 41c-34.667 0 -63.167 -7.66699 -85.5 -23s-37.5 -41 -45.5 -77h-82z" />
    <glyph glyph-name="uni10D0" unicode="&#x10d0;" horiz-adv-x="980" 
d="M880 583c0 -59.333 -8.16602 -116.836 -24.499 -172.503s-40.833 -105 -73.5 -148s-73.334 -77.5 -122.001 -103.5s-105.334 -39 -170.001 -39c-64 0 -120.333 13 -169 39s-89.334 60 -122.001 102s-57.334 89.833 -74.001 143.5s-25 108.167 -25 163.5v68
c0 36 8.5 73.5 25.5 112.5s38.833 77.833 65.5 116.5l63 -33c-17.333 -36 -30.666 -71.833 -39.999 -107.5s-14 -65.167 -14 -88.5v-74c0 -45.333 5 -89.666 15 -132.999s26.333 -82 49 -116s52.5 -61.5 89.5 -82.5s82.5 -31.5 136.5 -31.5c50 0 93.333 9.16699 130 27.5
s66.834 44.5 90.501 78.5s41.167 75 52.5 123s17 101.667 17 161v73c0 50.667 -6.66699 96.834 -20 138.501s-30.666 80.334 -51.999 116.001s-45.666 69 -72.999 100l-84 91.5l-78.5 86.5c-25.667 29 -48.5 59.667 -68.5 92s-36 66.833 -48 103.5s-18 77 -18 121v79h89v-79
c0 -38 5.83301 -73.333 17.5 -106s27.167 -64 46.5 -94s41.333 -59 66 -87l77 -85l88 -97.5c29.333 -33.667 55.666 -69.667 78.999 -108s42.333 -79.833 57 -124.5s22 -93.667 22 -147v-79z" />
    <glyph glyph-name="uni10D1" unicode="&#x10d1;" horiz-adv-x="980" 
d="M200 568c0 -42.667 5.66699 -85.8301 17 -129.497s28.666 -83.334 51.999 -119.001s53.333 -64.667 90 -87s80.334 -33.5 131.001 -33.5c52.667 0 97.5 11 134.5 33s67 50.167 90 84.5s39.667 72.666 50 114.999s15.5 83.833 15.5 124.5v127c0 24.667 -2.66699 51 -8 79
s-13.333 55.5 -24 82.5s-24 53 -40 78s-34.667 46.833 -56 65.5s-45.5 33.667 -72.5 45s-56.833 17 -89.5 17c-52 0 -96.5 -10.5 -133.5 -31.5s-67 -48.833 -90 -83.5s-39.833 -73.834 -50.5 -117.501s-16 -88.5 -16 -134.5v-115zM314 1610
c0 -24.667 7.3291 -44.6699 21.9961 -60.0029s32.834 -28.5 54.501 -39.5s45.334 -21.167 71.001 -30.5s49.334 -20.166 71.001 -32.499s39.834 -27.5 54.501 -45.5s22 -41 22 -69c0 -38 -6.16699 -72.167 -18.5 -102.5s-29.5 -63.5 -51.5 -99.5
c55.333 -12.667 104.166 -35.5 146.499 -68.5s78 -70.5 107 -112.5s50.833 -85.667 65.5 -131s22 -87 22 -125v-150c0 -30 -3.5 -61.333 -10.5 -94s-17.5 -64.667 -31.5 -96s-31.667 -61.166 -53 -89.499s-46.5 -53.166 -75.5 -74.499s-61.667 -38.333 -98 -51
s-76.833 -19 -121.5 -19c-42.667 0 -82 6.33301 -118 19s-68.5 29.834 -97.5 51.501s-54.333 46.834 -76 75.501s-39.834 58.667 -54.501 90s-25.667 63.333 -33 96s-11 64 -11 94v149c0 42.667 6.83301 87.667 20.5 135s35.334 92 65.001 134s67.5 78.5 113.5 109.5
s101.667 51.5 167 61.5c12.667 24 22.834 44.5 30.501 61.5s13.5 32.5 17.5 46.5s6.5 27.5 7.5 40.5s1.5 27.167 1.5 42.5c0 22 -7.16699 40.167 -21.5 54.5s-32.5 27.166 -54.5 38.499s-45.5 22 -70.5 32s-48.5 22 -70.5 36s-40.167 30.667 -54.5 50
s-21.5 43.666 -21.5 72.999h84z" />
    <glyph glyph-name="uni10D2" unicode="&#x10d2;" horiz-adv-x="1090" 
d="M899 650c0 24 -2.83203 49.998 -8.49902 77.998s-14.334 56.167 -26.001 84.5s-26 55.666 -43 81.999s-37 49.666 -60 69.999s-48.667 36.5 -77 48.5s-59.833 18 -94.5 18h-67c-40.667 -2 -80.834 -15.167 -120.501 -39.5s-75.334 -55.666 -107.001 -93.999
s-57.334 -81.666 -77.001 -129.999s-29.5 -97.166 -29.5 -146.499v-36c0 -28 3 -56.833 9 -86.5s15.333 -58.834 28 -87.501s28.667 -55.667 48 -81s42 -47.666 68 -66.999s55.5 -34.666 88.5 -45.999s69.833 -17 110.5 -17c60.667 0 113.334 10.333 158.001 31
s81.834 48.5 111.501 83.5s51.834 75.833 66.501 122.5s22 96 22 148v65zM1000 568.998c0 -30 -4.17188 -61.8369 -12.5049 -95.5039s-21 -67.167 -38 -100.5s-38.333 -65.166 -64 -95.499s-55.5 -57.166 -89.5 -80.499s-72.167 -42 -114.5 -56s-89.166 -21 -140.499 -21
c-48 0 -92.5 7.16699 -133.5 21.5s-78.167 33.666 -111.5 57.999s-62.833 52 -88.5 83s-47.167 63.167 -64.5 96.5s-30.5 66.5 -39.5 99.5s-13.5 63.167 -13.5 90.5v58c0 32.667 4 66.834 12 102.501s20.5 70.834 37.5 105.501s38.667 67.834 65 99.501s58 59.667 95 84
s79.667 44 128 59s102.833 23.167 163.5 24.5c12 18 25.333 36.5 40 55.5s28.334 38.833 41.001 59.5s23.167 42.167 31.5 64.5s12.5 45.833 12.5 70.5c0 39.333 -6 70.666 -18 93.999s-28.333 41.333 -49 54s-44.667 20.834 -72 24.501s-56 5.5 -86 5.5
c-37.333 0 -68.666 -4 -93.999 -12s-45.666 -19 -60.999 -33s-26.333 -30.667 -33 -50s-10 -40.333 -10 -63v-109h-85v109c0 34.667 7.5 66.667 22.5 96s35.5 54.5 61.5 75.5s56.167 37.333 90.5 49s70.833 17.5 109.5 17.5c48.667 0 92.167 -4.83301 130.5 -14.5
s70.666 -24.667 96.999 -45s46.5 -46.333 60.5 -78s21 -69.167 21 -112.5c0 -32.667 -4.33301 -61.834 -13 -87.501s-19.5 -49.167 -32.5 -70.5s-27 -41 -42 -59s-28.5 -36 -40.5 -54c36 -8 73.333 -24.667 112 -50s73.834 -57.333 105.501 -96
s57.834 -83.167 78.501 -133.5s31 -104.166 31 -161.499v-79z" />
    <glyph glyph-name="uni10D3" unicode="&#x10d3;" horiz-adv-x="1500" 
d="M1298 1153c0 29.333 -0.666992 59.167 -2 89.5s-4.5 59.333 -9.5 87s-12.833 53.667 -23.5 78s-25.5 45.666 -44.5 63.999s-42.667 32.666 -71 42.999s-63.166 15.5 -104.499 15.5c-48 0 -88.667 -8.66699 -122 -26s-60.5 -42.166 -81.5 -74.499
s-36.333 -71.833 -46 -118.5s-14.5 -99.334 -14.5 -158.001v-166c0 -55.333 5.16699 -106.166 15.5 -152.499s26.166 -86.166 47.499 -119.499s48.5 -59.333 81.5 -78s72.167 -28 117.5 -28c40 0 74.333 6.83301 103 20.5s52.5 31.5 71.5 53.5s34 46.833 45 74.5
s19.333 55.5 25 83.5s9.16699 54.833 10.5 80.5s2 47.5 2 65.5v166zM1060 120.001l-130 0.0078125c-94.667 0 -181 10.833 -259 32.5s-147.667 51.5 -209 89.5s-114.666 83.333 -159.999 136s-83 110 -113 172s-52.333 127.5 -67 196.5s-22 139.167 -22 210.5v141
c0 32 1.33301 67 4 105s8 76 16 114s19.667 74.667 35 110s35.666 66.5 60.999 93.5s56.333 48.667 93 65s80.667 24.5 132 24.5c35.333 0 68.833 -4.5 100.5 -13.5s60.167 -23.667 85.5 -44s46.833 -47.166 64.5 -80.499s30.167 -74.333 37.5 -123
c10.667 50 26.334 91.667 47.001 125s44.667 60.166 72 80.499s57.5 34.666 90.5 42.999s67.167 12.5 102.5 12.5c46.667 0 88 -6.33301 124 -19s67.167 -30 93.5 -52s48.666 -47.833 66.999 -77.5s33 -61.334 44 -95.001s18.833 -68.834 23.5 -105.501s7 -72.667 7 -108
v-172c0 -54 -6.83301 -107.833 -20.5 -161.5s-35 -102 -64 -145s-66.167 -77.833 -111.5 -104.5s-99.666 -40 -162.999 -40c-60 0 -112.5 11.667 -157.5 35s-82.667 55.666 -113 96.999s-53 90.166 -68 146.499s-22.5 117.833 -22.5 184.5v156
c0 59.333 -4.5 112.666 -13.5 159.999s-23.333 87.333 -43 120s-45.167 57.667 -76.5 75s-69 26 -113 26c-38.667 0 -71.334 -7.16699 -98.001 -21.5s-48.667 -33.333 -66 -57s-30.666 -50.834 -39.999 -81.501s-16.333 -62 -21 -94s-7.33398 -63.5 -8.00098 -94.5
s-1 -58.833 -1 -83.5v-135c0 -111.333 15.833 -213 47.5 -305s78.5 -171.333 140.5 -238s138.333 -118.334 229 -155.001s195 -55 313 -55h130v-90z" />
    <glyph glyph-name="uni10D4" unicode="&#x10d4;" 
d="M880 494c0 -61.333 -10.667 -115.171 -32 -161.504s-50 -85.333 -86 -117s-77.5 -55.5 -124.5 -71.5s-96.167 -24 -147.5 -24c-62 0 -117.333 10 -166 30s-89.5 47 -122.5 81s-58.167 73.5 -75.5 118.5s-26 92.167 -26 141.5c0 23.333 2 47.5 6 72.5
s10.667 49.833 20 74.5s22.166 48.667 38.499 72s37.166 45.333 62.499 66l55 -53c-20.667 -19.333 -36.334 -38.166 -47.001 -56.499s-18.5 -36.833 -23.5 -55.5s-8 -37.667 -9 -57s-1.5 -39.333 -1.5 -60c-0.666992 -42 4.83301 -81 16.5 -117
s29.334 -67.167 53.001 -93.5s53.834 -47 90.501 -62s79.667 -22.5 129 -22.5c44 0 83.833 7.33301 119.5 22s66.334 35.334 92.001 62.001s45.334 58.334 59.001 95.001s20.5 77 20.5 121v779c0 34 -6.33301 66.333 -19 97s-30.5 57.5 -53.5 80.5s-50.5 41.167 -82.5 54.5
s-67.333 20 -106 20c-40 0 -76 -5.5 -108 -16.5s-59.333 -26.667 -82 -47s-40.167 -44.833 -52.5 -73.5s-18.5 -61 -18.5 -97c0 -22 2.83301 -44.667 8.5 -68s16.167 -49 31.5 -77l-72 -53c-19.333 30 -34 61.5 -44 94.5s-15 67.5 -15 103.5
c0 46.667 8.16699 89.334 24.5 128.001s39.666 71.834 69.999 99.501s66.833 49 109.5 64s90 22.5 142 22.5c51.333 0 99.333 -7.83301 144 -23.5s83.5 -37.834 116.5 -66.501s58.833 -63.5 77.5 -104.5s28 -86.833 28 -137.5v-784z" />
    <glyph glyph-name="uni10D5" unicode="&#x10d5;" 
d="M880 493c0 -45.333 -8.32715 -90.3281 -24.9941 -134.995s-41.334 -84.667 -74.001 -120s-73.334 -63.833 -122.001 -85.5s-105 -32.5 -169 -32.5c-68 0 -126.667 11.833 -176 35.5s-89.833 53.5 -121.5 89.5s-55 75.5 -70 118.5s-22.5 83.833 -22.5 122.5v43
c0 16 2.83301 35.167 8.5 57.5s13.834 45.166 24.501 68.499s24 45.666 40 66.999s34.333 39.333 55 54l52 -55c-17.333 -16.667 -31.333 -32.167 -42 -46.5s-18.834 -28.833 -24.501 -43.5s-9.5 -30 -11.5 -46s-3 -33.667 -3 -53v-35c0 -38 6 -75 18 -111
s30 -67.833 54 -95.5s54.167 -49.834 90.5 -66.501s79.166 -25 128.499 -25s92.333 8.16699 129 24.5s67 38 91 65s41.833 58.167 53.5 93.5s17.5 72.333 17.5 111v163c0 25.333 -4.5 51.166 -13.5 77.499s-22.333 50.333 -40 72s-39.5 39.5 -65.5 53.5s-55.667 21 -89 21
h-112v81h112c18.667 0 36.5 4.83301 53.5 14.5s32.833 22.167 47.5 37.5s28 33 40 53s22.167 40.167 30.5 60.5s14.833 40.333 19.5 60s7 37.167 7 52.5v45c0 28.667 -5.66699 57.5 -17 86.5s-28.5 55.333 -51.5 79s-51.833 43 -86.5 58s-75.334 22.5 -122.001 22.5
c-41.333 0 -78.5 -7 -111.5 -21s-61.167 -31.5 -84.5 -52.5s-41.333 -43.833 -54 -68.5s-19 -47.667 -19 -69v-31c0 -18 1.66699 -34.333 5 -49s8 -28.167 14 -40.5s12.667 -24 20 -35l23 -33.5l-78 -37c-22 30 -39.167 60.5 -51.5 91.5s-18.5 62.833 -18.5 95.5v49
c0 32.667 8.33301 65.834 25 99.501s40.5 63.834 71.5 90.501s68.167 48.5 111.5 65.5s91.666 25.5 144.999 25.5c62 0 116.5 -9.33301 163.5 -28s86.333 -43 118 -73s55.667 -63.833 72 -101.5s24.5 -75.834 24.5 -114.501v-66c0 -16.667 -2 -37 -6 -61
s-13.333 -49.833 -28 -77.5s-36.167 -55.834 -64.5 -84.501s-66.833 -56.334 -115.5 -83.001c46 -12.667 83.5 -29.5 112.5 -50.5s51.667 -43.833 68 -68.5s27.666 -49.667 33.999 -75s9.5 -49 9.5 -71v-163z" />
    <glyph glyph-name="uni10D6" unicode="&#x10d6;" horiz-adv-x="1061" 
d="M577 1348c0 20.667 -6.66406 41.832 -19.9971 63.499s-31 41.334 -53 59.001s-47.333 32 -76 43s-58.334 16.5 -89.001 16.5c-35.333 0 -66.5 -5.5 -93.5 -16.5s-50 -24.667 -69 -41s-33.333 -34 -43 -53s-14.5 -36.833 -14.5 -53.5v-56
c0 -27.333 4.66699 -54.166 14 -80.499s23.666 -49.833 42.999 -70.5s43.666 -37.334 72.999 -50.001s63.666 -19 102.999 -19c24.667 0 50.334 4.83301 77.001 14.5s51 23.5 73 41.5s40 40 54 66s21 55.333 21 88v48zM240.003 584.998c0 -58 8.16699 -110.83 24.5 -158.497
s38.666 -88.334 66.999 -122.001s61.333 -59.667 99 -78s77.834 -27.5 120.501 -27.5c44.667 0 85.834 9.66699 123.501 29s70.167 46.5 97.5 81.5s48.666 76.667 63.999 125s23 101.833 23 160.5v22c0 59.333 -7.66699 112.166 -23 158.499s-36.666 85.5 -63.999 117.5
s-59.833 56.333 -97.5 73s-78.834 25 -123.501 25c-42.667 0 -82.834 -7.5 -120.501 -22.5s-70.667 -37.333 -99 -67s-50.666 -66.834 -66.999 -111.501s-24.5 -96.667 -24.5 -156v-49zM666.003 1331c0 -62.667 -16.8359 -115.34 -50.5029 -158.007s-77.5 -77 -131.5 -103
c81.333 0 152 -12.333 212 -37s109.667 -56.667 149 -96s68.5 -83.666 87.5 -132.999s28.5 -98.666 28.5 -147.999v-94c0 -67.333 -10.333 -128.166 -31 -182.499s-49.334 -100.833 -86.001 -139.5s-80 -68.334 -130 -89.001s-104.333 -31 -163 -31
c-57.333 0 -110.833 10.333 -160.5 31s-92.834 50.334 -129.501 89.001s-65.5 85.167 -86.5 139.5s-31.5 115.166 -31.5 182.499v88c0 42 5.83301 81.833 17.5 119.5s27.5 72.334 47.5 104.001s43.5 60.334 70.5 86.001s56.167 47.834 87.5 66.501
c-59.333 0 -110.166 8.83301 -152.499 26.5s-77 40.334 -104 68.001s-47 58.5 -60 92.5s-19.5 68 -19.5 102v57c0 32 7.33301 62.333 22 91s35.334 53.834 62.001 75.501s58.834 39 96.501 52s79.5 19.5 125.5 19.5c58 0 107.833 -8.83301 149.5 -26.5
s75.834 -39.5 102.501 -65.5s46.334 -54 59.001 -84s19 -57.333 19 -82v-21z" />
    <glyph glyph-name="uni10D7" unicode="&#x10d7;" horiz-adv-x="1519" 
d="M739 1159c0 23.333 -1.6709 48.6641 -5.00391 75.9971s-8.83301 54.666 -16.5 81.999s-18 53.833 -31 79.5s-29.167 48.334 -48.5 68.001s-42.166 35.5 -68.499 47.5s-56.5 18 -90.5 18c-40 0 -74 -7.16699 -102 -21.5s-51.667 -33.666 -71 -57.999
s-34.666 -52.833 -45.999 -85.5s-20.166 -67.5 -26.499 -104.5s-10.333 -75.167 -12 -114.5s-2.5 -77.666 -2.5 -114.999v-335c0 -82 3.16699 -154.167 9.5 -216.5s18.666 -114.166 36.999 -155.499s44.5 -72.5 78.5 -93.5s79 -31.5 135 -31.5
c51.333 0 93.833 10.333 127.5 31s60.334 50.334 80.001 89.001s33.334 85.667 41.001 141s11.5 117.666 11.5 186.999v512zM1399 719.998c0 -70.667 -5.16504 -139.337 -15.498 -206.004s-28.833 -127.167 -55.5 -181.5s-62.5 -100.166 -107.5 -137.499
s-102.167 -62 -171.5 -74v79c45.333 11.333 83.833 31.833 115.5 61.5s57.5 66.667 77.5 111s34.5 94.833 43.5 151.5s13.5 117.667 13.5 183v339c0 39.333 -0.333008 78.666 -1 117.999s-3 77 -7 113s-10.5 69.333 -19.5 100s-22 57.334 -39 80.001
s-38.833 40.5 -65.5 53.5s-59.667 19.5 -99 19.5c-38 0 -70 -6 -96 -18s-47.5 -27.833 -64.5 -47.5s-30.167 -42.334 -39.5 -68.001s-16.166 -52.167 -20.499 -79.5s-6.83301 -54.666 -7.5 -81.999s-1 -52.666 -1 -75.999v-506c0 -43.333 -1.5 -86.5 -4.5 -129.5
s-8.83301 -84.167 -17.5 -123.5s-21.167 -76 -37.5 -110s-37.833 -63.667 -64.5 -89s-59.334 -45.166 -98.001 -59.499s-84.667 -21.5 -138 -21.5c-50.667 0 -94.667 7.33301 -132 22s-69.333 35 -96 61s-48.5 56.833 -65.5 92.5s-30.333 74.167 -40 115.5
s-16.334 84.833 -20.001 130.5s-5.5 91.834 -5.5 138.501v390c0 42 1.5 84.5 4.5 127.5s9 84.5 18 124.5s21.667 77.5 38 112.5s37.666 65.5 63.999 91.5s58.5 46.5 96.5 61.5s83.333 22.5 136 22.5c17.333 0 40.166 -2.83301 68.499 -8.5s57.5 -18 87.5 -37
s58.5 -46.833 85.5 -83.5s47.5 -85.667 61.5 -147c10.667 61.333 28.167 110.333 52.5 147s50.833 64.5 79.5 83.5s57.334 31.333 86.001 37s52.667 8.5 72 8.5c51.333 0 95.333 -7.33301 132 -22s67.167 -34.5 91.5 -59.5s43.5 -54.667 57.5 -89s24.5 -71 31.5 -110
s11.5 -79.667 13.5 -122s3 -84.5 3 -126.5v-361z" />
    <glyph glyph-name="uni10D8" unicode="&#x10d8;" horiz-adv-x="981" 
d="M860 804c0 -35.333 -0.500977 -74.8359 -1.50098 -118.503s-4 -88.5 -9 -134.5s-13 -91.5 -24 -136.5s-26.667 -86.667 -47 -125s-46.166 -72 -77.499 -101s-69.666 -50.167 -114.999 -63.5v82c34.667 7.33301 63.334 27.833 86.001 61.5s40.5 75.834 53.5 126.501
s22 107.334 27 170.001s7.5 126.667 7.5 192v298c0 72 -3.83301 137.167 -11.5 195.5s-21.667 108.166 -42 149.499s-48 73.333 -83 96s-79.5 34 -133.5 34s-98.5 -11 -133.5 -33s-62.5 -53.5 -82.5 -94.5s-33.833 -90.833 -41.5 -149.5s-11.5 -124.667 -11.5 -198v-298
c0 -67.333 3 -132.5 9 -195.5s16 -119.833 30 -170.5s32.167 -93 54.5 -127s49.5 -55.333 81.5 -64v-80c-46 13.333 -84.833 34.5 -116.5 63.5s-57.667 62.833 -78 101.5s-36 80.5 -47 125.5s-19 90.5 -24 136.5s-8 90.667 -9 134s-1.5 82.333 -1.5 117v221
c0 42.667 1.33301 86.834 4 132.501s8.33398 90.334 17.001 134.001s21.167 85.167 37.5 124.5s38.166 73.833 65.499 103.5s61.166 53.167 101.499 70.5s88.5 26 144.5 26c56.667 0 105.167 -8.66699 145.5 -26s74.166 -40.666 101.499 -69.999s49.166 -63.5 65.499 -102.5
s28.833 -80 37.5 -123s14.334 -86.833 17.001 -131.5s4 -87.334 4 -128.001z" />
    <glyph glyph-name="uni10D9" unicode="&#x10d9;" horiz-adv-x="990" 
d="M870 505c0 -50.667 -8.16602 -99.1689 -24.499 -145.502s-40.833 -87.333 -73.5 -123s-73.5 -64 -122.5 -85s-105.833 -31.5 -170.5 -31.5c-59.333 0 -113 9.66699 -161 29s-88.833 45.5 -122.5 78.5s-59.667 71.333 -78 115s-27.5 89.5 -27.5 137.5v46
c0 20 3.83301 42 11.5 66s17.5 47.667 29.5 71s25.667 45 41 65s30.666 36 45.999 48l54 -50c-12.667 -11.333 -24 -24.333 -34 -39s-18.667 -29.667 -26 -45s-13 -31 -17 -47s-6 -31 -6 -45l1 -71c0 -35.333 5.83301 -69.833 17.5 -103.5s29.5 -63.5 53.5 -89.5
s54.167 -47 90.5 -63s78.833 -24 127.5 -24c54 0 99.5 8.83301 136.5 26.5s67 41.334 90 71.001s39.5 64 49.5 103s15 79.833 15 122.5v100c0 43.333 -6 85.833 -18 127.5s-28.667 78.834 -50 111.501s-46.833 59 -76.5 79s-62.5 30 -98.5 30h-175v70h166
c28.667 0 56.5 5.5 83.5 16.5s50.833 26.5 71.5 46.5s37.167 44.167 49.5 72.5s18.5 60.166 18.5 95.499c0 43.333 -8.5 81 -25.5 113s-38.167 58.5 -63.5 79.5s-53.333 37 -84 48s-59.334 17.167 -86.001 18.5v79c32 -2.66699 68.5 -11.5 109.5 -26.5s80 -36.167 117 -63.5
s68.167 -61 93.5 -101s38 -86 38 -138c0 -73.333 -23.167 -132.666 -69.5 -177.999s-113.166 -74.333 -200.499 -87v-17c56 -8.66699 103 -25 141 -49s68.833 -53 92.5 -87s40.667 -71.667 51 -113s15.5 -83.333 15.5 -126v-118z" />
    <glyph glyph-name="uni10DA" unicode="&#x10da;" horiz-adv-x="2002" 
d="M1902 1117c0 -39.333 -4.83203 -83.3291 -14.499 -131.996s-24.334 -97 -44.001 -145s-44.334 -93.167 -74.001 -135.5s-64.167 -76.5 -103.5 -102.5l-59 55c36.667 30.667 67.5 65.834 92.5 105.501s44.833 80.667 59.5 123s25.167 84.333 31.5 126
s9.5 80.167 9.5 115.5v65c0 53.333 -6.16699 100.333 -18.5 141s-29.333 74.834 -51 102.501s-46.834 48.5 -75.501 62.5s-59.334 21 -92.001 21c-52 0 -94.167 -7.83301 -126.5 -23.5s-57.5 -37 -75.5 -64s-30.333 -58.667 -37 -95s-10 -75.5 -10 -117.5v-290h-89v290
c0 40.667 -2.83301 79.667 -8.5 117s-16.667 70.333 -33 99s-39.166 51.667 -68.499 69s-67.666 26 -114.999 26c-46.667 0 -84.667 -8.83301 -114 -26.5s-52.166 -40.834 -68.499 -69.501s-27.5 -61.167 -33.5 -97.5s-9 -73.5 -9 -111.5v-296h-91v296
c0 38 -1.83301 74.667 -5.5 110s-13.334 66.666 -29.001 93.999s-39.834 49.166 -72.501 65.499s-78 24.5 -136 24.5c-42.667 0 -79.167 -9.33301 -109.5 -28s-55.333 -44.334 -75 -77.001s-34 -71 -43 -115s-13.5 -91.333 -13.5 -142v-146
c0 -82.667 13.167 -159.167 39.5 -229.5s63.5 -134.5 111.5 -192.5s106.333 -109.333 175 -154s145 -82.167 229 -112.5s175.167 -53.333 273.5 -69s201.5 -23.5 309.5 -23.5h153v-89h-149c-206 0 -386.5 22.667 -541.5 68s-284.5 107.333 -388.5 186s-182 170.5 -234 275.5
s-78 217.5 -78 337.5v155c0 62 6.66699 119.667 20 173s33.833 99.5 61.5 138.5s63 69.667 106 92s94.167 33.5 153.5 33.5c31.333 0 61.666 -2.16699 90.999 -6.5s56.5 -14.333 81.5 -30s47.667 -38.834 68 -69.501s37.166 -72 50.499 -124
c12.667 52 28.334 93.667 47.001 125s39.5 55.5 62.5 72.5s47.833 28.333 74.5 34s54.667 8.5 84 8.5c28 0 55.333 -3 82 -9s51.834 -17.667 75.501 -35s45 -41.666 64 -72.999s34.5 -72.333 46.5 -123c13.333 51.333 31.333 92.166 54 122.499s47.5 53.5 74.5 69.5
s54.833 26.333 83.5 31s55.667 7 81 7c47.333 0 91.833 -8.83301 133.5 -26.5s77.834 -43.334 108.501 -77.001s54.834 -75.167 72.501 -124.5s26.5 -106 26.5 -170v-85z" />
    <glyph glyph-name="uni10DB" unicode="&#x10db;" 
d="M779 713c0 61.333 -7.33301 114.331 -22 158.998s-35 81.667 -61 111s-56.5 51.166 -91.5 65.499s-72.833 21.5 -113.5 21.5c-48 0 -90.167 -11.5 -126.5 -34.5s-66.833 -52.167 -91.5 -87.5s-43.167 -74.166 -55.5 -116.499s-18.5 -83.166 -18.5 -122.499v-141
c0 -50 6.83301 -97.333 20.5 -142s33.167 -83.667 58.5 -117s56.5 -59.833 93.5 -79.5s78.5 -29.5 124.5 -29.5c40 0 77.167 9.33301 111.5 28s64.333 44.5 90 77.5s45.667 71.833 60 116.5s21.5 93.334 21.5 146.001v145zM880 574.998
c0 -59.333 -9.33105 -116.336 -27.998 -171.003s-45 -103 -79 -145s-74.5 -75.667 -121.5 -101s-98.833 -38 -155.5 -38c-64 0 -120.667 12.333 -170 37s-90.833 57.834 -124.5 99.501s-59 89.5 -76 143.5s-25.5 110 -25.5 168v141c0 48 8.5 97.833 25.5 149.5
s42.333 99.167 76 142.5s75.167 79 124.5 107s106 42 170 42c20.667 0 44.167 -2.33301 70.5 -7s52.5 -13.5 78.5 -26.5s51 -30.667 75 -53s44 -51.166 60 -86.499h10v354c0 31.333 -8.33301 59.333 -25 84s-38.334 45.5 -65.001 62.5s-57 30 -91 39s-68 13.5 -102 13.5
c-43.333 0 -81.833 -4.33301 -115.5 -13s-62 -20.334 -85 -35.001s-40.5 -31.667 -52.5 -51s-18 -39.666 -18 -60.999v-95h-91v95c0 32 10.167 62.5 30.5 91.5s47.5 54.5 81.5 76.5s72.833 39.5 116.5 52.5s88.5 19.5 134.5 19.5c48.667 0 95.5 -6.66699 140.5 -20
s84.667 -32.166 119 -56.499s61.666 -53.5 81.999 -87.5s30.5 -72 30.5 -114v-757z" />
    <glyph glyph-name="uni10DC" unicode="&#x10dc;" 
d="M800 712c0 46 -6.16211 90.502 -18.4951 133.502s-30.5 81.167 -54.5 114.5s-54.167 60 -90.5 80s-78.5 30 -126.5 30c-14 0 -30.833 -2.66699 -50.5 -8s-40.334 -14 -62.001 -26s-43.167 -27.333 -64.5 -46s-40.333 -41.334 -57 -68.001s-30.334 -57.5 -41.001 -92.5
s-16 -74.833 -16 -119.5v-158c0 -42.667 5.83301 -85 17.5 -127s29.5 -79.833 53.5 -113.5s54.167 -60.834 90.5 -81.501s79.166 -31 128.499 -31c48 0 90.167 9.33301 126.5 28s66.666 44.167 90.999 76.5s42.666 70.833 54.999 115.5s18.5 93 18.5 145v148z
M900.005 557.002c0 -59.333 -8.49902 -115.5 -25.499 -168.5s-42 -99.333 -75 -139s-73.667 -71.167 -122 -94.5s-103.833 -35 -166.5 -35c-56.667 0 -109 11.167 -157 33.5s-89.333 53 -124 92s-61.667 84.667 -81 137s-29 108.833 -29 169.5v791
c0 42.667 5.83301 80.667 17.5 114s27.5 61.333 47.5 84s43.5 39.834 70.5 51.501s55.833 17.5 86.5 17.5c26.667 0 53.334 -2.5 80.001 -7.5s53.334 -10.5 80.001 -16.5s53.167 -11.5 79.5 -16.5s52.166 -7.5 77.499 -7.5c18.667 0 36.5 1.33301 53.5 4
s33.833 6.33398 50.5 11.001s33.667 10.5 51 17.5l56 23.5v-72c-39.333 -23.333 -76.833 -38.333 -112.5 -45s-72.5 -10 -110.5 -10c-24 0 -47.333 2 -70 6s-45.334 8.5 -68.001 13.5s-45.334 9.5 -68.001 13.5s-46 6 -70 6c-30 0 -55.5 -5.33301 -76.5 -16
s-38.167 -25 -51.5 -43s-23 -38.667 -29 -62s-9 -47.333 -9 -72v-402c18.667 40 41.334 73.667 68.001 101s54.167 49.5 82.5 66.5s56.166 29.167 83.499 36.5s51 11 71 11c62.667 0 118.167 -12.667 166.5 -38s89 -58.333 122 -99s58.167 -86.334 75.5 -137.001
s26 -101.334 26 -152.001v-167z" />
    <glyph glyph-name="uni10DD" unicode="&#x10dd;" horiz-adv-x="1561" 
d="M1338 994c0 77.333 -1.99707 148.825 -5.99707 214.492s-14.833 122.334 -32.5 170.001s-44.334 84.834 -80.001 111.501s-84.834 40 -147.501 40c-45.333 0 -83.333 -8.33301 -114 -25s-55.5 -40.167 -74.5 -70.5s-32.667 -67 -41 -110s-12.5 -90.5 -12.5 -142.5v-566
h-99v566c0 55.333 -4 104.666 -12 147.999s-21.333 79.833 -40 109.5s-43.5 52.167 -74.5 67.5s-69.5 23 -115.5 23c-58 0 -104.667 -13.5 -140 -40.5s-62.5 -64.833 -81.5 -113.5s-31.5 -106.334 -37.5 -173.001s-9 -139.667 -9 -219v-162c0 -44.667 2 -90.667 6 -138
s10.667 -93.5 20 -138.5s21.166 -87.667 35.499 -128s31.666 -76.166 51.999 -107.499s43.5 -56.666 69.5 -75.999s55.333 -30.666 88 -33.999v-79c-49.333 2.66699 -92.666 15.667 -129.999 39s-69.666 53.666 -96.999 90.999s-50.333 79.666 -69 126.999
s-33.667 96.333 -45 147s-19.333 101.334 -24 152.001s-7 97.667 -7 141v166c0 54 1.66699 107.167 5 159.5s9.66602 101.666 18.999 147.999s22.5 89 39.5 128s39.167 72.667 66.5 101s60.833 50.333 100.5 66s86.5 23.5 140.5 23.5c78.667 0 141.5 -22.167 188.5 -66.5
s79.5 -110.166 97.5 -197.499c11.333 43.333 25.166 81.5 41.499 114.5s36.166 60.5 59.499 82.5s50.666 38.667 81.999 50s68 17 110 17c52 0 97.333 -7.83301 136 -23.5s71.667 -37.5 99 -65.5s49.833 -61.167 67.5 -99.5s31.5 -80.166 41.5 -125.499
s17 -93.166 21 -143.499s6 -101.166 6 -152.499l-2 -182c0 -43.333 -2.5 -90.333 -7.5 -141s-13.333 -101.334 -25 -152.001s-26.834 -99.667 -45.501 -147s-41.667 -89.666 -69 -126.999s-59.166 -67.666 -95.499 -90.999s-77.833 -36.333 -124.5 -39v79
c30 2.66699 57.5 13.834 82.5 33.501s47.333 45 67 76s36.834 67 51.501 108s26.834 84.333 36.501 130s16.834 92.334 21.501 140.001s7 94.5 7 140.5v166z" />
    <glyph glyph-name="uni10DE" unicode="&#x10de;" horiz-adv-x="990" 
d="M870 531c0 -64 -9.50293 -121.335 -28.5029 -172.002s-45.667 -93.667 -80 -129s-75.5 -62.5 -123.5 -81.5s-101 -28.5 -159 -28.5c-55.333 0 -106.666 9.16699 -153.999 27.5s-88.333 43.833 -123 76.5s-62 71.334 -82 116.001s-30 93 -30 145v41
c0 18.667 3.16699 40.167 9.5 64.5s15 48.333 26 72s24.167 45.667 39.5 66s32 36.166 50 47.499l55 -50c-22.667 -24 -41.834 -53.167 -57.501 -87.5s-23.5 -69.833 -23.5 -106.5v-32c0 -50 7.66699 -93.833 23 -131.5s36 -69 62 -94s56.5 -43.833 91.5 -56.5
s72.833 -19 113.5 -19c52 0 96.333 8.5 133 25.5s66.667 40.167 90 69.5s40.5 64.166 51.5 104.499s16.5 83.833 16.5 130.5v65c0 32.667 -5.83301 66.334 -17.5 101.001s-27.834 66.5 -48.501 95.5s-44.667 52.833 -72 71.5s-57 28 -89 28h-132v70h132
c32.667 0 60.334 4.33301 83.001 13s41 20.834 55 36.501s24.167 34.834 30.5 57.501s9.5 48 9.5 76v34c0 24.667 -6.33301 45.334 -19 62.001s-29.334 31.334 -50.001 44.001s-44.167 23.834 -70.5 33.501l-80.5 30.5c-27.333 10.667 -54.166 22.5 -80.499 35.5
s-49.833 28.667 -70.5 47s-37.334 40.5 -50.001 66.5s-19 57.333 -19 94h100c0 -37.333 10.833 -67.833 32.5 -91.5s48.834 -44.167 81.501 -61.5s67.834 -33 105.501 -47s72.834 -29.667 105.501 -47s59.834 -38.333 81.501 -63s32.5 -56 32.5 -94v-45
c0 -16.667 -3.5 -35.334 -10.5 -56.001s-18.5 -41 -34.5 -61s-37.167 -38.5 -63.5 -55.5s-58.833 -29.833 -97.5 -38.5v-16c32.667 -4 61.667 -13 87 -27s47.5 -30.667 66.5 -50s35 -40.5 48 -63.5s23.5 -45.833 31.5 -68.5s13.833 -43.834 17.5 -63.501
s5.5 -35.834 5.5 -48.501v-62z" />
    <glyph glyph-name="uni10DF" unicode="&#x10df;" 
d="M880 513c0 -60 -9.66504 -114.168 -28.998 -162.501s-46 -89.666 -80 -123.999s-74.333 -60.666 -121 -78.999s-97.334 -27.5 -152.001 -27.5c-60.667 0 -115.5 9 -164.5 27s-90.833 43.667 -125.5 77s-61.334 74 -80.001 122s-28 101.667 -28 161c0 32 3 59.667 9 83
s13.833 43.666 23.5 60.999s20.834 32.833 33.501 46.5s25.667 26.5 39 38.5l57 -57c-21.333 -22 -37 -45.833 -47 -71.5s-15 -60.5 -15 -104.5c0 -53.333 7.66699 -99.166 23 -137.499s36.333 -69.833 63 -94.5s58.167 -42.834 94.5 -54.501s75.5 -17.5 117.5 -17.5
c42.667 0 81.667 7.33301 117 22s65.666 36.167 90.999 64.5s45.166 63 59.499 104s21.5 87.5 21.5 139.5v974l-559 -87c23.333 -10.667 46.833 -20.5 70.5 -29.5s46.334 -18.5 68.001 -28.5s42 -21.167 61 -33.5s35.333 -27.5 49 -45.5s24.5 -39.5 32.5 -64.5
s12 -55.167 12 -90.5c0 -24 -7 -49.167 -21 -75.5s-37.5 -50.5 -70.5 -72.5s-76.333 -40.167 -130 -54.5s-120.167 -21.5 -199.5 -21.5v81c45.333 0 88 3.33301 128 10s75 16.167 105 28.5s53.667 27.5 71 45.5s26 38.667 26 62c0 42.667 -10.333 78.167 -31 106.5
s-47 52 -79 71s-67.5 34.667 -106.5 47l-113.5 34.5v87l780 115v-1075z" />
    <glyph glyph-name="uni10E0" unicode="&#x10e0;" horiz-adv-x="1580" 
d="M1480 610c0 -26.667 -4.15527 -56.5 -12.4883 -89.5s-20.333 -66.667 -36 -101s-34.5 -68.166 -56.5 -101.499s-46.667 -63.666 -74 -90.999s-57.166 -50.666 -89.499 -69.999s-66.166 -32 -101.499 -38v81c25.333 4.66699 49.666 14.5 72.999 29.5s45 33.667 65 56
s38 47.166 54 74.499s29.833 55.333 41.5 84s20.667 57.167 27 85.5s9.5 54.5 9.5 78.5v93c0 47.333 -4.33301 89.333 -13 126s-20.167 68.667 -34.5 96s-31 50.333 -50 69s-38.5 33.834 -58.5 45.501s-39.833 20 -59.5 25s-37.834 7.5 -54.501 7.5
c-28.667 0 -58.834 -4.83301 -90.501 -14.5s-60.834 -26.334 -87.501 -50.001s-48.834 -55.667 -66.501 -96s-26.5 -91.5 -26.5 -153.5v-204h-100v204c0 62 -8.5 113.167 -25.5 153.5s-38.333 72.333 -64 96s-54 40.334 -85 50.001s-60.5 14.5 -88.5 14.5
c-33.333 0 -66.5 -6.5 -99.5 -19.5s-62.5 -34.167 -88.5 -63.5s-47.167 -68.333 -63.5 -117s-24.5 -108.334 -24.5 -179.001v-88c0 -34.667 6.5 -73.334 19.5 -116.001s31.333 -83.667 55 -123s52.167 -74 85.5 -104s70.666 -50 111.999 -60v-79
c-40 5.33301 -77 17.5 -111 36.5s-64.667 42.5 -92 70.5s-51.666 59 -72.999 93s-39 68.5 -53 103.5s-24.667 69.167 -32 102.5s-11 63 -11 89v75c0 71.333 6.16699 143.5 18.5 216.5s33.333 143.5 63 211.5s69.334 131.833 119.001 191.5s112 111.667 187 156
s163.833 79.333 266.5 105s221.667 38.5 357 38.5l1 -79c-116.667 0 -223.834 -12.833 -321.501 -38.5s-185.334 -62 -263.001 -109s-144.334 -103.5 -200.001 -169.5s-99.834 -139.333 -132.501 -220c16.667 16.667 35.167 34.167 55.5 52.5s42.166 35.166 65.499 50.499
s48.333 27.833 75 37.5s55 14.5 85 14.5c28 0 56.667 -2.16699 86 -6.5s57.666 -15.166 84.999 -32.499s53.166 -43.333 77.499 -78s45.166 -82.334 62.499 -143.001c14.667 60.667 35 108.334 61 143.001s54.167 60.667 84.5 78s61.166 28.166 92.499 32.499
s59.666 6.5 84.999 6.5c46.667 0 92.167 -8.83301 136.5 -26.5s83.833 -44.834 118.5 -81.501s62.5 -83.167 83.5 -139.5s31.5 -123.166 31.5 -200.499v-91z" />
    <glyph glyph-name="uni10E1" unicode="&#x10e1;" horiz-adv-x="999" 
d="M899 553c0 -62 -9.66699 -119.499 -29 -172.499s-46.333 -98.833 -81 -137.5s-75.834 -68.834 -123.501 -90.501s-99.834 -32.5 -156.501 -32.5s-108.834 11 -156.501 33s-88.667 53.833 -123 95.5s-61.166 92.5 -80.499 152.5s-29 128 -29 204v1005h99v-1005
c0 -66.667 7.16699 -125.334 21.5 -176.001s34.333 -93 60 -127s56.334 -59.667 92.001 -77s74.5 -26 116.5 -26c48 0 90.167 8.83301 126.5 26.5s66.666 42.667 90.999 75s42.666 71.166 54.999 116.499s18.5 95.333 18.5 150v18c0 36 -6 70.333 -18 103s-27 64 -45 94
s-37.333 59.167 -58 87.5s-40 56.333 -58 84s-33 55.167 -45 82.5s-18 55.333 -18 84c0 12 0.666992 24.833 2 38.5s4 27.667 8 42s9.16699 28.333 15.5 42s14.5 26.167 24.5 37.5l82 -49c-7.33301 -10 -13.666 -19 -18.999 -27s-9.66602 -16.167 -12.999 -24.5
s-5.66602 -17.166 -6.99902 -26.499s-2 -20.333 -2 -33c0 -29.333 6.16699 -57.5 18.5 -84.5s27.833 -53.833 46.5 -80.5s38.667 -53.5 60 -80.5s41.333 -55.5 60 -85.5s34.167 -61.667 46.5 -95s18.5 -69.666 18.5 -108.999v-32z" />
    <glyph glyph-name="uni10E2" unicode="&#x10e2;" horiz-adv-x="1260" 
d="M1060 890c0 77.333 -9.66309 147.166 -28.9961 209.499s-46.833 115.833 -82.5 160.5s-78.834 79.834 -129.501 105.501s-107.334 40.834 -170.001 45.501l32 -656h-107l33 656c-58 -6 -111.833 -22.167 -161.5 -48.5s-92.834 -61.833 -129.501 -106.5
s-65.334 -97.834 -86.001 -159.501s-31 -130.5 -31 -206.5v-195c0 -36 4.5 -73.167 13.5 -111.5s22.333 -75.833 40 -112.5s39 -71.5 64 -104.5s53.5 -61.833 85.5 -86.5s67.167 -44.334 105.5 -59.001s79.5 -22 123.5 -22c42 0 81.667 7.33301 119 22
s71.833 34.334 103.5 59.001s60.167 53.5 85.5 86.5s46.833 67.833 64.5 104.5s31.5 74.167 41.5 112.5s15 75.5 15 111.5v195zM1160 695c0 -49.333 -6.16309 -97.6689 -18.4961 -145.002s-29.833 -92.333 -52.5 -135s-50 -82 -82 -118s-67.5 -67.167 -106.5 -93.5
s-81.333 -46.833 -127 -61.5s-93.167 -22 -142.5 -22c-50 0 -97.833 7.33301 -143.5 22s-88.167 35.167 -127.5 61.5s-75 57.5 -107 93.5s-59.333 75.333 -82 118s-40.167 87.834 -52.5 135.501s-18.5 95.834 -18.5 144.501v195c0 85.333 14.667 163.5 44 234.5
s68.166 132.5 116.499 184.5s103.5 93.667 165.5 125s125.667 50 191 56l-62 120h139l-52 -121c65.333 -5.33301 129.166 -23.333 191.499 -54s117.666 -72 165.999 -124s87.166 -113.667 116.499 -185s44 -150 44 -236v-195z" />
    <glyph glyph-name="uni10E3" unicode="&#x10e3;" horiz-adv-x="1087" 
d="M967 538c0 -68 -8.83398 -128.004 -26.501 -180.004s-42.834 -95.667 -75.501 -131s-72.167 -62 -118.5 -80s-98.5 -27 -156.5 -27c-64 0 -120.833 9.33301 -170.5 28s-91.5 45 -125.5 79s-59.833 74.333 -77.5 121s-26.5 98 -26.5 154v24c0 18 2.83301 38.667 8.5 62
s14 46.666 25 69.999s24.333 45.333 40 66s33.5 38 53.5 52l55 -52c-26.667 -26 -47.167 -55.667 -61.5 -89s-21.5 -66.333 -21.5 -99v-34c0 -44 6.33301 -84.667 19 -122s31.667 -69.333 57 -96s56.666 -47.5 93.999 -62.5s81 -22.5 131 -22.5c54 0 99.5 9 136.5 27
s66.667 42.667 89 74s38.333 68 48 110s14.5 87 14.5 135v828c0 22.667 -4.16699 43.667 -12.5 63s-20.166 36 -35.499 50s-34.333 24.833 -57 32.5s-48 11.5 -76 11.5c-26 0 -48.333 -5.33301 -67 -16s-34 -23.834 -46 -39.501s-20.833 -32.667 -26.5 -51
s-8.5 -35.166 -8.5 -50.499v-339h-89v339c0 21.333 -4 41.5 -12 60.5s-18.5 35.667 -31.5 50s-27.833 25.666 -44.5 33.999s-34 12.5 -52 12.5c-18.667 0 -35.167 -4.83301 -49.5 -14.5s-28 -20.167 -41 -31.5s-26 -21.833 -39 -31.5s-27.5 -14.5 -43.5 -14.5
c-10.667 0 -21.167 2.16699 -31.5 6.5s-20.5 9.83301 -30.5 16.5s-19.667 14.334 -29 23.001s-18 17.334 -26 26.001v90c9.33301 -6.66699 19.333 -14.667 30 -24s21.334 -18.166 32.001 -26.499s21 -15.333 31 -21s19 -8.5 27 -8.5c16 0 30.5 4.16699 43.5 12.5
s25.833 17.5 38.5 27.5s26.334 19.167 41.001 27.5s32 12.5 52 12.5c24.667 0 46.167 -3.66699 64.5 -11s34.5 -17.666 48.5 -30.999s26 -29.166 36 -47.499s19.667 -38.5 29 -60.5c10.667 20.667 23.167 40 37.5 58s30 33.833 47 47.5s35.333 24.5 55 32.5s40.5 12 62.5 12
c32.667 0 64.667 -5.16699 96 -15.5s59.333 -25.166 84 -44.499s44.5 -43 59.5 -71s22.5 -60 22.5 -96v-835z" />
    <glyph glyph-name="uni10E4" unicode="&#x10e4;" horiz-adv-x="1560" 
d="M749 1162c0 66 -6.16406 122.333 -18.4971 169s-30.5 84.834 -54.5 114.501s-53.333 51.167 -88 64.5s-74.334 20 -119.001 20s-83.834 -8.33301 -117.501 -25s-61.834 -40.834 -84.501 -72.501s-39.667 -70.167 -51 -115.5s-17 -97 -17 -155v-52
c0 -38.667 5.5 -78.334 16.5 -119.001s27.5 -77.667 49.5 -111s50 -60.666 84 -81.999s74 -32 120 -32c52.667 0 97 10 133 30s64.833 46.333 86.5 79s37.167 69.5 46.5 110.5s14 82.5 14 124.5v52zM1416 469c0 -39.333 -7.49316 -75.1611 -22.4932 -107.494
s-35.5 -61.5 -61.5 -87.5s-56.333 -48.667 -91 -68s-71.834 -35.333 -111.501 -48s-80.834 -22.167 -123.501 -28.5s-84.667 -9.5 -126 -9.5c-35.333 0 -73.333 2 -114 6s-81.167 11.167 -121.5 21.5s-79.166 24.166 -116.499 41.499s-70.333 39.166 -99 65.499
s-51.667 57.833 -69 94.5s-26 79.334 -26 128.001l97 -19c0 -34.667 7 -65 21 -91s32.833 -48.5 56.5 -67.5s50.667 -34.833 81 -47.5s62.166 -22.834 95.499 -30.501s66.833 -13.167 100.5 -16.5s65.167 -5 94.5 -5c30 0 61.833 2 95.5 6s66.667 10.333 99 19
s63.166 19.834 92.499 33.501s55.166 30.5 77.499 50.5s40 43.167 53 69.5s19.5 56.5 19.5 90.5v53c0 28 -3 59.167 -9 93.5s-16.667 66.333 -32 96s-36.333 54.5 -63 74.5s-60.334 30 -101.001 30h-92v69h92c39.333 0 73.333 9.83301 102 29.5s52.167 44.167 70.5 73.5
s32 60.666 41 93.999s13.5 64 13.5 92v51c0 38.667 -2.66699 76.167 -8 112.5s-16.666 68.833 -33.999 97.5s-43 51.667 -77 69s-79.333 26 -136 26c-44.667 0 -82.5 -8.33301 -113.5 -25s-56.167 -40 -75.5 -70s-33.333 -65.333 -42 -106s-13 -85 -13 -133v-86
c0 -50.667 -7.5 -101.5 -22.5 -152.5s-37.667 -96.833 -68 -137.5s-68.833 -73.834 -115.5 -99.501s-101.667 -38.5 -165 -38.5c-40 0 -76.667 6.16699 -110 18.5s-63.666 29.166 -90.999 50.499s-51.5 46 -72.5 74s-38.5 58 -52.5 90s-24.667 64.667 -32 98
s-11 65.666 -11 96.999v52c0 64 8.66699 123.333 26 178s42.166 102 74.499 142s71.166 71.333 116.499 94s96 34 152 34c28.667 0 60.167 -4.16699 94.5 -12.5s67.166 -22.166 98.499 -41.499s59 -44.833 83 -76.5s39.667 -70.834 47 -117.501
c11.333 50 28.166 91 50.499 123s47.166 57.167 74.499 75.5s55.333 31.166 84 38.499s55 11 79 11c62 0 115.667 -10 161 -30s82.833 -47.167 112.5 -81.5s51.5 -74.333 65.5 -120s21 -94.167 21 -145.5v-49c0 -11.333 -1.16699 -26.166 -3.5 -44.499
s-6.83301 -38.333 -13.5 -60s-16 -44 -28 -67s-27.833 -44.667 -47.5 -65s-43.667 -38.333 -72 -54s-62.166 -27.167 -101.499 -34.5v-12c54 -11.333 97 -28.833 129 -52.5s56.333 -50.334 73 -80.001s27.5 -60.5 32.5 -92.5s7.5 -62 7.5 -90v-63z" />
    <glyph glyph-name="uni10E5" unicode="&#x10e5;" 
d="M880 492c0 -52 -9.83789 -100.504 -29.5049 -145.504s-47 -84.333 -82 -118s-76.333 -60.167 -124 -79.5s-99.167 -29 -154.5 -29c-62 0 -117.333 10.5 -166 31.5s-89.5 49 -122.5 84s-58.167 75.667 -75.5 122s-26 94.833 -26 145.5c0 26.667 3.5 52.167 10.5 76.5
s16 46.5 27 66.5s23.667 37.667 38 53s28.833 27.666 43.5 36.999l55 -55l-31 -31.5c-9.33301 -9.66699 -17.166 -20.167 -23.499 -31.5s-11.333 -24.666 -15 -39.999s-5.5 -34.333 -5.5 -57v-29c0 -38 5.5 -74.5 16.5 -109.5s28.333 -66.167 52 -93.5
s53.834 -49.166 90.501 -65.499s80.667 -24.5 132 -24.5c42.667 0 82.334 8.16699 119.001 24.5s68.334 38 95.001 65s47.667 58.167 63 93.5s23 72 23 110v519c0 18.667 -4 39.334 -12 62.001s-19.167 45.5 -33.5 68.5s-31.666 45.333 -51.999 67s-43 41 -68 58
s-52.167 30.5 -81.5 40.5s-60 15 -92 15c-43.333 0 -78.166 -5.83301 -104.499 -17.5s-46.5 -26.167 -60.5 -43.5s-23.333 -36.5 -28 -57.5s-7 -40.5 -7 -58.5c0 -27.333 4 -51 12 -71s24 -41.667 48 -65l-38 -68c-40.667 32 -69.334 64.833 -86.001 98.5
s-25 68.834 -25 105.501s6.5 70.5 19.5 101.5s31.667 57.833 56 80.5s54.5 40.334 90.5 53.001s77 19 123 19c68.667 0 133 -19.333 193 -58s108.667 -96.667 146 -174v373h-198v70h288v-1118z" />
    <glyph glyph-name="uni10E6" unicode="&#x10e6;" horiz-adv-x="1461" 
d="M1361 1012c0 -52 -5.50195 -101.836 -16.502 -149.503s-25.5 -91.167 -43.5 -130.5s-38.5 -74.166 -61.5 -104.499s-46.833 -54.166 -71.5 -71.499l-59 55c32.667 24.667 58.834 55.667 78.501 93s34.834 75.833 45.501 115.5s17.834 78.167 21.501 115.5
s5.5 68.666 5.5 93.999v120c0 76 -4 138.667 -12 188s-21.167 88.333 -39.5 117s-42.833 48.5 -73.5 59.5s-69 16.5 -115 16.5c-51.333 0 -92.666 -7.83301 -123.999 -23.5s-55.666 -39 -72.999 -70s-29 -69.167 -35 -114.5s-9 -97.666 -9 -156.999v-266h-99v266
c0 60 -4 112.833 -12 158.5s-21.167 83.834 -39.5 114.501s-42.5 53.667 -72.5 69s-67.333 23 -112 23c-42.667 0 -79.334 -8 -110.001 -24s-56 -41.667 -76 -77s-34.667 -80.833 -44 -136.5s-14 -123.167 -14 -202.5v-144c0 -78 9 -149.833 27 -215.5s43 -125 75 -178
s69.833 -99.833 113.5 -140.5s91.5 -74.5 143.5 -101.5s106.833 -47.5 164.5 -61.5s116.5 -21 176.5 -21h171v-88h-171c-74 0 -145 8.5 -213 25.5s-131.667 41.667 -191 74s-113.333 71.833 -162 118.5s-90.334 99.834 -125.001 159.501s-61.5 125.5 -80.5 197.5
s-28.5 149 -28.5 231v144c0 80 6 152 18 216s31.333 118.5 58 163.5s61.667 79.667 105 104s96 36.5 158 36.5c30.667 0 60.5 -2.5 89.5 -7.5s56 -16.667 81 -35s47.667 -45.5 68 -81.5s37.166 -85 50.499 -147c8.66699 61.333 24.167 110 46.5 146s47.5 63.167 75.5 81.5
s57 30.166 87 35.499s57.667 8 83 8c64 0 117.833 -8.66699 161.5 -26s78.667 -44.333 105 -81s45.333 -84 57 -142s17.5 -127.333 17.5 -208v-141z" />
    <glyph glyph-name="uni10E7" unicode="&#x10e7;" 
d="M880 524c0 -54 -7.66797 -105.334 -23.001 -154.001s-38.833 -91.5 -70.5 -128.5s-72 -66.5 -121 -88.5s-107.5 -33 -175.5 -33c-58 0 -111 9.66699 -159 29s-89 45.5 -123 78.5s-60.5 71.667 -79.5 116s-28.5 91.166 -28.5 140.499c0 22.667 1.83301 44.5 5.5 65.5
s9.83398 41.833 18.501 62.5s20.5 41.167 35.5 61.5s33.833 41.166 56.5 62.499l49 -52c-16 -16.667 -28.5 -33.5 -37.5 -50.5s-15.5 -34 -19.5 -51s-6.33301 -34 -7 -51s-1 -33.833 -1 -50.5c0 -31.333 5.33301 -63.666 16 -96.999s27.5 -63.666 50.5 -90.999
s52.833 -49.666 89.5 -66.999s81.334 -26 134.001 -26c56.667 0 104.167 11.167 142.5 33.5s69.166 51.833 92.499 88.5s39.833 78.5 49.5 125.5s14.5 95.167 14.5 144.5v420c-17.333 -36 -36.833 -65.5 -58.5 -88.5s-45 -41.167 -70 -54.5s-51.5 -22.5 -79.5 -27.5
s-56.333 -7.5 -85 -7.5c-56.667 0 -107.5 9.83301 -152.5 29.5s-83.333 45.5 -115 77.5s-55.834 68.167 -72.501 108.5s-25 80.833 -25 121.5v49c0 44 7.33301 85.167 22 123.5s33.667 73.833 57 106.5s49.333 62.667 78 90s57 52 85 74l51 -54
c-25.333 -16 -50.166 -36.667 -74.499 -62s-46.166 -52.5 -65.499 -81.5s-34.833 -58.5 -46.5 -88.5s-17.5 -58 -17.5 -84v-32c0 -52 7.5 -96.833 22.5 -134.5s35.167 -68.667 60.5 -93s54.666 -42.333 87.999 -54s68.333 -17.5 105 -17.5
c39.333 0 73.833 5.83301 103.5 17.5s55.5 26.667 77.5 45s40.167 38.666 54.5 60.999s25.833 44 34.5 65s14.667 40.333 18 58s5 30.834 5 39.501l2 391h89v-1066z" />
    <glyph glyph-name="uni10E8" unicode="&#x10e8;" horiz-adv-x="1125" 
d="M906 688c0 58.667 -6.8291 108.836 -20.4961 150.503s-33.834 75.667 -60.501 102s-59.834 45.666 -99.501 57.999s-85.167 18.5 -136.5 18.5c-44 0.666992 -84.5 -9.5 -121.5 -30.5s-69 -49.167 -96 -84.5s-48 -75.833 -63 -121.5s-22.5 -92.834 -22.5 -141.501v-90
c0 -45.333 7.5 -89 22.5 -131s36.167 -79.333 63.5 -112s60 -58.667 98 -78s80.333 -29 127 -29c42 0 81.667 7 119 21s70.166 34.167 98.499 60.5s50.666 58.666 66.999 96.999s24.5 81.833 24.5 130.5v180zM1005 508.002c0 -63.333 -11.3369 -119.166 -34.0039 -167.499
s-52.834 -88.833 -90.501 -121.5s-81 -57.334 -130 -74.001s-100.167 -25 -153.5 -25c-56 0 -108.833 12.333 -158.5 37s-93.167 57 -130.5 97s-66.833 85.167 -88.5 135.5s-32.5 101.5 -32.5 153.5v117c0 56.667 9.16699 111.334 27.5 164.001s44.833 99.5 79.5 140.5
s76.667 73.833 126 98.5s105 37 167 37c21.333 0 47 -2.16699 77 -6.5s59.833 -12.666 89.5 -24.999s57.5 -29.333 83.5 -51s45.667 -49.5 59 -83.5l20 1v353c0 49.333 -2.33301 89.666 -7 120.999s-14 56 -28 74s-33.5 30.333 -58.5 37s-57.833 10 -98.5 10
c-60 0 -103.667 -14.833 -131 -44.5s-41 -72.834 -41 -129.501v-73h-74v73c0 32 -5.66699 59.167 -17 81.5s-26.166 40.333 -44.499 54s-39.166 23.5 -62.499 29.5s-47.333 9 -72 9c-27.333 0 -50 -4 -68 -12s-32.167 -18.167 -42.5 -30.5s-17.666 -26 -21.999 -41
s-6.5 -29.5 -6.5 -43.5v-142h-73v142c0 28.667 5.16699 55.5 15.5 80.5s24.333 46.833 42 65.5s38.667 33.5 63 44.5s50.5 16.5 78.5 16.5c30 0 57 -2.5 81 -7.5s45.667 -13.5 65 -25.5s37 -27.833 53 -47.5s30.667 -44.167 44 -73.5
c24.667 57.333 55.834 97.333 93.501 120s80.5 34 128.5 34c48.667 0 90.334 -6.5 125.001 -19.5s62.667 -33 84 -60s37 -61 47 -102s15 -89.167 15 -144.5v-776z" />
    <glyph glyph-name="uni10E9" unicode="&#x10e9;" 
d="M637 1258c8.66699 17.333 14.333 35.001 17 53.001s4 41.667 4 71c0 32.667 -8.33301 58.834 -25 78.501s-37.167 34.667 -61.5 45s-50.5 17 -78.5 20s-53.333 4.5 -76 4.5c-28 0 -54.5 -4.33301 -79.5 -13s-47 -21 -66 -37s-34.167 -34.833 -45.5 -56.5
s-17 -45.5 -17 -71.5v-495c14.667 41.333 34 75.666 58 102.999s49.833 49.166 77.5 65.499s56 27.833 85 34.5s55.5 10 79.5 10c76 0 139.167 -12.333 189.5 -37s90.333 -57 120 -97s50.667 -85.167 63 -135.5s18.5 -100.833 18.5 -151.5v-67c0 -48 -7.33301 -94 -22 -138
s-33.334 -85.333 -56.001 -124s-47.667 -74 -75 -106s-53.333 -60 -78 -84h-85c26.667 30 52.834 61.5 78.501 94.5s48.667 68 69 105s36.833 76.167 49.5 117.5s19 85.333 19 132v60c0 18.667 -1.33301 40.5 -4 65.5s-7.66699 50.5 -15 76.5s-17.5 51.5 -30.5 76.5
s-30.333 47.5 -52 67.5s-48 36 -79 48s-67.833 18 -110.5 18c-48.667 0 -91.667 -10 -129 -30s-68.666 -44.667 -93.999 -74s-44.5 -61.166 -57.5 -95.499s-19.5 -65.5 -19.5 -93.5v-558h-89v1228c0 36.667 8.16699 69.834 24.5 99.501s38.166 55 65.499 76
s58.833 37.333 94.5 49s73.167 17.5 112.5 17.5c32 0 67.167 -3.5 105.5 -10.5s74 -19 107 -36s60.5 -40.333 82.5 -70s33 -66.834 33 -111.501c0 -23.333 -3 -45.833 -9 -67.5s-17.667 -44.834 -35 -69.501z" />
    <glyph glyph-name="uni10EA" unicode="&#x10ea;" horiz-adv-x="1081" 
d="M981 555c0 -63.333 -10.8359 -121.496 -32.5029 -174.496s-52 -98.833 -91 -137.5s-85.333 -68.834 -139 -90.501s-112.5 -32.5 -176.5 -32.5c-65.333 0 -125.166 12.333 -179.499 37s-101 59.667 -140 105s-69.167 99.5 -90.5 162.5s-32 133.167 -32 210.5v383
c0 32 1.66699 70.167 5 114.5s10.166 92 20.499 143s25 104.167 44 159.5s44.167 110 75.5 164l63 -55c-20 -38 -36.833 -80.167 -50.5 -126.5s-24.667 -93.333 -33 -141s-14.5 -93.834 -18.5 -138.501s-6 -84.667 -6 -120v-383c0 -51.333 7.16699 -102.833 21.5 -154.5
s35.833 -98.334 64.5 -140.001s64.334 -75.667 107.001 -102s92.334 -39.5 149.001 -39.5c56 0 105.167 9.83301 147.5 29.5s77.5 46 105.5 79s49.167 71 63.5 114s21.5 87.5 21.5 133.5v74c0 40.667 -4 78.334 -12 113.001s-20.5 64.5 -37.5 89.5s-38.833 44.5 -65.5 58.5
s-58.667 21 -96 21h-187v69h187c38 0 70.333 8.16699 97 24.5s48.5 35.833 65.5 58.5s29.333 46.167 37 70.5s11.5 44.5 11.5 60.5c0 20.667 -3.5 39 -10.5 55s-16.5 30.667 -28.5 44s-25.833 25.833 -41.5 37.5l-49.5 35.5c-19.333 12.667 -38.666 26.167 -57.999 40.5
s-37 31 -53 50s-29.333 40.833 -40 65.5s-16.667 54 -18 88h77c2.66699 -23.333 9 -44.5 19 -63.5s22.333 -36.333 37 -52s31.334 -30.334 50.001 -44.001l57 -40.5v1c20 -13.333 39.5 -27 58.5 -41s36 -29.333 51 -46s27.167 -35.334 36.5 -56.001s14 -44 14 -70
c0 -15.333 -2.16699 -34.166 -6.5 -56.499s-14.333 -45 -30 -68s-38.334 -45.167 -68.001 -66.5s-69.834 -39 -120.501 -53v-13c34 -6.66699 63.333 -16.834 88 -30.501s45.334 -29.334 62.001 -47.001s30 -36.834 40 -57.501s17.5 -41.167 22.5 -61.5
s8.33301 -40.166 10 -59.499s2.5 -36.666 2.5 -51.999v-78z" />
    <glyph glyph-name="uni10EB" unicode="&#x10eb;" 
d="M780 699c0 46 -6.66699 91.1689 -20 135.502s-32.5 84 -57.5 119s-55.5 63.333 -91.5 85s-76.333 32.5 -121 32.5c-46 0 -87 -9 -123 -27s-66.333 -43.5 -91 -76.5s-43.5 -72.333 -56.5 -118s-19.5 -95.834 -19.5 -150.501v-143c0 -118 25.333 -207 76 -267
s122 -90 214 -90c46 0 87 12 123 36s66.333 54.167 91 90.5s43.5 75.666 56.5 117.999s19.5 81.833 19.5 118.5v137zM880 556.002c0 -57.333 -9.16895 -112.333 -27.502 -165s-44.5 -99 -78.5 -139s-75 -72 -123 -96s-101.667 -36 -161 -36
c-66.667 0 -124.5 12.5 -173.5 37.5s-89.5 58.5 -121.5 100.5s-55.833 90.167 -71.5 144.5s-23.5 110.833 -23.5 169.5v138c0 58 7.83301 113.5 23.5 166.5s39.5 99.667 71.5 140s72.5 72.5 121.5 96.5s106.833 36 173.5 36c16.667 0 37.834 -2 63.501 -6
s52.5 -12.5 80.5 -25.5s55.833 -31.333 83.5 -55s51.834 -55.167 72.501 -94.5v642h90v-1054z" />
    <glyph glyph-name="uni10EC" unicode="&#x10ec;" horiz-adv-x="1127" 
d="M220 554c0 -46 6.83594 -90.3359 20.5029 -133.003s33.667 -80.5 60 -113.5s58.666 -59.333 96.999 -79s82.5 -29.5 132.5 -29.5s94.167 9.5 132.5 28.5s70.166 44.5 95.499 76.5s44.5 68.667 57.5 110s19.5 84.333 19.5 129v90c0 50.667 -5 99.334 -15 146.001
s-26.333 87.5 -49 122.5s-52.167 63 -88.5 84s-80.5 31.5 -132.5 31.5c-20 0 -41.833 -2.33301 -65.5 -7s-47.834 -12.167 -72.501 -22.5s-48.5 -23.666 -71.5 -39.999s-43.5 -36.166 -61.5 -59.499s-32.333 -50.5 -43 -81.5s-16 -66.167 -16 -105.5v-147zM120.003 1280
c0 56 4.34082 104.671 13.0078 146.004s23 75.666 43 102.999s46.5 47.666 79.5 60.999s73.833 20 122.5 20c50 0 94.5 -11.167 133.5 -33.5s73.5 -58.833 103.5 -109.5c24 53.333 55 90.5 93 111.5s86.333 31.5 145 31.5c28 0 54.5 -5 79.5 -15s46.667 -23.833 65 -41.5
s32.833 -38.667 43.5 -63s16 -50.833 16 -79.5v-111h-73v111c0 14.667 -2.5 29 -7.5 43s-13.333 26.667 -25 38s-26.667 20.5 -45 27.5s-40.833 10.5 -67.5 10.5c-24.667 0 -48.334 -3.66699 -71.001 -11s-42.834 -18.5 -60.501 -33.5s-31.834 -34 -42.501 -57
s-16 -50.5 -16 -82.5v-54h-77v54c0 56.667 -13 101.5 -39 134.5s-68.667 49.5 -128 49.5c-46 0 -82 -4.16699 -108 -12.5s-45.5 -22.333 -58.5 -42s-21.167 -46 -24.5 -79s-5 -73.833 -5 -122.5v-368h11c18.667 36.667 42.167 67.5 70.5 92.5s58 45 89 60
s61.5 25.667 91.5 32s56.333 9.5 79 9.5c62 0 117.167 -13.167 165.5 -39.5s89.166 -60.833 122.499 -103.5s58.666 -91.334 75.999 -146.001s26 -110.334 26 -167.001v-112c0 -54 -9.5 -105.833 -28.5 -155.5s-46.333 -93.5 -82 -131.5s-78.834 -68.333 -129.501 -91
s-107.334 -34 -170.001 -34c-58.667 0 -113 9.83301 -163 29.5s-93.333 48 -130 85s-65.334 81.833 -86.001 134.5s-31 112 -31 178v733z" />
    <glyph glyph-name="uni10ED" unicode="&#x10ed;" horiz-adv-x="980" 
d="M593 1077c30 -8 57.5 -16.1729 82.5 -24.5059s49 -17.333 72 -27s45.167 -20.167 66.5 -31.5l66 -36v-64l-58.5 41c-20.333 14 -42 27.333 -65 40s-47.667 24.167 -74 34.5s-54.833 18.833 -85.5 25.5c0 -25.333 4.16699 -49.166 12.5 -71.499s19 -43.666 32 -63.999
s27.833 -40.166 44.5 -59.499l50 -57l52 -60.5c17.333 -20.333 32.833 -41.166 46.5 -62.499s24.667 -43.166 33 -65.499s12.5 -45.166 12.5 -68.499v-43c0 -56 -8.66699 -106.5 -26 -151.5s-42.666 -83.167 -75.999 -114.5s-74.166 -55.333 -122.499 -72
s-103.5 -25 -165.5 -25c-60 0 -114.167 9.83301 -162.5 29.5s-89.333 46.834 -123 81.501s-59.5 75.5 -77.5 122.5s-27 97.833 -27 152.5c0 36 7.16699 71 21.5 105s33.166 64.667 56.499 92l61 -55c-9.33301 -14 -16.5 -26.833 -21.5 -38.5s-8.83301 -23.167 -11.5 -34.5
s-4.33398 -23 -5.00098 -35s-1 -25.333 -1 -40c0 -40 6.16699 -78.167 18.5 -114.5s30.5 -68.333 54.5 -96s54.167 -49.667 90.5 -66s78.5 -24.5 126.5 -24.5c50 0 93.333 7 130 21s66.834 33.5 90.501 58.5s41.167 54.833 52.5 89.5s17 73 17 115v58
c0 20 -2.83301 38.667 -8.5 56s-13 34 -22 50s-19.667 31.5 -32 46.5l-37.5 45.5c-14 16 -28 33.167 -42 51.5s-26.833 39 -38.5 62s-21 49.167 -28 78.5s-10.5 63 -10.5 101c-16 -23.333 -34.167 -44 -54.5 -62s-40.5 -33.5 -60.5 -46.5s-38.167 -22.833 -54.5 -29.5
s-27.833 -10 -34.5 -10c-29.333 0 -57 3 -83 9s-48.833 16.5 -68.5 31.5s-35.334 35.167 -47.001 60.5s-17.5 57.333 -17.5 96c0 34.667 5.83301 64 17.5 88s27.334 43.667 47.001 59s42.5 26.5 68.5 33.5s53.667 10.5 83 10.5c17.333 0 34.5 -4.33301 51.5 -13
s34 -20 51 -34s33.833 -30.167 50.5 -48.5l49 -56.5c3.33301 46.667 5.16602 91.167 5.49902 133.5s0.5 85.166 0.5 128.499v158h-176v70h251v-234c0 -28 -3.5 -64.167 -10.5 -108.5s-17.833 -91.5 -32.5 -141.5c30 10.667 58.5 23.167 85.5 37.5s52.333 29.333 76 45
s45.667 31.5 66 47.5l55.5 45v-70l-44.5 -31c-15 -10.667 -33.167 -22.167 -54.5 -34.5s-47 -25.833 -77 -40.5s-67 -30.667 -111 -48zM532 1091.99l-45.001 43.5029c-14.667 14.333 -29.167 27.333 -43.5 39s-28.666 21.167 -42.999 28.5s-28.833 11 -43.5 11
c-31.333 0 -56.333 -3.83301 -75 -11.5s-33.334 -17.834 -44.001 -30.501s-17.667 -26.834 -21 -42.501s-5 -31.834 -5 -48.501c0 -22.667 1.83301 -42.167 5.5 -58.5s10.834 -29.833 21.501 -40.5s25.5 -18.5 44.5 -23.5s43.5 -7.5 73.5 -7.5
c20.667 0 39.5 3.16699 56.5 9.5s32.5 15 46.5 26s26.833 23.667 38.5 38s23.167 29.5 34.5 45.5z" />
    <glyph glyph-name="uni10EE" unicode="&#x10ee;" 
d="M219 576c0 -49.333 6.49902 -96.6689 19.499 -142.002s32 -85.333 57 -120s55.333 -62.5 91 -83.5s76.5 -31.5 122.5 -31.5s87 9.33301 123 28s66.5 44.334 91.5 77.001s44 70.5 57 113.5s19.5 89.167 19.5 138.5v131c0 124.667 -25.167 219.834 -75.5 285.501
s-122.166 98.5 -215.499 98.5c-44 0 -84 -8.33301 -120 -25s-66.5 -41 -91.5 -73s-44.333 -71.5 -58 -118.5s-20.5 -100.833 -20.5 -161.5v-117zM119.999 1610l98.999 -0.00390625v-644c17.333 37.333 39.166 67.833 65.499 91.5s53.333 42.334 81 56.001
s54.334 23 80.001 28s46.834 7.5 63.501 7.5c66.667 0 124.5 -11.333 173.5 -34s89.667 -53.5 122 -92.5s56.333 -84.5 72 -136.5s23.5 -107 23.5 -165v-199c0 -43.333 -7.83301 -88.666 -23.5 -135.999s-39.667 -90.666 -72 -129.999s-73 -71.833 -122 -97.5
s-106.833 -38.5 -173.5 -38.5c-59.333 0 -113 13.5 -161 40.5s-88.833 61.333 -122.5 103s-59.667 87.334 -78 137.001s-27.5 97.167 -27.5 142.5v1067z" />
    <glyph glyph-name="uni10EF" unicode="&#x10ef;" horiz-adv-x="980" 
d="M100 1381l299.002 -0.00683594v229h89v-227l351 -2v-71h-343c0 -44.667 9.5 -85.667 28.5 -123s42.667 -73.666 71 -108.999s59.166 -70.833 92.499 -106.5s64.166 -73.667 92.499 -114s52 -84.333 71 -132s28.5 -101.5 28.5 -161.5v-59
c0 -51.333 -8.33301 -100.166 -25 -146.499s-41.334 -87.166 -74.001 -122.499s-73.167 -63.5 -121.5 -84.5s-104.166 -31.5 -167.499 -31.5c-71.333 0 -132 12 -182 36s-90.5 54.167 -121.5 90.5s-53.5 75.833 -67.5 118.5s-21 82.667 -21 120v39
c0 18.667 2.5 40.5 7.5 65.5s13.167 50.5 24.5 76.5s25.833 51.333 43.5 76s39.167 46 64.5 64l52 -53c-19.333 -17.333 -35 -35.666 -47 -54.999s-21.333 -39 -28 -59s-11.167 -40 -13.5 -60s-3.5 -38.667 -3.5 -56v-49c0 -35.333 6.16699 -69.5 18.5 -102.5
s30.666 -62.333 54.999 -88s54.666 -46.167 90.999 -61.5s78.833 -23 127.5 -23c54 0 99.333 9.16699 136 27.5s66.334 42.833 89.001 73.5s38.834 65.834 48.501 105.501s14.5 80.834 14.5 123.501v35c0 55.333 -9.16699 105 -27.5 149s-41.333 84.833 -69 122.5
s-57.667 73.667 -90 108s-62.333 70 -90 107s-50.667 76.333 -69 118s-27.5 88.834 -27.5 141.501h-307v71z" />
    <glyph glyph-name="uni10F0" unicode="&#x10f0;" horiz-adv-x="980" 
d="M880 479c0 -59.333 -10.4971 -111.502 -31.4971 -156.502s-49.333 -82.5 -85 -112.5s-77 -52.5 -124 -67.5s-96.833 -22.5 -149.5 -22.5c-55.333 0 -106.833 8.83301 -154.5 26.5s-89 44.334 -124 80.001s-62.333 80.334 -82 134.001s-29.5 116.834 -29.5 189.501h100
c0 -118.667 24.5 -206.667 73.5 -264s121.167 -86.333 216.5 -87c46 0 87 5.66699 123 17s66.333 27.666 91 48.999s43.5 47.5 56.5 78.5s19.5 65.5 19.5 103.5c0 32 -3.16699 62.833 -9.5 92.5s-16.666 56.167 -30.999 79.5s-32.833 42 -55.5 56s-50.334 21 -83.001 21
h-180v72h180c33.333 0 59.833 4.5 79.5 13.5s34.667 21.333 45 37s17 33.834 20 54.501s4.5 43 4.5 67c0 20 -2.5 39 -7.5 57s-14 33.833 -27 47.5s-31.167 24.5 -54.5 32.5s-53 12 -89 12h-182v71h182c31.333 0 56.666 7.5 75.999 22.5s34.5 32.5 45.5 52.5
s18.333 40.167 22 60.5s5.5 36.166 5.5 47.499c0 44.667 -13.167 79.667 -39.5 105s-60.833 44 -103.5 56s-91.167 19.333 -145.5 22s-109.166 4 -164.499 4h-29v80h32c37.333 0 76.666 -1.16699 117.999 -3.5s82.333 -6.83301 123 -13.5s79.667 -16 117 -28
s70.166 -27.667 98.499 -47s50.833 -42.833 67.5 -70.5s25 -60.167 25 -97.5c0 -18 -2.83301 -37.167 -8.5 -57.5s-15 -40.333 -28 -60s-30.667 -38.834 -53 -57.501s-49.833 -35.334 -82.5 -50.001c32.667 -4.66699 61.667 -12.834 87 -24.501s46.666 -25.667 63.999 -42
s30.333 -34.666 39 -54.999s13 -41.5 13 -63.5c0 -24.667 -2.66699 -48 -8 -70s-15.5 -42 -30.5 -60s-36.167 -33.667 -63.5 -47s-63 -23.666 -107 -30.999c44 -9.33301 81.167 -23.166 111.5 -41.499s54.833 -39 73.5 -62s32.167 -47.5 40.5 -73.5s12.5 -51.333 12.5 -76z
" />
    <glyph glyph-name="uni10F1" unicode="&#x10f1;" 
d="M900 455c0 -62.667 -10 -115.339 -30 -158.006s-47.5 -77.167 -82.5 -103.5s-76.167 -45.166 -123.5 -56.499s-98.666 -17 -153.999 -17c-59.333 0 -113 8.5 -161 25.5s-89 42 -123 75s-60.167 74.167 -78.5 123.5s-27.5 106 -27.5 170v1096h89v-1102
c0 -42.667 7 -82.834 21 -120.501s34 -70.5 60 -98.5s57.667 -50 95 -66s79.666 -24 126.999 -24c90.667 0 161.334 20.833 212.001 62.5s76 106.167 76 193.5c0 76 -13.5 133.833 -40.5 173.5s-73.167 59.5 -138.5 59.5h-109v70h109c32 0 59.333 4.5 82 13.5
s41.167 21.333 55.5 37s24.833 33.834 31.5 54.501s10 43 10 67c0 19.333 -3.16699 38.5 -9.5 57.5s-16.666 36 -30.999 51s-33.5 27.167 -57.5 36.5s-54 14 -90 14h-100v71h100c60 0 106.333 17.833 139 53.5s49 85.167 49 148.5c0 25.333 -4.33301 48.333 -13 69
s-23.5 38.334 -44.5 53.001s-48.667 26 -83 34s-76.833 12 -127.5 12v80c46.667 0 92.167 -4 136.5 -12s83.666 -21.5 117.999 -40.5s61.833 -44.167 82.5 -75.5s31 -70 31 -116c0 -33.333 -5.5 -62.666 -16.5 -87.999s-25.833 -47.5 -44.5 -66.5s-40.334 -35 -65.001 -48
s-50.667 -23.833 -78 -32.5v-11c62 -9.33301 111.5 -29.666 148.5 -60.999s55.5 -75 55.5 -131c0 -25.333 -3.16699 -48.333 -9.5 -69s-16.833 -39.167 -31.5 -55.5s-34.167 -30.666 -58.5 -42.999s-54.5 -22.833 -90.5 -31.5v-9c34.667 -10 64.167 -24.667 88.5 -44
s44 -41.166 59 -65.499s25.833 -50 32.5 -77s10 -53.167 10 -78.5z" />
    <glyph glyph-name="uni10F2" unicode="&#x10f2;" horiz-adv-x="980" 
d="M230 785c0 -66 9.99805 -125 29.998 -177s44 -96.833 72 -134.5s56.667 -68 86 -91s53.333 -38.833 72 -47.5c10.667 5.33301 24.667 14 42 26s35.666 27.333 54.999 46s38.666 40.5 57.999 65.5s36.833 53.333 52.5 85s28.334 66.5 38.001 104.5s14.5 79 14.5 123v305
c0 27.333 0.333008 57.166 1 89.499s-0.666016 64.833 -3.99902 97.5s-9.33301 64.167 -18 94.5s-22.667 57.333 -42 81s-44.666 42.5 -75.999 56.5s-71 21 -119 21c-48.667 0 -89 -7 -121 -21s-57.667 -33 -77 -57s-33.5 -52 -42.5 -84s-15.167 -65.667 -18.5 -101
s-4.66602 -71.666 -3.99902 -108.999s1 -73.333 1 -108v-265zM129.998 200c24.667 0 52.3301 3.5 82.9971 10.5s60.334 16 89.001 27s54.834 23.333 78.501 37s41.5 27.5 53.5 41.5c-45.333 6 -86.5 24.167 -123.5 54.5s-69 67.5 -96 111.5s-47.833 92.5 -62.5 145.5
s-22 105.5 -22 157.5v305c0 90.667 6.66699 168.834 20 234.501s34.5 119.667 63.5 162s66.5 73.5 112.5 93.5s101.333 30 166 30c64 0 118.5 -10 163.5 -30s82 -51.167 111 -93.5s50.167 -96.333 63.5 -162s20 -143.834 20 -234.501v-305
c0 -52 -7.83301 -104.5 -23.5 -157.5s-37.5 -101.5 -65.5 -145.5s-61.167 -80.833 -99.5 -110.5s-80.166 -47.167 -125.499 -52.5c10.667 -14 28.5 -28.167 53.5 -42.5s52.5 -27 82.5 -38s60.833 -20 92.5 -27s60.167 -10.5 85.5 -10.5v-81c-44.667 0 -85.5 5.5 -122.5 16.5
s-70.333 25 -100 42s-56 35.333 -79 55s-42.5 38.167 -58.5 55.5c-18 -17.333 -40.667 -36 -68 -56s-57 -38.5 -89 -55.5s-65.5 -31 -100.5 -42s-69.167 -16.5 -102.5 -16.5v81z" />
    <glyph glyph-name="uni10F3" unicode="&#x10f3;" horiz-adv-x="980" 
d="M880 502c0 -52.667 -8.67188 -102.171 -26.0049 -148.504s-42.666 -86.833 -75.999 -121.5s-74.166 -62 -122.499 -82s-103.5 -30 -165.5 -30c-63.333 0 -119.333 10.667 -168 32s-89.5 48.5 -122.5 81.5s-57.833 69.333 -74.5 109s-25 78.167 -25 115.5v70
c0 20 3.83301 42 11.5 66s17.667 47.5 30 70.5s26.333 44.333 42 64s31.167 35.5 46.5 47.5l50 -53c-25.333 -23.333 -45 -53.5 -59 -90.5s-21 -77.833 -21 -122.5v-47c0 -32 6 -63.667 18 -95s30 -59.666 54 -84.999s54.167 -45.666 90.5 -60.999s78.833 -23 127.5 -23
c50.667 0 94.334 9 131.001 27s66.834 41.833 90.501 71.5s41 64 52 103s16.5 79.833 16.5 122.5v79c0 43.333 -6 85.333 -18 126s-28.667 76.667 -50 108s-47.166 56.5 -77.499 75.5s-63.5 28.5 -99.5 28.5h-175v80h169c27.333 0 55.833 13.167 85.5 39.5
s56.667 62.166 81 107.499s44.5 98.333 60.5 159s24 125.667 24 195h-550v-190h-101v259h751v-150c0 -25.333 -3.66699 -53 -11 -83s-17.5 -60.667 -30.5 -92s-28.667 -62.166 -47 -92.499s-38.166 -58.333 -59.499 -84s-43.833 -48 -67.5 -67
s-47.834 -32.833 -72.501 -41.5c55.333 -17.333 101.5 -38.666 138.5 -63.999s66.5 -54 88.5 -86s37.667 -67.167 47 -105.5s14 -79.166 14 -122.499v-100z" />
    <glyph glyph-name="uni10F4" unicode="&#x10f4;" horiz-adv-x="980" 
d="M880 485c0 -53.333 -9.49902 -102.333 -28.499 -147s-45.667 -83.167 -80 -115.5s-75.333 -57.5 -123 -75.5s-99.834 -27 -156.501 -27c-58.667 0 -112 9.33301 -160 28s-89.167 44.167 -123.5 76.5s-61 70.666 -80 114.999s-28.5 92.166 -28.5 143.499
c0 42 3.16699 77.833 9.5 107.5s15.333 55.5 27 77.5s25.167 41.5 40.5 58.5s32 33.5 50 49.5l52 -57c-12 -11.333 -22.833 -23.5 -32.5 -36.5s-18 -28.5 -25 -46.5s-12.333 -39.667 -16 -65s-5.5 -56 -5.5 -92c0 -44 7.33301 -83.333 22 -118s35 -64 61 -88
s56.833 -42.333 92.5 -55s74.5 -19 116.5 -19c42.667 0 81.667 6.83301 117 20.5s65.666 33.334 90.999 59.001s45 56.334 59 92.001s21 75.5 21 119.5v24c0 46.667 -4.5 84.5 -13.5 113.5s-22.5 51.167 -40.5 66.5s-40.667 25.666 -68 30.999s-59.333 8 -96 8h-50v81h50
c27.333 0 54.166 6.33301 80.499 19s49.666 36 69.999 70s36.666 80.667 48.999 140s18.5 135.666 18.5 228.999c-24 -25.333 -51 -48 -81 -68s-61.333 -37 -94 -51s-65.5 -24.667 -98.5 -32s-64.5 -11 -94.5 -11c-45.333 0 -87 4.66699 -125 14s-70.833 23.833 -98.5 43.5
s-49.334 44.5 -65.001 74.5s-23.5 66 -23.5 108c0 11.333 2.33301 25.5 7 42.5s13.334 35.167 26.001 54.5s29.834 38.666 51.501 57.999s49.667 36.833 84 52.5s75.5 28.334 123.5 38.001s104.667 14.5 170 14.5v-81c-67.333 0 -124.166 -5.33301 -170.499 -16
s-83.666 -24.667 -111.999 -42s-48.666 -37.166 -60.999 -59.499s-18.5 -45.166 -18.5 -68.499c0 -18 3.16699 -37.167 9.5 -57.5s17.333 -39.166 33 -56.499s37 -31.833 64 -43.5s61.5 -17.5 103.5 -17.5c31.333 0 66.333 6.66699 105 20s78.667 30.666 120 51.999
s83 45.333 125 72l120 79c0 -104.667 -4.16699 -193.5 -12.5 -266.5s-22.833 -133.667 -43.5 -182s-48.167 -85.833 -82.5 -112.5s-77.833 -45.667 -130.5 -57c48.667 -4.66699 90 -15.167 124 -31.5s61.667 -36.333 83 -60s37 -50.167 47 -79.5s15 -59.333 15 -90v-27z" />
    <glyph glyph-name="uni10F5" unicode="&#x10f5;" horiz-adv-x="1098" 
d="M790 685h-298c-41.333 0 -79.833 -4.33301 -115.5 -13s-66.5 -23.334 -92.5 -44.001s-46.5 -47.667 -61.5 -81s-22.5 -74.333 -22.5 -123c0 -38 7.5 -71.167 22.5 -99.5s35.5 -51.666 61.5 -69.999s56.833 -32 92.5 -41s74.167 -13.5 115.5 -13.5
c54.667 0 101 8.16699 139 24.5s68.833 37.833 92.5 64.5s40.667 56.667 51 90s15.5 67 15.5 101v205zM200 1282c0 -42.667 7.5 -79.4971 22.5 -110.497s35.5 -56.5 61.5 -76.5s56.833 -34.667 92.5 -44s74.167 -14 115.5 -14h298v189c0 30 -5.16699 62.833 -15.5 98.5
s-27.333 68.667 -51 99s-54.5 55.666 -92.5 75.999s-84.333 30.5 -139 30.5c-41.333 0 -79.833 -4.5 -115.5 -13.5s-66.5 -23.333 -92.5 -43s-46.5 -45.334 -61.5 -77.001s-22.5 -69.834 -22.5 -114.501zM880 685.003l0.00488281 -205.001
c0 -49.333 -8.66699 -95.666 -26 -138.999s-42.5 -81.5 -75.5 -114.5s-73.5 -59 -121.5 -78s-103 -28.5 -165 -28.5s-117.167 6.83301 -165.5 20.5s-89.333 33.5 -123 59.5s-59.334 58.333 -77.001 97s-26.5 83 -26.5 133c0 52 9 98.333 27 139s43.833 74.834 77.5 102.501
s74.667 48.667 123 63s103.166 21.5 164.499 21.5h298v214h-298c-51.333 0 -100.666 7.16699 -147.999 21.5s-89 35 -125 62s-64.833 59.833 -86.5 98.5s-32.5 82 -32.5 130c0 48.667 8.66699 93.167 26 133.5s42.666 75 75.999 104s74.166 51.333 122.499 67
s103.5 23.5 165.5 23.5s117.167 -10.833 165.5 -32.5s89.166 -50.334 122.499 -86.001s58.666 -76.667 75.999 -123s26 -93.833 26 -142.5v-189h118v-67h-118v-214h118v-71h-118z" />
    <glyph glyph-name="uni10F6" unicode="&#x10f6;" horiz-adv-x="1420" 
d="M1221 1205c0 46 -3.5 88.8359 -10.5 128.503s-19.333 74 -37 103s-41.667 51.833 -72 68.5s-68.833 25 -115.5 25c-56 0 -99.5 -8.33301 -130.5 -25s-54 -39.334 -69 -68.001s-24 -62.334 -27 -101.001s-4.5 -80.334 -4.5 -125.001v-323c0 -60 8.33301 -110 25 -150
s37.167 -72 61.5 -96s50 -41 77 -51s50.833 -15 71.5 -15c44 0 80.667 7.66699 110 23s53 36.833 71 64.5s30.833 60.5 38.5 98.5s11.5 80 11.5 126v317zM431 1610c34 0 64.5029 -3.00098 91.5029 -9.00098s51.833 -16.167 74.5 -30.5s43.334 -33.333 62.001 -57
s37 -53.167 55 -88.5c12.667 36 26.667 65.833 42 89.5s33.666 42.667 54.999 57s46.5 24.333 75.5 30s63.5 8.5 103.5 8.5c64 0 117.167 -9.33301 159.5 -28s76.166 -45.167 101.499 -79.5s43.166 -75.666 53.499 -123.999s15.5 -102.166 15.5 -161.499v-329
c0 -66 -9 -123.667 -27 -173s-42.333 -90.5 -73 -123.5s-65.834 -57.667 -105.501 -74s-81.167 -24.5 -124.5 -24.5c-25.333 0 -48.166 2.5 -68.499 7.5s-39.5 13.167 -57.5 24.5s-35.833 26.5 -53.5 45.5s-36.167 42.5 -55.5 70.5v-215
c0 -54.667 -8.66699 -101.167 -26 -139.5s-41.833 -69.666 -73.5 -93.999s-70 -42.333 -115 -54s-94.833 -17.834 -149.5 -18.501v71c37.333 1.33301 72.5 7.16602 105.5 17.499s61.667 25.333 86 45s43.666 43.834 57.999 72.501s21.5 62 21.5 100l4 779
c0 56 -4.33301 104.5 -13 145.5s-22.334 74.667 -41.001 101s-43 46 -73 59s-66 19.5 -108 19.5c-48 0 -87.167 -9.5 -117.5 -28.5s-53.833 -44.5 -70.5 -76.5s-28 -68.667 -34 -110s-9 -84 -9 -128v-299c0 -54.667 6.5 -101.834 19.5 -141.501s30.167 -72.834 51.5 -99.501
s45.833 -46.667 73.5 -60s56.5 -21 86.5 -23v-71c-48 2 -92.333 12.667 -133 32s-75.667 46.166 -105 80.499s-52.166 75.333 -68.499 123s-24.5 100.834 -24.5 159.501v293c0 60.667 6.33301 117.167 19 169.5s32.5 97.833 59.5 136.5s61.333 68.834 103 90.501
s91.5 32.5 149.5 32.5z" />
    <glyph glyph-name="uni10FB" unicode="&#x10fb;" horiz-adv-x="813" 
d="M100 298h158v-160h-158v160zM100 967h158v-158h-158v158zM555 628h158v-157h-158v157z" />
    <glyph glyph-name="figuredash" unicode="&#x2012;" horiz-adv-x="1235" 
d="M1294 530h-1294v105h1294v-105z" />
    <glyph glyph-name="endash" unicode="&#x2013;" horiz-adv-x="1235" 
d="M-14 501v98h1272v-98h-1272z" />
    <glyph glyph-name="emdash" unicode="&#x2014;" horiz-adv-x="2218" 
d="M-24 500v98h2335v-98h-2335z" />
    <glyph glyph-name="quoteleft" unicode="&#x2018;" horiz-adv-x="501" 
d="M358 1599c-50 -55.333 -84.834 -103.999 -104.501 -145.999s-29.5 -81.333 -29.5 -118c0 -8 0.5 -15.833 1.5 -23.5s2.16699 -15.5 3.5 -23.5c4 1.33301 9.33301 2 16 2h10c23.333 0 43.833 -6.83301 61.5 -20.5s26.5 -32.834 26.5 -57.501
c0 -16.667 -2.83301 -31 -8.5 -43s-13 -22 -22 -30s-19.167 -13.833 -30.5 -17.5s-22.333 -5.5 -33 -5.5c-32 0 -57.667 11 -77 33s-29 58.667 -29 110c0 32 4.16699 64.5 12.5 97.5s20.333 65.5 36 97.5s34.834 63.167 57.501 93.5s48 58.5 76 84.5z" />
    <glyph glyph-name="quoteright" unicode="&#x2019;" horiz-adv-x="501" 
d="M143 1149c48.667 56 83.001 104.499 103.001 145.499s30 80.167 30 117.5c0 8 -0.333008 16 -1 24s-1.66699 16 -3 24c-4 -1.33301 -9.33301 -2 -16 -2h-10c-23.333 0 -43.833 6.83301 -61.5 20.5s-26.5 32.834 -26.5 57.501c0 16.667 2.83301 31 8.5 43s13 22 22 30
s19 13.833 30 17.5s22.167 5.5 33.5 5.5c32 0 57.667 -11 77 -33s29 -58.667 29 -110c0 -32 -4.16699 -64.5 -12.5 -97.5s-20.333 -65.5 -36 -97.5s-34.834 -63.167 -57.501 -93.5s-48 -58.5 -76 -84.5z" />
    <glyph glyph-name="quotesinglbase" unicode="&#x201a;" horiz-adv-x="501" 
d="M143 -162c48.667 56 83.001 104.499 103.001 145.499s30 80.167 30 117.5c0 8 -0.333008 16 -1 24s-1.66699 16 -3 24c-4 -1.33301 -9.33301 -2 -16 -2h-10c-23.333 0 -43.833 6.83301 -61.5 20.5s-26.5 32.834 -26.5 57.501c0 16.667 2.83301 31 8.5 43s13 22 22 30
s19 13.833 30 17.5s22.167 5.5 33.5 5.5c32 0 57.667 -11 77 -33s29 -58.667 29 -110c0 -32 -4.16699 -64.5 -12.5 -97.5s-20.333 -65.5 -36 -97.5s-34.834 -63.167 -57.501 -93.5s-48 -58.5 -76 -84.5z" />
    <glyph glyph-name="quotedblleft" unicode="&#x201c;" horiz-adv-x="801" 
d="M658 1599c-50 -55.333 -84.834 -103.999 -104.501 -145.999s-29.5 -81.333 -29.5 -118c0 -8 0.5 -15.833 1.5 -23.5s2.16699 -15.5 3.5 -23.5c4 1.33301 9.33301 2 16 2h10c23.333 0 43.833 -6.83301 61.5 -20.5s26.5 -32.834 26.5 -57.501
c0 -16.667 -2.83301 -31 -8.5 -43s-13 -22 -22 -30s-19.167 -13.833 -30.5 -17.5s-22.333 -5.5 -33 -5.5c-32 0 -57.667 11 -77 33s-29 58.667 -29 110c0 32 4.16699 64.5 12.5 97.5s20.333 65.5 36 97.5s34.834 63.167 57.501 93.5s48 58.5 76 84.5zM357.999 1599
c-50 -55.333 -84.834 -103.999 -104.501 -145.999s-29.5 -81.333 -29.5 -118c0 -8 0.5 -15.833 1.5 -23.5s2.16699 -15.5 3.5 -23.5c4 1.33301 9.33301 2 16 2h10c23.333 0 43.833 -6.83301 61.5 -20.5s26.5 -32.834 26.5 -57.501c0 -16.667 -2.83301 -31 -8.5 -43
s-13 -22 -22 -30s-19.167 -13.833 -30.5 -17.5s-22.333 -5.5 -33 -5.5c-32 0 -57.667 11 -77 33s-29 58.667 -29 110c0 32 4.16699 64.5 12.5 97.5s20.333 65.5 36 97.5s34.834 63.167 57.501 93.5s48 58.5 76 84.5z" />
    <glyph glyph-name="quotedblright" unicode="&#x201d;" horiz-adv-x="801" 
d="M143 1149c48.667 56 83.001 104.499 103.001 145.499s30 80.167 30 117.5c0 8 -0.333008 16 -1 24s-1.66699 16 -3 24c-4 -1.33301 -9.33301 -2 -16 -2h-10c-23.333 0 -43.833 6.83301 -61.5 20.5s-26.5 32.834 -26.5 57.501c0 16.667 2.83301 31 8.5 43s13 22 22 30
s19 13.833 30 17.5s22.167 5.5 33.5 5.5c32 0 57.667 -11 77 -33s29 -58.667 29 -110c0 -32 -4.16699 -64.5 -12.5 -97.5s-20.333 -65.5 -36 -97.5s-34.834 -63.167 -57.501 -93.5s-48 -58.5 -76 -84.5zM443.001 1149c48.667 56 83.001 104.499 103.001 145.499
s30 80.167 30 117.5c0 8 -0.333008 16 -1 24s-1.66699 16 -3 24c-4 -1.33301 -9.33301 -2 -16 -2h-10c-23.333 0 -43.833 6.83301 -61.5 20.5s-26.5 32.834 -26.5 57.501c0 16.667 2.83301 31 8.5 43s13 22 22 30s19 13.833 30 17.5s22.167 5.5 33.5 5.5
c32 0 57.667 -11 77 -33s29 -58.667 29 -110c0 -32 -4.16699 -64.5 -12.5 -97.5s-20.333 -65.5 -36 -97.5s-34.834 -63.167 -57.501 -93.5s-48 -58.5 -76 -84.5z" />
    <glyph glyph-name="quotedblbase" unicode="&#x201e;" horiz-adv-x="801" 
d="M143 -162c48.667 56 83.001 104.499 103.001 145.499s30 80.167 30 117.5c0 8 -0.333008 16 -1 24s-1.66699 16 -3 24c-4 -1.33301 -9.33301 -2 -16 -2h-10c-23.333 0 -43.833 6.83301 -61.5 20.5s-26.5 32.834 -26.5 57.501c0 16.667 2.83301 31 8.5 43s13 22 22 30
s19 13.833 30 17.5s22.167 5.5 33.5 5.5c32 0 57.667 -11 77 -33s29 -58.667 29 -110c0 -32 -4.16699 -64.5 -12.5 -97.5s-20.333 -65.5 -36 -97.5s-34.834 -63.167 -57.501 -93.5s-48 -58.5 -76 -84.5zM443.001 -162.001c48.667 56 83.001 104.499 103.001 145.499
s30 80.167 30 117.5c0 8 -0.333008 16 -1 24s-1.66699 16 -3 24c-4 -1.33301 -9.33301 -2 -16 -2h-10c-23.333 0 -43.833 6.83301 -61.5 20.5s-26.5 32.834 -26.5 57.501c0 16.667 2.83301 31 8.5 43s13 22 22 30s19 13.833 30 17.5s22.167 5.5 33.5 5.5
c32 0 57.667 -11 77 -33s29 -58.667 29 -110c0 -32 -4.16699 -64.5 -12.5 -97.5s-20.333 -65.5 -36 -97.5s-34.834 -63.167 -57.501 -93.5s-48 -58.5 -76 -84.5z" />
    <glyph glyph-name="dagger" unicode="&#x2020;" horiz-adv-x="1085" 
d="M592 1380v-454l381 -100v-82l-389 100v-946h-90v954l-381 -100v82l389 100v446h90z" />
    <glyph glyph-name="bullet" unicode="&#x2022;" horiz-adv-x="1024" 
d="M348 717c0 22.667 4.33301 43.834 13 63.501s20.5 37 35.5 52s32.333 26.833 52 35.5s40.834 13 63.501 13s43.834 -4.33301 63.501 -13s37 -20.5 52 -35.5s26.833 -32.333 35.5 -52s13 -40.834 13 -63.501s-4.33301 -43.834 -13 -63.501s-20.5 -37 -35.5 -52
s-32.333 -26.833 -52 -35.5s-40.834 -13 -63.501 -13s-43.834 4.33301 -63.501 13s-37 20.5 -52 35.5s-26.833 32.333 -35.5 52s-13 40.834 -13 63.501z" />
    <glyph glyph-name="ellipsis" unicode="&#x2026;" horiz-adv-x="1855" 
d="M338 154v161h164v-161h-164zM872 154v161h168v-161h-168zM1411 154v161h166v-161h-166z" />
    <glyph glyph-name="guilsinglleft" unicode="&#x2039;" horiz-adv-x="737" 
d="M283 610l299 -458h-97l-348 458l348 465h99z" />
    <glyph glyph-name="guilsinglright" unicode="&#x203a;" horiz-adv-x="737" 
d="M455 616l-301 459h96l338 -454l-338 -469h-96z" />
    <glyph glyph-name="Euro" unicode="&#x20ac;" horiz-adv-x="1085" 
d="M1067 249c-17.333 -12.667 -37 -24.998 -59 -36.998s-46.667 -22.5 -74 -31.5s-57.333 -16.333 -90 -22s-68.334 -8.5 -107.001 -8.5c-83.333 0 -158.166 14.167 -224.499 42.5s-124.5 67.5 -174.5 117.5s-89.833 108.667 -119.5 176s-49.167 140.333 -58.5 219h-133v76
h127v27c0 39.333 2 77.666 6 114.999h-133v75h145c12.667 74.667 35 143.5 67 206.5s73 118.5 123 166.5c51.333 48.667 110 87.5 176 116.5s142 43.5 228 43.5c34 0 65.5 -2.33301 94.5 -7s55.333 -10.5 79 -17.5s44.5 -14.667 62.5 -23s33.667 -16.5 47 -24.5l-31 -78
c-32 19.333 -70.333 35.5 -115 48.5s-93 19.5 -145 19.5c-68.667 0 -129 -11 -181 -33s-99 -52 -141 -90c-42 -40 -76.667 -88.5 -104 -145.5s-47.333 -117.833 -60 -182.5h691v-75h-703c-4 -35.333 -6 -71 -6 -107v-35h709v-76h-703
c9.33301 -72.667 27.333 -137.334 54 -194.001s60 -104.334 100 -143.001c88 -88 199.333 -132 334 -132c33.333 0 64.666 2.83301 93.999 8.5s56.333 12.667 81 21s46.834 17.333 66.501 27s36.5 18.834 50.5 27.501z" />
    <glyph glyph-name="trademark" unicode="&#x2122;" horiz-adv-x="1303" 
d="M1200 993l-29 379c-1.33301 16.667 -2.33301 35 -3 55s-1.66699 41.333 -3 64h-4c-3.33301 -8 -7 -17.5 -11 -28.5l-13 -34.5l-13 -36l-6 -17.5l-6 -16.5l-139 -357h-88l-142 367l-22 61.5l-23 61.5h-4c0 -18.667 -0.333008 -37.834 -1 -57.501
s-1.66699 -40.167 -3 -61.5l-28 -379h-78l49 557h112l144 -360c8 -20.667 15.333 -40.667 22 -60l19 -57h4c7.33301 19.333 14.333 39.333 21 60s12.667 38.334 18 53.001l143 364h113l53 -557h-82zM557 1550v-65h-205v-492h-76v492h-204v65h485z" />
    <glyph glyph-name=".null" horiz-adv-x="0" 
 />
    <glyph glyph-name="nonmarkingreturn" horiz-adv-x="643" 
 />
    <glyph glyph-name="ring" horiz-adv-x="770" 
d="M199 1430c0 25.333 5.33301 49.667 16 73s25.334 44 44.001 62s40.5 32.333 65.5 43s52.167 16 81.5 16c27.333 0 53.5 -5.33301 78.5 -16s47 -25 66 -43s34 -38.833 45 -62.5s16.5 -48.834 16.5 -75.501c0 -28 -5.5 -54.167 -16.5 -78.5s-25.833 -45.666 -44.5 -63.999
s-40.334 -32.833 -65.001 -43.5s-50.667 -16 -78 -16c-31.333 0 -59.833 5.5 -85.5 16.5s-47.667 25.667 -66 44s-32.5 40 -42.5 65s-15 51.5 -15 79.5zM274 1430c0.666992 -14 3.49805 -28.5 8.49805 -43.5s13 -28.667 24 -41s25.5 -22.5 43.5 -30.5s40 -12 66 -12
c20.667 0 38.667 3.83301 54 11.5s28 17.5 38 29.5s17.333 25.333 22 40s7 29 7 43c0 14.667 -2.66699 29.167 -8 43.5s-13.166 27.333 -23.499 39s-23.666 21 -39.999 28s-35.5 10.5 -57.5 10.5c-23.333 0 -43.333 -3.33301 -60 -10s-30.5 -15.5 -41.5 -26.5
s-19.167 -23.667 -24.5 -38s-8 -28.833 -8 -43.5z" />
    </font>
</defs>
</svg>
